<svg width="80" height="71" viewBox="0 0 80 71" fill="none" xmlns="http://www.w3.org/2000/svg">
<path d="M39.69 6.08C39.788 6.02627 39.8982 5.99871 40.01 6C40.1201 5.99957 40.2284 6.02709 40.325 6.08C40.4393 6.14857 40.5327 6.24713 40.595 6.365L74.88 64.7C75.06 65 75.055 65.32 74.89 65.615C74.8266 65.7361 74.7337 65.8392 74.62 65.915C74.521 65.9757 74.406 66.0053 74.29 66H5.72997C5.61391 66.0057 5.49886 65.976 5.39997 65.915C5.28624 65.8392 5.1934 65.7361 5.12997 65.615C5.04758 65.4762 5.00493 65.3175 5.00669 65.1561C5.00846 64.9947 5.05456 64.8369 5.13997 64.7L39.42 6.365C39.4825 6.24728 39.5758 6.14877 39.69 6.08ZM44.91 3.83C44.415 2.96782 43.7014 2.2515 42.841 1.75337C41.9807 1.25523 41.0041 0.99292 40.01 0.99292C39.0158 0.99292 38.0393 1.25523 37.1789 1.75337C36.3186 2.2515 35.6049 2.96782 35.11 3.83L0.824974 62.165C-1.46003 66.055 1.27997 71 5.72497 71H74.29C78.735 71 81.48 66.05 79.19 62.165L44.91 3.83Z" fill="#F49300"/>
<path d="M35.01 56C35.01 55.3434 35.1393 54.6932 35.3906 54.0866C35.6419 53.4799 36.0102 52.9288 36.4744 52.4645C36.9387 52.0002 37.4899 51.6319 38.0966 51.3806C38.7032 51.1293 39.3534 51 40.01 51C40.6666 51 41.3168 51.1293 41.9234 51.3806C42.53 51.6319 43.0812 52.0002 43.5455 52.4645C44.0098 52.9288 44.3781 53.4799 44.6294 54.0866C44.8806 54.6932 45.01 55.3434 45.01 56C45.01 57.3261 44.4832 58.5978 43.5455 59.5355C42.6078 60.4732 41.3361 61 40.01 61C38.6839 61 37.4121 60.4732 36.4744 59.5355C35.5368 58.5978 35.01 57.3261 35.01 56ZM35.5 25.975C35.4334 25.3442 35.5002 24.7065 35.696 24.1031C35.8918 23.4998 36.2122 22.9444 36.6366 22.4729C37.0609 22.0015 37.5796 21.6245 38.159 21.3664C38.7385 21.1084 39.3657 20.975 40 20.975C40.6343 20.975 41.2615 21.1084 41.8409 21.3664C42.4204 21.6245 42.9391 22.0015 43.3634 22.4729C43.7877 22.9444 44.1082 23.4998 44.304 24.1031C44.4998 24.7065 44.5666 25.3442 44.5 25.975L42.75 43.51C42.6912 44.1989 42.376 44.8406 41.8668 45.3082C41.3575 45.7758 40.6913 46.0353 40 46.0353C39.3086 46.0353 38.6424 45.7758 38.1332 45.3082C37.624 44.8406 37.3088 44.1989 37.25 43.51L35.5 25.975Z" fill="#F49300"/>
</svg>
