<svg width="332" height="235" viewBox="0 0 332 235" fill="none" xmlns="http://www.w3.org/2000/svg">
<g clip-path="url(#clip0_2827_26325)">
<path d="M332 204.889H0V205.056H332V204.889Z" fill="#EBEBEB"/>
<path d="M298.734 215.617H276.742V215.784H298.734V215.617Z" fill="#EBEBEB"/>
<path d="M181.418 213.53H172.859V213.697H181.418V213.53Z" fill="#EBEBEB"/>
<path d="M232.181 214.237H214.16V214.404H232.181V214.237Z" fill="#EBEBEB"/>
<path d="M276.078 209.43H238.821V209.596H276.078V209.43Z" fill="#EBEBEB"/>
<path d="M52.4494 217.144H34.8334V217.311H52.4494V217.144Z" fill="#EBEBEB"/>
<path d="M73.6309 217.144H58.3589V217.311H73.6309V217.144Z" fill="#EBEBEB"/>
<path d="M127.362 213.444H86.984V213.61H127.362V213.444Z" fill="#EBEBEB"/>
<path d="M175.894 147.541C174.566 143.707 164.074 148.921 159.818 155.275C156.983 159.509 155.256 164.023 154.446 170.091C154.546 163.17 154.652 155.729 154.758 148.708C155.622 146.961 157.587 142.927 159.001 139.726C163.716 129.058 174.937 125.058 178.802 118.35C183.882 109.522 183.855 96.287 179.532 91.5063C175.774 87.359 163.337 115.43 161.936 118.563C158.118 126.967 155.715 135.948 154.825 145.141C154.924 138.546 155.024 132.472 155.104 127.805C155.369 112.569 155.695 107.675 155.847 106.162C156.365 105.428 156.983 104.568 157.335 104.108C160.343 100.221 167.023 95.5869 170.362 89.9327C175.236 81.6716 174.446 71.7902 171.026 68.1096C167.454 64.2624 161.139 73.357 157.78 82.365C154.42 91.3729 155.861 100.001 154.924 107.489C154.725 108.955 154.519 114.53 154.334 122.264C153.318 113.943 151.286 108.369 147.534 103.175C142.886 96.787 138.902 89.0059 135.117 90.0127C131.333 91.0196 133.358 101.308 136.372 108.535C139.028 114.976 152.308 121.397 154.234 126.538C154.002 137.019 153.796 150.301 153.65 162.663C152.607 156.275 153.324 155.742 149.055 145.994C146.512 140.18 136.093 133.012 134.852 137.006C133.61 141 135.516 148.554 139.433 153.842C142.601 158.102 149.639 158.096 151.272 160.743C151.651 161.363 152.906 163.73 153.623 165.09C153.457 180.186 153.377 193.514 153.464 198.055L154.128 198.101C154.128 196.928 154.174 189.247 154.307 179.085C156.02 173.678 167.527 170.524 171.08 164.897C174.818 159.009 177.494 152.142 175.894 147.541Z" fill="#E6E6E6"/>
<path d="M165.077 204.889H142.992C142.407 204.89 141.84 204.687 141.387 204.315C140.935 203.943 140.624 203.425 140.509 202.849L138.935 195.088H169.134L167.567 202.849C167.45 203.425 167.139 203.943 166.685 204.315C166.231 204.687 165.663 204.89 165.077 204.889Z" fill="#F0F0F0"/>
<path d="M169.765 198.095H138.305C137.939 198.095 137.586 197.958 137.315 197.712C137.044 197.466 136.873 197.127 136.837 196.761L136.173 191.02C136.15 190.813 136.17 190.602 136.233 190.403C136.296 190.204 136.401 190.021 136.539 189.864C136.678 189.708 136.847 189.583 137.037 189.498C137.227 189.412 137.432 189.367 137.641 189.367H170.389C170.597 189.367 170.803 189.412 170.993 189.498C171.182 189.583 171.352 189.708 171.491 189.864C171.629 190.021 171.733 190.204 171.796 190.403C171.859 190.602 171.88 190.813 171.856 191.02L171.192 196.761C171.154 197.119 170.989 197.451 170.727 197.696C170.464 197.941 170.123 198.082 169.765 198.095Z" fill="#F0F0F0"/>
<path d="M266.105 202.109H287.253V111.489H266.105V202.109Z" fill="#F0F0F0"/>
<path d="M176.252 204.889H285.825V202.109H176.252V204.889Z" fill="#F0F0F0"/>
<path d="M266.105 111.489H174.838V202.109H266.105V111.489Z" fill="#F5F5F5"/>
<path d="M257.791 147.208H183.151V166.397H257.791V147.208Z" fill="#F0F0F0"/>
<path d="M257.791 171.904H183.151V191.094H257.791V171.904Z" fill="#F0F0F0"/>
<path d="M212.095 150.515H228.848C229.988 150.515 230.913 149.588 230.913 148.444C230.913 147.301 229.988 146.374 228.848 146.374H212.095C210.954 146.374 210.03 147.301 210.03 148.444C210.03 149.588 210.954 150.515 212.095 150.515Z" fill="#F5F5F5"/>
<path d="M257.791 122.511H183.151V141.7H257.791V122.511Z" fill="#F0F0F0"/>
<path d="M212.095 125.805H228.854C229.125 125.805 229.392 125.751 229.642 125.647C229.892 125.543 230.119 125.391 230.31 125.199C230.501 125.007 230.653 124.779 230.756 124.529C230.859 124.278 230.913 124.009 230.913 123.738C230.913 123.189 230.696 122.662 230.31 122.274C229.924 121.885 229.401 121.666 228.854 121.664H212.095C211.548 121.666 211.024 121.885 210.637 122.273C210.25 122.662 210.032 123.188 210.03 123.738C210.032 124.286 210.25 124.812 210.637 125.2C211.024 125.587 211.548 125.805 212.095 125.805Z" fill="#F5F5F5"/>
<path d="M212.095 175.212H228.854C229.125 175.212 229.392 175.158 229.642 175.054C229.892 174.95 230.119 174.798 230.31 174.606C230.501 174.414 230.653 174.186 230.756 173.936C230.859 173.685 230.913 173.416 230.913 173.145C230.913 172.596 230.696 172.069 230.31 171.681C229.924 171.292 229.401 171.073 228.854 171.071H212.095C211.548 171.073 211.024 171.292 210.637 171.68C210.25 172.069 210.032 172.595 210.03 173.145C210.032 173.693 210.25 174.219 210.637 174.606C211.024 174.994 211.548 175.212 212.095 175.212Z" fill="#F5F5F5"/>
<path d="M172.965 111.489L266.111 111.489V108.902L172.965 108.902V111.489Z" fill="#F0F0F0"/>
<path d="M289.265 108.902H266.105V111.489H289.265V108.902Z" fill="#E6E6E6"/>
<path d="M97.8869 204.889H118.783L118.783 69.1832H97.8869L97.8869 204.889Z" fill="#E0E0E0"/>
<path d="M44.6274 204.889H114.593L121.944 37.8521H51.9779L44.6274 204.889Z" fill="#E6E6E6"/>
<path d="M34.4218 204.889H111.818L119.161 37.8521H41.7722L34.4218 204.889Z" fill="#F0F0F0"/>
<path d="M104.241 196.701L110.43 46.0465H49.3485L43.1534 196.701H104.241Z" fill="white"/>
<path d="M77.9935 196.701L98.7567 46.0465H92.2429L71.4796 196.701H77.9935Z" fill="#FAFAFA"/>
<path d="M68.7174 196.701L89.4806 46.0465H78.3719L57.6086 196.701H68.7174Z" fill="#FAFAFA"/>
<path d="M194.857 83.3518L279.537 83.3518V3.80719L194.857 3.80719V83.3518Z" fill="#E6E6E6"/>
<path d="M192.228 83.3518L278.309 83.3518V3.80719L192.228 3.80719V83.3518Z" fill="#F5F5F5"/>
<path d="M194.857 86.6056L279.537 86.6056V83.3518L194.857 83.3518V86.6056Z" fill="#E6E6E6"/>
<path d="M189.871 86.6056L270.202 86.6056V83.3518L189.871 83.3518V86.6056Z" fill="#F5F5F5"/>
<path d="M274.637 78.4178V8.73456L195.913 8.73456V78.4178H274.637Z" fill="#FAFAFA"/>
<path d="M196.438 78.4178V8.73456H195.913V78.4178H196.438Z" fill="#E6E6E6"/>
<path d="M261.576 78.4178L247.964 8.73456H230.122L243.734 78.4178H261.576Z" fill="white"/>
<path d="M240.846 78.4178L227.234 8.73456H219.18L232.792 78.4178H240.846Z" fill="white"/>
<path d="M272.001 74.6373V1.06681C272.001 0.842182 271.82 0.660095 271.596 0.660095H271.563C271.339 0.660095 271.158 0.842182 271.158 1.06681V74.6373C271.158 74.8619 271.339 75.044 271.563 75.044H271.596C271.82 75.044 272.001 74.8619 272.001 74.6373Z" fill="#EBEBEB"/>
<path opacity="0.5" d="M190.302 12.8351L280.972 12.8351V0.660083L190.302 0.660083V12.8351Z" fill="#E6E6E6"/>
<path d="M190.302 2.17365L280.972 2.17365V0.660097L190.302 0.660097V2.17365Z" fill="#E0E0E0"/>
<path d="M190.448 1.32684L280.819 1.32684C281.138 1.32684 281.397 1.06713 281.397 0.746762V0.580071C281.397 0.259701 281.138 -1.26362e-05 280.819 -1.26362e-05L190.448 -1.26362e-05C190.129 -1.26362e-05 189.871 0.259701 189.871 0.580071V0.746762C189.871 1.06713 190.129 1.32684 190.448 1.32684Z" fill="#EBEBEB"/>
<path d="M190.19 13.1552H281.084C281.168 13.1552 281.248 13.1224 281.308 13.0638C281.367 13.0053 281.401 12.9256 281.403 12.8418C281.403 12.7998 281.395 12.7582 281.379 12.7194C281.363 12.6805 281.339 12.6452 281.31 12.6155C281.28 12.5858 281.245 12.5622 281.206 12.5462C281.168 12.5301 281.126 12.5218 281.084 12.5218H190.19C190.148 12.5218 190.107 12.5301 190.069 12.5463C190.03 12.5624 189.996 12.5861 189.966 12.6159C189.937 12.6457 189.915 12.6811 189.899 12.7199C189.884 12.7587 189.877 12.8001 189.877 12.8418C189.877 12.925 189.91 13.0047 189.969 13.0634C190.027 13.1222 190.107 13.1552 190.19 13.1552Z" fill="white"/>
<path d="M166 235C237.103 235 294.743 231.621 294.743 227.452C294.743 223.284 237.103 219.905 166 219.905C94.8972 219.905 37.257 223.284 37.257 227.452C37.257 231.621 94.8972 235 166 235Z" fill="#F5F5F5"/>
<path d="M43.06 131.345L42.3873 131.424L43.5828 141.689L44.2554 141.61L43.06 131.345Z" fill="#407BFF"/>
<path d="M44.6946 145.422L44.0219 145.501L44.625 150.679L45.2977 150.6L44.6946 145.422Z" fill="#407BFF"/>
<path d="M89.3677 110.402L88.5709 108.155C88.0218 106.612 86.9678 105.3 85.5809 104.436C84.1941 103.571 82.5563 103.204 80.9349 103.395L49.2024 107.135C47.3092 107.359 45.5811 108.327 44.3956 109.826C43.21 111.325 42.6632 113.234 42.8745 115.136L51.9049 192.681C51.9799 193.329 52.1814 193.957 52.4981 194.527C52.8147 195.097 53.2402 195.599 53.7502 196.004C54.2602 196.409 54.8447 196.709 55.4703 196.887C56.096 197.065 56.7504 197.117 57.3961 197.041L170.94 183.706C172.244 183.552 173.433 182.885 174.248 181.851C175.062 180.817 175.434 179.501 175.283 178.192L167.467 111.182C167.314 109.873 166.65 108.679 165.62 107.861C164.591 107.043 163.28 106.67 161.976 106.822L96.0476 114.57C94.6291 114.735 93.1967 114.413 91.9838 113.656C90.7708 112.899 89.8487 111.752 89.3677 110.402Z" fill="#407BFF"/>
<path d="M92.5401 76.6836L56.6658 83.8622L66.5151 133.494L102.389 126.315L92.5401 76.6836Z" fill="#407BFF"/>
<path opacity="0.7" d="M92.5401 76.6836L56.6658 83.8622L66.5151 133.494L102.389 126.315L92.5401 76.6836Z" fill="white"/>
<g opacity="0.4">
<path d="M87.7476 88.6192L65.6696 93.0465C65.1558 93.1449 64.6241 93.0365 64.1892 92.7445C63.7544 92.4526 63.4514 92.0007 63.3456 91.4863C63.2457 90.9694 63.3527 90.4338 63.6436 89.9956C63.9345 89.5575 64.3857 89.2522 64.8994 89.146L86.9973 84.7254C87.5111 84.627 88.0428 84.7354 88.4776 85.0274C88.9124 85.3193 89.2155 85.7712 89.3213 86.2856C89.4187 86.8044 89.308 87.3408 89.0132 87.778C88.7184 88.2151 88.2635 88.5175 87.7476 88.6192Z" fill="#407BFF"/>
<path d="M89.3745 96.8271L67.2765 101.248C66.7627 101.346 66.231 101.238 65.7962 100.946C65.3614 100.654 65.0583 100.202 64.9525 99.6875C64.8545 99.1715 64.9626 98.6376 65.2533 98.201C65.544 97.7644 65.9941 97.4601 66.5063 97.3538L88.6042 92.9332C89.1102 92.8417 89.6319 92.9501 90.0601 93.236C90.4883 93.5218 90.7898 93.9628 90.9016 94.4667C91.0081 94.9828 90.9074 95.5203 90.6214 95.9623C90.3355 96.4043 89.8873 96.715 89.3745 96.8271Z" fill="#407BFF"/>
<path d="M91.0078 105.035L68.9099 109.456C68.3951 109.556 67.8617 109.448 67.4254 109.156C66.989 108.864 66.685 108.411 66.5793 107.895C66.4813 107.379 66.5893 106.845 66.88 106.409C67.1707 105.972 67.6208 105.668 68.1331 105.562L90.2376 101.134C90.7524 101.034 91.2858 101.142 91.7221 101.434C92.1584 101.726 92.4625 102.179 92.5683 102.695C92.668 103.212 92.56 103.749 92.2677 104.187C91.9755 104.626 91.5227 104.93 91.0078 105.035Z" fill="#407BFF"/>
<path d="M92.6346 113.243L70.5367 117.663C70.0229 117.762 69.4912 117.653 69.0564 117.361C68.6216 117.069 68.3185 116.618 68.2127 116.103C68.1128 115.586 68.2199 115.051 68.5108 114.612C68.8016 114.174 69.2528 113.869 69.7665 113.763L91.8644 109.342C92.3782 109.244 92.9099 109.352 93.3447 109.644C93.7796 109.936 94.0826 110.388 94.1884 110.902C94.2883 111.419 94.1812 111.955 93.8903 112.393C93.5994 112.831 93.1482 113.137 92.6346 113.243Z" fill="#407BFF"/>
<path d="M88.2456 122.657L72.1834 125.871C71.6696 125.97 71.1379 125.861 70.7031 125.569C70.2683 125.277 69.9653 124.825 69.8594 124.311C69.7595 123.794 69.8666 123.258 70.1575 122.82C70.4484 122.382 70.8996 122.077 71.4132 121.971L87.4687 118.757C87.9835 118.657 88.5169 118.764 88.9532 119.056C89.3896 119.348 89.6936 119.801 89.7994 120.317C89.8993 120.834 89.7922 121.37 89.5013 121.808C89.2104 122.246 88.7592 122.551 88.2456 122.657Z" fill="#407BFF"/>
</g>
<path d="M143.654 67.1347L107.412 72.1134L114.243 122.254L150.485 117.275L143.654 67.1347Z" fill="#407BFF"/>
<path opacity="0.7" d="M143.654 67.1347L107.412 72.1134L114.243 122.254L150.485 117.275L143.654 67.1347Z" fill="white"/>
<g opacity="0.4">
<path d="M138.152 78.7378L115.828 81.7983C115.308 81.8668 114.782 81.7267 114.365 81.4084C113.947 81.0901 113.671 80.6192 113.597 80.098C113.531 79.5771 113.671 79.0508 113.988 78.6329C114.305 78.215 114.773 77.9389 115.29 77.8644L137.614 74.7906C138.134 74.7221 138.66 74.8622 139.077 75.1805C139.495 75.4988 139.771 75.9696 139.845 76.4909C139.915 77.0139 139.776 77.5437 139.459 77.9645C139.142 78.3854 138.672 78.6634 138.152 78.7378Z" fill="#407BFF"/>
<path d="M139.281 87.0257L116.957 90.0928C116.438 90.1614 115.913 90.0222 115.496 89.7052C115.078 89.3883 114.802 88.9192 114.726 88.3992C114.658 87.8771 114.797 87.3492 115.114 86.9298C115.431 86.5104 115.9 86.2334 116.419 86.1589L138.743 83.0918C139.263 83.0233 139.788 83.1634 140.206 83.4817C140.624 83.8 140.9 84.2708 140.974 84.792C141.04 85.313 140.9 85.8392 140.583 86.2572C140.266 86.6751 139.798 86.9511 139.281 87.0257Z" fill="#407BFF"/>
<path d="M124.241 97.5405L118.086 98.3873C117.567 98.4539 117.043 98.3129 116.627 97.9948C116.21 97.6767 115.936 97.207 115.861 96.6871C115.793 96.166 115.932 95.6389 116.247 95.2197C116.563 94.8005 117.03 94.5228 117.548 94.4467L123.703 93.6C124.222 93.5334 124.746 93.6743 125.162 93.9925C125.578 94.3106 125.853 94.7803 125.928 95.3002C125.996 95.8212 125.857 96.3483 125.542 96.7675C125.226 97.1868 124.759 97.4644 124.241 97.5405Z" fill="#407BFF"/>
<path d="M136.166 95.9003L130.018 96.7471C129.498 96.8156 128.972 96.6755 128.554 96.3572C128.137 96.0389 127.861 95.568 127.787 95.0468C127.719 94.5248 127.858 93.9968 128.175 93.5774C128.492 93.158 128.961 92.881 129.48 92.8065L135.629 91.9664C136.147 91.8978 136.672 92.037 137.09 92.3539C137.507 92.6708 137.784 93.14 137.86 93.66C137.928 94.182 137.788 94.71 137.471 95.1294C137.154 95.5488 136.685 95.8258 136.166 95.9003Z" fill="#407BFF"/>
<path d="M141.545 103.608L119.215 106.675C118.696 106.742 118.172 106.601 117.755 106.283C117.339 105.964 117.064 105.495 116.99 104.975C116.924 104.454 117.064 103.928 117.381 103.51C117.698 103.092 118.166 102.816 118.683 102.741L141.007 99.6675C141.526 99.6009 142.05 99.7418 142.466 100.06C142.882 100.378 143.157 100.848 143.231 101.368C143.3 101.889 143.161 102.416 142.846 102.835C142.53 103.254 142.063 103.532 141.545 103.608Z" fill="#407BFF"/>
<path d="M136.571 112.736L120.35 114.963C119.832 115.03 119.309 114.89 118.893 114.573C118.477 114.256 118.201 113.788 118.126 113.269C118.057 112.747 118.197 112.219 118.514 111.8C118.831 111.381 119.3 111.104 119.819 111.029L136.054 108.802C136.572 108.733 137.097 108.873 137.515 109.19C137.932 109.507 138.209 109.976 138.285 110.496C138.352 111.021 138.21 111.551 137.889 111.971C137.568 112.391 137.094 112.666 136.571 112.736Z" fill="#407BFF"/>
</g>
<path d="M109.459 74.4392L73.0177 77.6279L77.3926 128.044L113.834 124.855L109.459 74.4392Z" fill="#407BFF"/>
<path opacity="0.8" d="M109.459 74.4392L73.0177 77.6279L77.3926 128.044L113.834 124.855L109.459 74.4392Z" fill="white"/>
<g opacity="0.4">
<path d="M103.391 85.7989L80.9416 87.7391C80.4204 87.7799 79.9041 87.6134 79.5041 87.2753C79.1041 86.9373 78.8525 86.4549 78.8035 85.9322C78.7629 85.4088 78.9288 84.8904 79.2654 84.4887C79.602 84.0871 80.0824 83.8344 80.6029 83.7852L103.046 81.8183C103.568 81.7756 104.086 81.9414 104.488 82.2796C104.889 82.6178 105.142 83.1013 105.191 83.6252C105.239 84.153 105.076 84.6783 104.739 85.0858C104.402 85.4934 103.917 85.7498 103.391 85.7989Z" fill="#407BFF"/>
<path d="M104.115 94.1134L81.6653 96.0803C81.1441 96.1211 80.6278 95.9545 80.2278 95.6165C79.8278 95.2785 79.5762 94.7961 79.5272 94.2734C79.4848 93.7489 79.6498 93.2288 79.9867 92.8256C80.3235 92.4225 80.805 92.1689 81.3267 92.1198L103.77 90.1528C104.292 90.1102 104.81 90.2759 105.212 90.6142C105.613 90.9524 105.866 91.4358 105.915 91.9598C105.957 92.4842 105.792 93.0044 105.455 93.4075C105.118 93.8106 104.637 94.0643 104.115 94.1134Z" fill="#407BFF"/>
<path d="M104.846 102.468L82.3958 104.435C81.8745 104.476 81.3582 104.309 80.9582 103.971C80.5583 103.633 80.3066 103.151 80.2577 102.628C80.2152 102.103 80.3803 101.583 80.7171 101.18C81.0539 100.777 81.5354 100.523 82.0571 100.474L104.5 98.5073C105.023 98.4647 105.541 98.6304 105.942 98.9686C106.344 99.3069 106.596 99.7903 106.645 100.314C106.688 100.839 106.522 101.359 106.186 101.762C105.849 102.165 105.367 102.419 104.846 102.468Z" fill="#407BFF"/>
<path d="M105.563 110.782L83.1129 112.749C82.5916 112.79 82.0753 112.624 81.6753 112.286C81.2753 111.947 81.0237 111.465 80.9748 110.942C80.9323 110.418 81.0974 109.898 81.4342 109.495C81.771 109.092 82.2525 108.838 82.7742 108.789L105.217 106.828C105.74 106.786 106.258 106.952 106.659 107.29C107.061 107.628 107.313 108.111 107.362 108.635C107.403 109.159 107.237 109.677 106.9 110.079C106.564 110.481 106.083 110.733 105.563 110.782Z" fill="#407BFF"/>
<path d="M100.151 119.657L83.8366 121.084C83.3154 121.125 82.7991 120.958 82.3991 120.62C81.9991 120.282 81.7475 119.8 81.6985 119.277C81.6579 118.754 81.8238 118.235 82.1604 117.833C82.4971 117.432 82.9774 117.179 83.498 117.13L99.8058 115.696C100.328 115.654 100.846 115.82 101.248 116.158C101.649 116.496 101.902 116.979 101.951 117.503C101.993 118.028 101.828 118.548 101.491 118.951C101.154 119.354 100.673 119.608 100.151 119.657Z" fill="#407BFF"/>
</g>
<path d="M153.862 72.0085L117.325 73.7772L119.752 124.326L156.289 122.557L153.862 72.0085Z" fill="#407BFF"/>
<path opacity="0.8" d="M153.862 72.0085L117.325 73.7772L119.752 124.326L156.289 122.557L153.862 72.0085Z" fill="white"/>
<g opacity="0.4">
<path d="M147.375 83.0718L124.865 84.1653C124.342 84.1871 123.832 84.0014 123.444 83.6483C123.056 83.2952 122.823 82.8031 122.794 82.2784C122.772 81.7532 122.957 81.2406 123.308 80.8513C123.66 80.4621 124.15 80.2274 124.673 80.1981L147.182 79.1046C147.705 79.0827 148.216 79.2684 148.603 79.6215C148.991 79.9746 149.225 80.4668 149.254 80.9915C149.276 81.5166 149.091 82.0292 148.739 82.4185C148.387 82.8078 147.897 83.0425 147.375 83.0718Z" fill="#407BFF"/>
<path d="M147.773 91.4329L125.27 92.5198C124.747 92.5416 124.237 92.3559 123.849 92.0028C123.461 91.6497 123.228 91.1576 123.199 90.6328C123.177 90.1077 123.362 89.5951 123.713 89.2058C124.065 88.8165 124.555 88.5819 125.078 88.5525L147.581 87.4591C148.105 87.4373 148.616 87.6239 149.004 87.9784C149.392 88.3329 149.625 88.8267 149.652 89.3527C149.674 89.8778 149.489 90.3904 149.137 90.7797C148.786 91.1689 148.296 91.4036 147.773 91.4329Z" fill="#407BFF"/>
<path d="M131.87 100.581L125.669 100.881C125.146 100.903 124.635 100.717 124.247 100.364C123.86 100.011 123.626 99.5188 123.597 98.9941C123.575 98.4689 123.76 97.9563 124.112 97.5671C124.463 97.1778 124.953 96.9431 125.476 96.9138L131.678 96.6137C132.201 96.5919 132.711 96.7776 133.099 97.1307C133.487 97.4838 133.72 97.9759 133.749 98.5007C133.771 99.0258 133.586 99.5384 133.235 99.9277C132.883 100.317 132.393 100.552 131.87 100.581Z" fill="#407BFF"/>
<path d="M143.895 99.9942L137.694 100.294C137.171 100.316 136.66 100.13 136.273 99.7772C135.885 99.4241 135.651 98.932 135.622 98.4073C135.6 97.8822 135.785 97.3696 136.137 96.9803C136.488 96.591 136.978 96.3563 137.501 96.327L143.703 96.0269C144.226 96.0051 144.736 96.1908 145.124 96.5439C145.512 96.897 145.745 97.3891 145.775 97.9139C145.796 98.439 145.611 98.9516 145.26 99.3409C144.908 99.7302 144.418 99.9648 143.895 99.9942Z" fill="#407BFF"/>
<path d="M148.577 108.149L126.094 109.236C125.571 109.257 125.06 109.072 124.672 108.719C124.285 108.365 124.051 107.873 124.022 107.349C124 106.823 124.185 106.311 124.537 105.922C124.888 105.532 125.378 105.298 125.901 105.268L148.404 104.175C148.928 104.153 149.439 104.34 149.827 104.694C150.215 105.049 150.448 105.542 150.476 106.068C150.497 106.597 150.31 107.112 149.954 107.502C149.598 107.892 149.103 108.124 148.577 108.149Z" fill="#407BFF"/>
<path d="M142.826 116.803L126.472 117.597C125.949 117.619 125.439 117.433 125.051 117.08C124.663 116.727 124.43 116.235 124.4 115.71C124.379 115.185 124.564 114.672 124.915 114.283C125.267 113.893 125.757 113.659 126.28 113.629L142.64 112.836C143.163 112.814 143.674 113 144.062 113.353C144.449 113.706 144.683 114.198 144.712 114.723C144.734 115.249 144.548 115.763 144.195 116.152C143.842 116.542 143.35 116.776 142.826 116.803Z" fill="#407BFF"/>
</g>
<path d="M99.5336 111.836L98.9559 109.642C98.5439 108.124 97.5918 106.811 96.2799 105.951C94.968 105.09 93.3875 104.743 91.8378 104.975L60.1053 108.702C58.1705 108.927 56.3848 109.856 55.0855 111.313C53.7862 112.77 53.0634 114.654 53.0536 116.61L54.853 192.521C54.8649 193.146 55.0095 193.761 55.2772 194.325C55.545 194.889 55.9298 195.389 56.4057 195.792C56.8816 196.195 57.4378 196.491 58.0369 196.66C58.636 196.83 59.2642 196.869 59.8795 196.775L173.424 183.439C174.742 183.279 175.957 182.641 176.84 181.646C177.724 180.65 178.216 179.365 178.224 178.032L176.67 112.409C176.659 111.784 176.514 111.168 176.246 110.603C175.978 110.038 175.592 109.538 175.116 109.135C174.639 108.732 174.082 108.436 173.482 108.267C172.882 108.098 172.253 108.06 171.637 108.155L105.709 115.896C104.364 116.09 102.995 115.784 101.858 115.037C100.721 114.289 99.8947 113.151 99.5336 111.836Z" fill="#407BFF"/>
<path opacity="0.3" d="M99.5336 111.836L98.9559 109.642C98.5439 108.124 97.5918 106.811 96.2799 105.951C94.968 105.09 93.3875 104.743 91.8378 104.975L60.1053 108.702C58.1705 108.927 56.3848 109.856 55.0855 111.313C53.7862 112.77 53.0634 114.654 53.0536 116.61L54.853 192.521C54.8649 193.146 55.0095 193.761 55.2772 194.325C55.545 194.889 55.9298 195.389 56.4057 195.792C56.8816 196.195 57.4378 196.491 58.0369 196.66C58.636 196.83 59.2642 196.869 59.8795 196.775L173.424 183.439C174.742 183.279 175.957 182.641 176.84 181.646C177.724 180.65 178.216 179.365 178.224 178.032L176.67 112.409C176.659 111.784 176.514 111.168 176.246 110.603C175.978 110.038 175.592 109.538 175.116 109.135C174.639 108.732 174.082 108.436 173.482 108.267C172.882 108.098 172.253 108.06 171.637 108.155L105.709 115.896C104.364 116.09 102.995 115.784 101.858 115.037C100.721 114.289 99.8947 113.151 99.5336 111.836Z" fill="black"/>
<path d="M210.508 75.344C210.017 77.8244 209.492 80.258 208.901 82.6784C208.31 85.0987 207.732 87.5457 207.088 89.9661L206.112 93.5866L205.979 94.0533C205.92 94.2534 205.853 94.4534 205.78 94.6601C205.607 95.1125 205.385 95.5441 205.116 95.9469C204.789 96.4468 204.367 96.8772 203.875 97.2138C203.334 97.5819 202.711 97.8109 202.062 97.8805C201.072 97.9488 200.084 97.7313 199.213 97.2538C198.553 96.8931 197.935 96.4616 197.367 95.9669C196.346 95.0631 195.439 94.0376 194.665 92.9132L196.517 91.2396C197.418 91.9467 198.37 92.5842 199.366 93.1465C199.8 93.392 200.258 93.5909 200.734 93.7399C201.139 93.8733 201.497 93.8533 201.504 93.7866C201.511 93.7199 201.438 93.7866 201.404 93.7866C201.371 93.7866 201.371 93.7866 201.404 93.6733C201.438 93.5599 201.477 93.4399 201.524 93.2665L201.677 92.5331L202.454 88.8659L204.007 81.5849C204.519 79.1579 205.056 76.7242 205.588 74.3239L210.508 75.344Z" fill="#FFC3BD"/>
<path d="M208.29 67.7229C202.626 72.0769 202.852 80.2847 202.852 80.2847L212.985 82.7184C212.985 82.7184 216.092 74.4639 214.831 71.4435C213.516 68.2964 211.477 65.2759 208.29 67.7229Z" fill="#263238"/>
<path d="M197.049 91.3729L193.324 87.6324L191.332 93.4865C191.332 93.4865 194.479 95.1868 197.487 93.5799L197.049 91.3729Z" fill="#FFC3BD"/>
<path d="M188.164 87.0523L187.48 91.6796L191.312 93.4866L193.324 87.6324L188.164 87.0523Z" fill="#FFC3BD"/>
<path d="M241.112 222.532L235.415 223.092L229.485 209.47L235.182 208.91L241.112 222.532Z" fill="#FFC3BD"/>
<path d="M277.818 202.395L273.535 206.429L264.299 196.234L268.581 192.201L277.818 202.395Z" fill="#FFC3BD"/>
<path d="M271.563 204.482L274.776 198.668C274.83 198.566 274.92 198.488 275.027 198.447C275.135 198.407 275.253 198.407 275.361 198.448L280.308 200.342C280.43 200.393 280.54 200.47 280.63 200.567C280.721 200.665 280.79 200.78 280.833 200.906C280.877 201.032 280.893 201.165 280.881 201.298C280.87 201.43 280.83 201.559 280.766 201.675C279.61 203.676 278.953 204.596 277.539 207.156C276.669 208.73 274.976 212.337 273.774 214.49C272.572 216.644 270.367 215.591 270.673 214.577C272.047 210.036 271.788 207.503 271.403 205.502C271.337 205.154 271.394 204.794 271.563 204.482Z" fill="#263238"/>
<path d="M234.658 221.325H241.63C241.755 221.325 241.878 221.367 241.977 221.444C242.077 221.521 242.149 221.629 242.181 221.751L243.708 227.306C243.744 227.437 243.749 227.575 243.723 227.709C243.696 227.843 243.64 227.969 243.556 228.077C243.473 228.185 243.366 228.272 243.244 228.332C243.122 228.391 242.987 228.421 242.851 228.419C240.388 228.419 239.219 228.419 236.138 228.419H226.763C224.206 228.419 223.668 225.825 224.731 225.585C229.472 224.532 232.207 223.078 233.668 221.691C233.94 221.449 234.294 221.318 234.658 221.325Z" fill="#263238"/>
<path opacity="0.2" d="M229.492 209.476L232.546 216.491H238.489L235.189 208.916L229.492 209.476Z" fill="black"/>
<path opacity="0.2" d="M268.581 192.201L264.299 196.241L269.066 201.495L273.349 197.455L268.581 192.201Z" fill="black"/>
<path d="M209.997 66.8828C209.997 66.8828 207.44 68.0096 216.026 102.148L239.897 100.081C238.655 90.3594 238.124 84.3453 241.045 63.9224C237.643 63.5226 234.217 63.3688 230.793 63.4623C227.163 63.5172 223.542 63.8313 219.957 64.4024C216.597 65.0593 213.273 65.8872 209.997 66.8828Z" fill="#263238"/>
<path d="M230.793 63.2957C230.793 63.2957 232.121 63.2957 233.748 63.2957C234.704 64.7825 231.583 71.2968 226.444 75.5574C225.66 73.1887 224.221 71.0933 222.294 69.5165L230.793 63.2957Z" fill="white"/>
<path d="M219.957 64.3158C219.957 64.3158 219.352 64.4025 217.912 64.7359C216.949 66.2227 215.322 72.577 218.157 75.8174C218.871 73.3601 220.303 71.1744 222.267 69.5432L219.957 64.3158Z" fill="white"/>
<path d="M228.662 51.3006C228.283 54.8611 228.15 61.302 230.793 63.4623C230.793 63.4623 227.971 66.3561 222.267 69.5432C218.117 66.6628 219.957 64.4025 219.957 64.4025C223.761 63.1356 223.416 60.2485 222.5 57.5815L228.662 51.3006Z" fill="#FFC3BD"/>
<path d="M222.174 69.5632C222.174 69.5632 225.674 65.736 227.486 66.4694C229.299 67.2029 227.898 68.5164 227.732 69.7499C227.566 70.9834 228.436 74.2639 226.012 73.4104C223.589 72.557 222.174 69.5632 222.174 69.5632Z" fill="#407BFF"/>
<path d="M222.028 69.4832C222.028 69.4832 220.382 66.5494 218.595 66.9428C216.809 67.3362 217.872 68.363 218.031 69.4698C218.23 70.8833 216.743 73.6037 218.894 72.837C221.046 72.0702 222.028 69.4832 222.028 69.4832Z" fill="#407BFF"/>
<g opacity="0.2">
<path d="M221.119 68.8498C221.094 69.4442 221.21 70.0361 221.457 70.5767C221.676 70.2302 221.867 69.8668 222.028 69.4899C221.786 69.07 221.503 68.6748 221.185 68.3097C221.13 68.4841 221.108 68.6672 221.119 68.8498Z" fill="black"/>
<path d="M223.443 68.323C222.699 68.9898 222.174 69.5632 222.174 69.5632C222.369 69.9624 222.591 70.3478 222.838 70.7167C223.237 70.3108 223.473 69.7723 223.502 69.2031C223.57 68.9103 223.549 68.604 223.443 68.323Z" fill="black"/>
</g>
<path d="M222.128 70.7633C221.637 70.7633 221.331 70.2233 221.291 68.9364C221.251 67.6496 222.241 68.363 222.241 68.363C222.241 68.363 223.569 67.6962 223.33 69.2431C223.157 70.4633 222.639 70.7633 222.128 70.7633Z" fill="#407BFF"/>
<path opacity="0.2" d="M226.152 53.8676L222.506 57.5815C222.728 58.1989 222.895 58.8348 223.004 59.4817C224.472 59.1417 226.597 57.6081 226.617 56.0346C226.593 55.2901 226.435 54.556 226.152 53.8676Z" fill="black"/>
<path d="M223.038 39.2722C223.038 39.2722 219.054 44.813 218.39 47.2734C215.674 48.8603 215.129 41.0525 216.564 36.2385C221.046 39.0522 223.038 39.2722 223.038 39.2722Z" fill="#263238"/>
<path d="M231.782 45.7398C230.302 51.4273 229.791 53.8676 226.324 56.248C221.099 59.8351 214.465 56.768 214.22 50.7472C214.007 45.3331 216.457 36.9452 222.52 35.7584C223.856 35.4861 225.239 35.5625 226.537 35.9803C227.835 36.3981 229.005 37.1434 229.934 38.1449C230.864 39.1463 231.521 40.3704 231.845 41.7002C232.169 43.0299 232.147 44.4208 231.782 45.7398Z" fill="#FFC3BD"/>
<path d="M234.863 43.4728C234.863 43.4728 232.015 48.1001 231.636 50.1404C229.571 51.5473 228.695 45.3798 229.571 41.4725C230.521 37.992 234.863 43.4728 234.863 43.4728Z" fill="#263238"/>
<path d="M233.728 40.2457C232.911 40.8724 232.035 38.5588 232.858 36.7852C231.278 36.8852 229.385 35.9451 229.79 34.4182C226.696 35.465 225.541 32.2979 225.899 30.1043C226.331 27.4372 228.648 26.8705 230.003 27.5706C230.003 26.3771 233.004 23.89 234.146 25.837C236.264 25.0835 239.677 25.3169 239.611 27.9306C241.012 27.9706 245.142 29.5642 243.595 33.298C245.414 33.4047 246.404 35.7317 245.388 37.492C245.787 37.7053 246.13 38.0117 246.387 38.3856C246.644 38.7594 246.808 39.1898 246.866 39.6405C246.923 40.0912 246.872 40.5491 246.716 40.9757C246.561 41.4024 246.306 41.7854 245.972 42.0926C246.809 43.8529 244.252 46.4732 242.898 46.1599C241.855 47.7534 240.242 48.9536 239.233 47.5934C237.241 49.0669 234.956 47.1933 235.468 45.7531C233.21 45.3731 230.899 41.5925 233.728 40.2457Z" fill="#263238"/>
<path d="M237.101 34.6449C238.588 37.1386 238.469 39.979 236.829 40.9458C235.189 41.9126 232.652 40.7124 231.165 38.2188C229.678 35.7251 229.837 32.8847 231.444 31.9179C233.051 30.9511 235.614 32.1579 237.101 34.6449Z" fill="#407BFF"/>
<path d="M223.297 38.5788C223.204 39.2922 221.245 39.1055 220.68 37.8453C219.87 38.6988 217.965 39.1788 217.314 38.212C216.218 40.2923 213.994 39.7456 213.43 38.7521C212.865 37.7586 212.48 35.9117 213.622 35.545C212.958 34.9716 213.157 32.2712 214.897 32.6112C215.627 31.171 217.633 29.5375 219.093 30.811C219.884 30.1442 223.077 28.7574 224.366 31.2977C224.648 31.1039 224.97 30.9768 225.308 30.9261C225.646 30.8755 225.991 30.9025 226.317 31.0052C226.643 31.108 226.942 31.2837 227.19 31.5191C227.439 31.7546 227.631 32.0437 227.752 32.3645C229.817 31.8245 230.713 33.398 230.707 34.2515C232.174 34.6515 232.274 37.1986 231.371 37.7453C231.716 39.0322 231.53 40.4124 230.182 40.2923C229.923 42.0259 227.613 42.2926 227.068 41.3525C225.581 42.3393 222.513 40.6591 223.297 38.5788Z" fill="#263238"/>
<path d="M219.797 33.6781C221.484 31.3444 227.606 30.3443 232.911 33.8714C237.692 37.0319 237.38 44.3529 233.575 43.9595C229.771 43.5661 226.019 39.1255 226.019 39.1255L219.797 33.6781Z" fill="#263238"/>
<path d="M232.254 50.8739C231.724 51.8783 230.819 52.6311 229.737 52.9675C228.297 53.4009 227.553 52.1207 227.925 50.7405C228.263 49.5003 229.419 47.7867 230.873 47.9534C231.19 47.9958 231.492 48.1171 231.75 48.3063C232.009 48.4956 232.216 48.7467 232.353 49.037C232.491 49.3272 232.553 49.6473 232.536 49.9681C232.519 50.2889 232.422 50.6003 232.254 50.8739Z" fill="#FFC3BD"/>
<path d="M216.026 102.148C216.026 102.148 207.952 138.02 213.37 163.31C216.982 180.246 230.003 214.457 230.003 214.457L240.182 214.197C240.182 214.197 230.322 178.292 228.29 164.19C224.804 140.04 233.529 100.654 233.529 100.654L216.026 102.148Z" fill="#407BFF"/>
<path opacity="0.2" d="M225.342 109.396L230.428 117.457C228.893 127.014 227.922 136.655 227.52 146.327C220.382 133.459 223.748 116.203 225.342 109.396Z" fill="black"/>
<path d="M228.536 214.99L241.112 214.664L240.388 210.783L227.553 211.397L228.536 214.99Z" fill="#263238"/>
<path d="M221.245 101.801C221.245 101.801 225.986 139.84 236.251 160.609C244.545 177.385 266.676 201.282 266.676 201.282L272.34 195.428C272.34 195.428 257.386 169.477 251.224 158.336C236.112 130.999 248.462 110.162 239.897 100.128L221.245 101.801Z" fill="#407BFF"/>
<path d="M266.105 202.015L273.409 194.868L270.985 191.554L263.236 199.315L266.105 202.015Z" fill="#263238"/>
<path d="M240.129 98.6406L241.391 100.694C241.49 100.848 241.311 101.041 241.032 101.061L216.006 103.235C215.787 103.235 215.601 103.161 215.574 103.028L215.176 100.901C215.176 100.754 215.322 100.614 215.561 100.594L239.724 98.4673C239.801 98.4584 239.878 98.4697 239.949 98.5001C240.02 98.5305 240.082 98.5789 240.129 98.6406Z" fill="#407BFF"/>
<path opacity="0.5" d="M240.129 98.6406L241.391 100.694C241.49 100.848 241.311 101.041 241.032 101.061L216.006 103.235C215.787 103.235 215.601 103.161 215.574 103.028L215.176 100.901C215.176 100.754 215.322 100.614 215.561 100.594L239.724 98.4673C239.801 98.4584 239.878 98.4697 239.949 98.5001C240.02 98.5305 240.082 98.5789 240.129 98.6406Z" fill="white"/>
<path d="M237.121 101.634L237.785 101.581C237.918 101.581 238.011 101.494 237.991 101.414L237.446 98.654C237.446 98.5673 237.314 98.514 237.187 98.5273L236.523 98.5806C236.397 98.5806 236.304 98.6673 236.318 98.7473L236.862 101.508C236.869 101.588 236.982 101.648 237.121 101.634Z" fill="#407BFF"/>
<path d="M217.845 103.308L218.509 103.255C218.635 103.255 218.728 103.168 218.715 103.088L218.17 100.328C218.17 100.248 218.038 100.188 217.905 100.201L217.241 100.254C217.115 100.254 217.022 100.341 217.035 100.421L217.58 103.181C217.593 103.261 217.726 103.321 217.845 103.308Z" fill="#407BFF"/>
<path d="M227.48 102.468L228.144 102.408C228.27 102.408 228.363 102.321 228.35 102.241L227.805 99.4808C227.805 99.4008 227.666 99.3408 227.54 99.3541L226.876 99.4141C226.743 99.4141 226.65 99.5008 226.67 99.5808L227.208 102.341C227.234 102.428 227.354 102.468 227.48 102.468Z" fill="#407BFF"/>
<path d="M222.194 45.5465C222.101 46.0132 221.783 46.3466 221.477 46.2866C221.172 46.2266 220.999 45.7932 221.092 45.3264C221.185 44.8597 221.504 44.5263 221.809 44.5863C222.115 44.6463 222.287 45.0731 222.194 45.5465Z" fill="#263238"/>
<path d="M216.895 44.4954C216.987 44.0256 216.814 43.5959 216.508 43.5355C216.202 43.4752 215.879 43.807 215.787 44.2768C215.696 44.7465 215.869 45.1762 216.175 45.2366C216.481 45.2969 216.803 44.9651 216.895 44.4954Z" fill="#263238"/>
<path d="M216.663 43.5995L215.601 43.0527C215.601 43.0527 216.006 44.0462 216.663 43.5995Z" fill="#263238"/>
<path d="M218.735 45.6732C218.11 46.6617 217.353 47.5591 216.484 48.3402C216.686 48.5625 216.933 48.7376 217.21 48.8528C217.487 48.968 217.785 49.0207 218.084 49.007L218.735 45.6732Z" fill="#ED847E"/>
<path d="M220.242 51.2139C221.224 51.2239 222.173 50.8593 222.898 50.1938C222.909 50.1828 222.917 50.1699 222.922 50.1558C222.928 50.1417 222.931 50.1266 222.93 50.1114C222.93 50.0962 222.927 50.0813 222.921 50.0674C222.914 50.0535 222.906 50.0409 222.895 50.0304C222.884 50.0199 222.871 50.0117 222.857 50.0061C222.843 50.0006 222.828 49.9979 222.813 49.9983C222.798 49.9986 222.783 50.0019 222.769 50.0079C222.755 50.014 222.743 50.0228 222.732 50.0338C222.284 50.428 221.751 50.7112 221.174 50.8606C220.597 51.01 219.994 51.0214 219.412 50.8939C219.397 50.89 219.381 50.8893 219.365 50.892C219.35 50.8947 219.335 50.9006 219.322 50.9094C219.309 50.9182 219.297 50.9297 219.289 50.9431C219.281 50.9565 219.275 50.9715 219.273 50.9872C219.269 51.0022 219.268 51.0179 219.271 51.0331C219.274 51.0484 219.28 51.0628 219.288 51.0755C219.297 51.0882 219.309 51.0988 219.322 51.1066C219.335 51.1144 219.35 51.1191 219.366 51.1206C219.654 51.1833 219.947 51.2146 220.242 51.2139Z" fill="#263238"/>
<path d="M225.362 43.7262C225.406 43.7255 225.449 43.714 225.488 43.6928C225.539 43.6599 225.576 43.6078 225.59 43.5479C225.604 43.488 225.593 43.425 225.561 43.3728C225.346 42.9915 225.042 42.6682 224.675 42.4302C224.309 42.1922 223.891 42.0467 223.456 42.0059C223.394 42.0059 223.335 42.0305 223.292 42.0743C223.248 42.118 223.224 42.1774 223.224 42.2393C223.224 42.3012 223.248 42.3605 223.292 42.4043C223.335 42.4481 223.394 42.4727 223.456 42.4727C223.812 42.5115 224.154 42.6352 224.453 42.8335C224.753 43.0318 225 43.299 225.176 43.6128C225.196 43.6451 225.223 43.6723 225.255 43.692C225.287 43.7117 225.324 43.7234 225.362 43.7262Z" fill="#263238"/>
<path d="M215.455 41.8459C215.492 41.8552 215.531 41.8552 215.568 41.8459C215.876 41.6626 216.223 41.555 216.581 41.5318C216.939 41.5086 217.297 41.5706 217.626 41.7125C217.681 41.7406 217.744 41.7459 217.803 41.7271C217.861 41.7084 217.91 41.6672 217.938 41.6125C217.953 41.5856 217.962 41.5559 217.965 41.5252C217.968 41.4946 217.965 41.4637 217.955 41.4344C217.946 41.405 217.931 41.3779 217.911 41.3547C217.891 41.3314 217.866 41.3125 217.839 41.2992C217.442 41.1183 217.008 41.0365 216.573 41.0609C216.138 41.0853 215.716 41.2151 215.342 41.4392C215.289 41.4688 215.249 41.5182 215.232 41.5768C215.214 41.6354 215.22 41.6985 215.249 41.7526C215.273 41.7839 215.304 41.8089 215.34 41.8252C215.376 41.8415 215.415 41.8486 215.455 41.8459Z" fill="#263238"/>
<path d="M242.061 69.3765C242.506 69.8165 242.818 70.1632 243.177 70.5566C243.535 70.95 243.841 71.3367 244.153 71.7301C244.817 72.5236 245.388 73.337 245.959 74.1705C247.078 75.8518 248.07 77.6147 248.927 79.4446C249.781 81.2854 250.474 83.1973 250.999 85.1587C251.251 86.1388 251.483 87.159 251.663 88.1391C251.995 89.5544 251.835 91.0411 251.211 92.3531C250.844 93.0422 250.338 93.6464 249.724 94.1266C249.193 94.5364 248.61 94.8727 247.991 95.1268C246.925 95.5403 245.808 95.805 244.671 95.9136C242.653 96.1082 240.62 96.0814 238.608 95.8336C234.757 95.3838 230.955 94.5735 227.254 93.4132L227.865 90.9929C229.671 91.2929 231.53 91.5729 233.369 91.7663C235.209 91.9597 237.041 92.133 238.861 92.173C240.615 92.2365 242.37 92.1383 244.106 91.8797C244.855 91.7605 245.584 91.5361 246.271 91.2129C246.694 91.0549 247.042 90.7432 247.247 90.3394C247.303 90.1855 247.332 90.0232 247.333 89.8594C247.333 89.7527 247.333 89.6327 247.333 89.4993C247.333 89.366 247.287 89.246 247.227 88.9993C247.041 88.1391 246.796 87.2923 246.563 86.4589C246.018 84.7834 245.352 83.1499 244.571 81.5715C243.782 79.9867 242.874 78.4643 241.855 77.0176C241.357 76.2841 240.839 75.5707 240.288 74.8839C240.016 74.5372 239.737 74.2172 239.452 73.8771C239.166 73.5371 238.861 73.2103 238.642 72.9703L242.061 69.3765Z" fill="#FFC3BD"/>
<path d="M229.379 91.3596L224.731 88.8859L224.525 95.0735C224.525 95.0735 227.812 95.2802 229.737 93.7399L229.379 91.3596Z" fill="#FFC3BD"/>
<path d="M221.225 124.611L225.063 82.7317L216.862 76.4241L191.83 74.1105L187.48 121.491L221.225 124.611Z" fill="#407BFF"/>
<path opacity="0.8" d="M221.225 124.611L225.063 82.7317L216.862 76.4241L191.83 74.1105L187.48 121.491L221.225 124.611Z" fill="white"/>
<path d="M225.063 82.7317L216.862 76.4241L219.014 83.9719L225.063 82.7317Z" fill="#407BFF"/>
<path opacity="0.4" d="M218.941 91.4129C218.907 91.7795 218.802 92.1358 218.632 92.4616C218.461 92.7873 218.228 93.0761 217.947 93.3114C217.665 93.5467 217.339 93.724 216.989 93.833C216.639 93.9419 216.271 93.9806 215.906 93.9466L197.646 92.2597C196.91 92.1904 196.231 91.8308 195.758 91.2596C195.285 90.6885 195.057 89.9524 195.123 89.2126C195.156 88.8461 195.261 88.4898 195.432 88.164C195.603 87.8382 195.835 87.5495 196.117 87.3141C196.399 87.0788 196.724 86.9016 197.074 86.7926C197.425 86.6836 197.793 86.645 198.158 86.6789L216.418 88.3658C216.783 88.3993 217.137 88.5047 217.462 88.676C217.786 88.8473 218.074 89.0812 218.308 89.3642C218.543 89.6472 218.719 89.9738 218.828 90.3253C218.936 90.6769 218.975 91.0464 218.941 91.4129Z" fill="#407BFF"/>
<path opacity="0.4" d="M212.726 98.9807C212.657 99.7215 212.298 100.404 211.727 100.88C211.157 101.355 210.422 101.583 209.685 101.514L196.929 100.334C196.564 100.302 196.208 100.197 195.884 100.026C195.559 99.8546 195.271 99.6208 195.036 99.3376C194.802 99.0544 194.625 98.7275 194.517 98.3756C194.409 98.0236 194.371 97.6537 194.406 97.2871C194.438 96.9202 194.543 96.5634 194.713 96.2373C194.883 95.9111 195.116 95.6219 195.398 95.3865C195.68 95.151 196.006 94.9738 196.356 94.8652C196.707 94.7565 197.075 94.7185 197.44 94.7534L210.202 95.9335C210.567 95.967 210.922 96.0724 211.247 96.2437C211.571 96.415 211.859 96.6489 212.093 96.9319C212.327 97.2149 212.504 97.5415 212.612 97.893C212.721 98.2446 212.759 98.6142 212.726 98.9807Z" fill="#407BFF"/>
<path d="M221.889 89.2526L222.586 93.8733L224.512 95.0668L224.724 88.8859L221.889 89.2526Z" fill="#FFC3BD"/>
<path d="M241.045 63.9224C243.967 64.4425 248.07 72.8703 248.07 72.8703L240.693 79.5379C240.693 79.5379 234.83 73.1104 235.142 69.2831C235.408 66.0627 237.314 63.2623 241.045 63.9224Z" fill="#263238"/>
<path d="M270.434 207.623C270.509 207.633 270.585 207.633 270.66 207.623C271.364 207.383 271.822 206.083 272.034 205.329C272.04 205.307 272.04 205.284 272.032 205.263C272.025 205.242 272.012 205.223 271.994 205.209C271.977 205.194 271.954 205.186 271.931 205.186C271.908 205.186 271.886 205.194 271.868 205.209C271.656 205.316 269.783 206.323 269.723 207.063C269.718 207.143 269.733 207.224 269.768 207.296C269.803 207.369 269.856 207.431 269.923 207.476C270.072 207.58 270.252 207.632 270.434 207.623ZM271.762 205.502C271.437 206.543 271.018 207.229 270.62 207.363C270.53 207.391 270.434 207.394 270.342 207.373C270.249 207.352 270.165 207.307 270.095 207.243C270.06 207.222 270.03 207.192 270.012 207.155C269.993 207.118 269.985 207.077 269.989 207.036C269.996 206.583 271.091 205.869 271.729 205.502H271.762Z" fill="#407BFF"/>
<path d="M270.182 205.816C270.817 205.813 271.444 205.665 272.014 205.382C272.031 205.372 272.046 205.357 272.056 205.34C272.067 205.322 272.073 205.303 272.074 205.282C272.071 205.262 272.064 205.242 272.053 205.224C272.041 205.207 272.026 205.193 272.008 205.182C271.948 205.182 270.467 204.329 269.67 204.616C269.572 204.649 269.482 204.703 269.406 204.774C269.331 204.846 269.271 204.933 269.232 205.029C269.182 205.123 269.166 205.23 269.185 205.334C269.204 205.439 269.258 205.533 269.338 205.602C269.588 205.767 269.885 205.842 270.182 205.816ZM271.702 205.282C271.038 205.556 269.836 205.722 269.491 205.429C269.431 205.376 269.378 205.296 269.451 205.116C269.476 205.049 269.515 204.988 269.567 204.94C269.619 204.891 269.682 204.855 269.75 204.836C270.255 204.622 271.244 205.056 271.669 205.262L271.702 205.282Z" fill="#407BFF"/>
<path d="M231.557 222.485C232.2 222.468 232.841 222.387 233.469 222.245C233.493 222.238 233.514 222.224 233.529 222.205C233.544 222.186 233.554 222.163 233.555 222.138C233.559 222.115 233.554 222.091 233.542 222.07C233.53 222.049 233.511 222.034 233.489 222.025C233.203 221.885 230.667 220.691 230.023 221.145C229.965 221.184 229.92 221.238 229.89 221.302C229.861 221.365 229.85 221.435 229.857 221.505C229.86 221.635 229.893 221.763 229.953 221.878C230.012 221.994 230.098 222.094 230.202 222.172C230.61 222.416 231.084 222.525 231.557 222.485ZM233.064 222.085C232.314 222.225 230.919 222.412 230.348 221.978C230.273 221.92 230.211 221.847 230.166 221.763C230.122 221.679 230.095 221.586 230.089 221.491C230.083 221.462 230.087 221.432 230.099 221.404C230.11 221.377 230.13 221.354 230.156 221.338C230.514 221.065 232.015 221.591 233.064 222.058V222.085Z" fill="#407BFF"/>
<path d="M233.442 222.218C233.466 222.227 233.492 222.227 233.516 222.218C233.532 222.204 233.544 222.187 233.551 222.167C233.558 222.147 233.559 222.126 233.555 222.105C233.555 221.991 232.951 219.478 231.563 219.638C231.218 219.684 231.125 219.851 231.105 219.991C231.019 220.658 232.619 221.925 233.383 222.238L233.442 222.218ZM231.703 219.818C232.579 219.818 233.091 221.285 233.263 221.871C232.44 221.431 231.271 220.385 231.351 219.978C231.351 219.978 231.351 219.858 231.603 219.825L231.703 219.818Z" fill="#407BFF"/>
<path d="M221.935 44.6396L220.88 44.0929C220.88 44.0929 221.285 45.0864 221.935 44.6396Z" fill="#263238"/>
</g>
<defs>
<clipPath id="clip0_2827_26325">
<rect width="332" height="235" fill="white"/>
</clipPath>
</defs>
</svg>
