<svg width="16" height="16" viewBox="0 0 16 16" fill="none" xmlns="http://www.w3.org/2000/svg">
<circle cx="8" cy="8" r="5.5" fill="white" stroke="#3C76FF"/>
<path fill-rule="evenodd" clip-rule="evenodd" d="M8 5C7.9053 5 7.81447 5.0395 7.74751 5.10982C7.68054 5.18014 7.64292 5.27551 7.64292 5.37496L7.64292 9.71922L6.11034 8.10915C6.07714 8.07429 6.03773 8.04664 5.99435 8.02777C5.95097 8.0089 5.90448 7.99919 5.85753 7.99919C5.81058 7.99919 5.76409 8.0089 5.72071 8.02777C5.67733 8.04664 5.63792 8.07429 5.60472 8.10915C5.57152 8.14401 5.54518 8.1854 5.52721 8.23095C5.50925 8.2765 5.5 8.32532 5.5 8.37462C5.5 8.42392 5.50925 8.47274 5.52721 8.51829C5.54518 8.56384 5.57152 8.60523 5.60472 8.64009L7.74719 10.8898C7.78036 10.9248 7.81976 10.9525 7.86314 10.9714C7.90653 10.9903 7.95303 11 8 11C8.04697 11 8.09347 10.9903 8.13686 10.9714C8.18024 10.9525 8.21964 10.9248 8.25281 10.8898L10.3953 8.64009C10.4623 8.56969 10.5 8.47419 10.5 8.37462C10.5 8.27505 10.4623 8.17956 10.3953 8.10915C10.3282 8.03875 10.2373 7.99919 10.1425 7.99919C10.0476 7.99919 9.95671 8.03875 9.88966 8.10915L8.35708 9.71922L8.35708 5.37496C8.35708 5.27551 8.31946 5.18014 8.25249 5.10982C8.18553 5.0395 8.0947 5 8 5Z" fill="#3C76FF"/>
</svg>
