<svg width="16" height="17" viewBox="0 0 16 17" fill="none" xmlns="http://www.w3.org/2000/svg">
<path d="M13.5 8.29901C13.5 11.3419 11.0369 13.8075 8 13.8075C4.9631 13.8075 2.5 11.3419 2.5 8.29901C2.5 5.25609 4.9631 2.79053 8 2.79053C11.0369 2.79053 13.5 5.25609 13.5 8.29901Z" fill="white" stroke="#3C76FF"/>
<path fill-rule="evenodd" clip-rule="evenodd" d="M8 5.29474C7.9053 5.29474 7.81447 5.3343 7.74751 5.40472C7.68054 5.47514 7.64292 5.57064 7.64292 5.67023L7.64292 10.0206L6.11034 8.40829C6.07714 8.37338 6.03773 8.34568 5.99435 8.32679C5.95097 8.3079 5.90448 8.29817 5.85753 8.29817C5.81058 8.29817 5.76409 8.3079 5.72071 8.32679C5.67733 8.34568 5.63792 8.37338 5.60472 8.40829C5.57152 8.4432 5.54518 8.48465 5.52721 8.53026C5.50925 8.57587 5.5 8.62476 5.5 8.67413C5.5 8.72351 5.50925 8.7724 5.52721 8.81801C5.54518 8.86362 5.57152 8.90507 5.60472 8.93998L7.74719 11.1929C7.78036 11.2279 7.81976 11.2556 7.86314 11.2745C7.90653 11.2935 7.95303 11.3032 8 11.3032C8.04697 11.3032 8.09347 11.2935 8.13686 11.2745C8.18024 11.2556 8.21964 11.2279 8.25281 11.1929L10.3953 8.93998C10.4623 8.86947 10.5 8.77385 10.5 8.67413C10.5 8.57442 10.4623 8.4788 10.3953 8.40829C10.3282 8.33778 10.2373 8.29817 10.1425 8.29817C10.0476 8.29817 9.95671 8.33778 9.88966 8.40829L8.35708 10.0206L8.35708 5.67023C8.35708 5.57064 8.31946 5.47514 8.25249 5.40472C8.18553 5.3343 8.0947 5.29474 8 5.29474Z" fill="#3C76FF"/>
</svg>
