<svg width="16" height="16" viewBox="0 0 16 16" fill="none" xmlns="http://www.w3.org/2000/svg">
<circle cx="8" cy="8" r="7.25" stroke="#3C76FF" stroke-width="1.5"/>
<path fill-rule="evenodd" clip-rule="evenodd" d="M5.20718 12H11C11.5523 12 12 11.5523 12 11V5.20718L11 6.20718V11H6.20718L5.20718 12ZM7.58594 8.20703L6 9V5H5V10.793L4.19695 11.596C4.07321 11.4296 4 11.2233 4 11V5C4 4.44772 4.44772 4 5 4H6H10H11C11.2233 4 11.4296 4.07321 11.596 4.19695L10.793 5H10V5.79297L9 6.79297V5H7V7.38197L8 6.88197L8.60734 7.18563L7.58594 8.20703ZM8.80479 8.40239L10 9V7.20718L8.80479 8.40239Z" fill="#3C76FF"/>
</svg>
