<svg width="16" height="16" viewBox="0 0 16 16" fill="none" xmlns="http://www.w3.org/2000/svg">
<g id="math 1" clip-path="url(#clip0_8988_58192)">
<g id="_x31_0_math">
<g id="Group">
<path id="Vector" d="M13 15.5H3C1.6215 15.5 0.5 14.3785 0.5 13V3C0.5 1.6215 1.6215 0.5 3 0.5H13C14.3785 0.5 15.5 1.6215 15.5 3V13C15.5 14.3785 14.3785 15.5 13 15.5ZM14.5 13V8.5H8.5V14.5H13C13.827 14.5 14.5 13.827 14.5 13ZM3 14.5H7.5V8.5H1.5V13C1.5 13.827 2.173 14.5 3 14.5ZM1.5 3V7.5H7.5V1.5H3C2.173 1.5 1.5 2.173 1.5 3ZM13 1.5H8.5V7.5H14.5V3C14.5 2.173 13.827 1.5 13 1.5Z" fill="currentColor"/>
<path id="Vector_2" d="M3 11H4V10C4 9.724 4.2235 9.5 4.5 9.5C4.7765 9.5 5 9.724 5 10V11H6C6.2765 11 6.5 11.224 6.5 11.5C6.5 11.776 6.2765 12 6 12H5V13C5 13.276 4.7765 13.5 4.5 13.5C4.2235 13.5 4 13.276 4 13V12H3C2.7235 12 2.5 11.776 2.5 11.5C2.5 11.224 2.7235 11 3 11Z" fill="currentColor"/>
<path id="Vector_3" d="M10 11H13C13.2765 11 13.5 11.224 13.5 11.5C13.5 11.776 13.2765 12 13 12H10C9.7235 12 9.5 11.776 9.5 11.5C9.5 11.224 9.7235 11 10 11Z" fill="currentColor"/>
<path id="Vector_4" d="M13 4H10C9.7235 4 9.5 3.776 9.5 3.5C9.5 3.224 9.7235 3 10 3H13C13.2765 3 13.5 3.224 13.5 3.5C13.5 3.776 13.2765 4 13 4Z" fill="currentColor"/>
<path id="Vector_5" d="M13 6H10C9.7235 6 9.5 5.776 9.5 5.5C9.5 5.224 9.7235 5 10 5H13C13.2765 5 13.5 5.224 13.5 5.5C13.5 5.776 13.2765 6 13 6Z" fill="currentColor"/>
<path id="Vector_6" d="M5.20708 4.49998L5.91408 5.20698C6.10958 5.40248 6.10958 5.71848 5.91408 5.91398C5.71858 6.10948 5.40258 6.10948 5.20708 5.91398L4.50008 5.20698L3.79308 5.91398C3.59758 6.10948 3.28158 6.10948 3.08608 5.91398C2.89058 5.71848 2.89058 5.40248 3.08608 5.20698L3.79308 4.49998L3.08608 3.79248C2.89058 3.59698 2.89058 3.28098 3.08608 3.08548C3.18358 2.98798 3.31158 2.93898 3.43958 2.93898C3.56758 2.93898 3.69558 2.98798 3.79308 3.08548L4.50008 3.79248L5.20708 3.08548C5.30458 2.98798 5.43258 2.93898 5.56058 2.93898C5.68858 2.93898 5.81658 2.98798 5.91408 3.08548C6.10958 3.28098 6.10958 3.59698 5.91408 3.79248L5.20708 4.49998Z" fill="currentColor"/>
</g>
</g>
</g>
<defs>
<clipPath id="clip0_8988_58192">
<rect width="16" height="16" fill="white" transform="matrix(1 0 0 -1 0 16)"/>
</clipPath>
</defs>
</svg>
