<svg width="24" height="24" viewBox="0 0 24 24" fill="none" xmlns="http://www.w3.org/2000/svg">
<path fill-rule="evenodd" clip-rule="evenodd" d="M17 5H7V12V13H17V12V5ZM19 12H18V5C18 4.44772 17.5523 4 17 4H7C6.44772 4 6 4.44772 6 5V12H5C4.44772 12 4 12.4477 4 13V17C4 17.5523 4.44772 18 5 18V19C5 19.5501 5.44422 19.9965 5.99353 20L6 20H18C18.5523 20 19 19.5523 19 19V18C19.5523 18 20 17.5523 20 17V13C20 12.4477 19.5523 12 19 12ZM18 13H19V17H5V13H6C6 13.5523 6.44772 14 7 14H17C17.5523 14 18 13.5523 18 13ZM6 19H18V18H6V19ZM15 15.5C15 15.2239 15.2239 15 15.5 15H17.5C17.7761 15 18 15.2239 18 15.5C18 15.7761 17.7761 16 17.5 16H15.5C15.2239 16 15 15.7761 15 15.5ZM6.5 15C6.22386 15 6 15.2239 6 15.5C6 15.7761 6.22386 16 6.5 16C6.77614 16 7 15.7761 7 15.5C7 15.2239 6.77614 15 6.5 15ZM11.85 5.80247C11.9086 5.79491 11.9682 5.8042 12.0217 5.82928C12.0753 5.85435 12.1206 5.89415 12.1523 5.94403C12.184 5.99391 12.2009 6.05179 12.2009 6.11091V6.56955C12.7495 6.608 13.2769 6.80359 13.7193 7.13499C14.2151 7.50649 14.5773 8.02865 14.7515 8.62324C14.9257 9.21784 14.9026 9.85288 14.6855 10.4332C14.4685 11.0136 14.0693 11.508 13.5478 11.8424C13.0262 12.1768 12.4103 12.3333 11.7923 12.2883C11.1744 12.2433 10.5876 11.9993 10.12 11.5929C9.65232 11.1864 9.32894 10.6394 9.19827 10.0338C9.0676 9.42812 9.13667 8.79643 9.39514 8.23333L9.39855 8.22591C9.44803 8.12877 9.53331 8.05461 9.63628 8.01881C9.73925 7.98301 9.85207 7.98843 9.95114 8.03393C10.0502 8.07942 10.1278 8.16147 10.1678 8.2629C10.2077 8.36433 10.2069 8.47728 10.1655 8.57812L10.1624 8.5856C9.98004 8.98281 9.93114 9.42833 10.0233 9.85557C10.1154 10.2828 10.3435 10.6687 10.6734 10.9554C11.0032 11.2421 11.4171 11.4143 11.853 11.4461C12.2889 11.4778 12.7234 11.3675 13.0914 11.1317C13.4593 10.8958 13.7409 10.5471 13.8941 10.1377C14.0472 9.72839 14.0636 9.28044 13.9408 8.86099C13.818 8.44154 13.5626 8.07316 13.2129 7.81104C12.9168 7.58912 12.5666 7.45348 12.2009 7.41698V7.85854C12.2009 7.91765 12.184 7.97561 12.1523 8.02549C12.1206 8.07537 12.0753 8.11517 12.0217 8.14024C11.9682 8.16531 11.9086 8.17461 11.85 8.16705C11.7914 8.15949 11.7361 8.13538 11.6907 8.09754L10.6418 7.22376C10.6068 7.19456 10.5785 7.15796 10.5592 7.11667C10.5399 7.07538 10.5298 7.03035 10.5298 6.98476C10.5298 6.93917 10.5399 6.89414 10.5592 6.85285C10.5785 6.81156 10.6067 6.77502 10.6417 6.74583L11.6907 5.87198C11.7361 5.83415 11.7914 5.81003 11.85 5.80247Z" fill="#3C76FF"/>
</svg>
