<svg width="12" height="16" viewBox="0 0 12 16" fill="none" xmlns="http://www.w3.org/2000/svg">
<path d="M2.09814 0H7.45161L11.9833 4.72797V13.9186C11.9833 15.0682 11.0515 16 9.90188 16H2.09814C0.948497 16 0.0167236 15.0682 0.0167236 13.9186V2.08141C0.0167236 0.931794 0.948497 0 2.09814 0Z" fill="#0263D1"/>
<path opacity="0.302" fill-rule="evenodd" clip-rule="evenodd" d="M7.44519 0V4.68913H11.9833L7.44519 0Z" fill="white"/>
<path d="M1.94934 11.4164V8.76775H2.8876C3.07525 8.76775 3.24997 8.79579 3.41174 8.84756C3.57351 8.90148 3.72018 8.97913 3.85176 9.08268C3.98333 9.1862 4.08687 9.32426 4.16236 9.4968C4.23785 9.66934 4.27668 9.86778 4.27668 10.0921C4.27668 10.3164 4.23785 10.5149 4.16236 10.6874C4.08687 10.8599 3.98333 10.998 3.85176 11.1015C3.7202 11.205 3.57351 11.2827 3.41174 11.3366C3.24997 11.3884 3.07527 11.4164 2.8876 11.4164H1.94934ZM2.61151 10.8406H2.80779C2.91348 10.8406 3.0127 10.8276 3.10112 10.8039C3.19171 10.778 3.27367 10.737 3.35132 10.6831C3.42897 10.6292 3.48935 10.5515 3.53249 10.4501C3.5778 10.3509 3.59935 10.2301 3.59935 10.0921C3.59935 9.95406 3.57778 9.83327 3.53249 9.73189C3.48935 9.63267 3.42897 9.55502 3.35132 9.50111C3.27367 9.44503 3.19171 9.40621 3.10112 9.38031C3.0127 9.35658 2.91348 9.34364 2.80779 9.34364H2.61151V10.8406ZM5.88357 11.4466C5.48455 11.4466 5.15454 11.3172 4.89355 11.0606C4.63256 10.8039 4.50314 10.4803 4.50314 10.0921C4.50314 9.70387 4.63256 9.38034 4.89355 9.12367C5.15454 8.86699 5.48455 8.73759 5.88357 8.73759C6.27612 8.73759 6.60182 8.86701 6.86281 9.12367C7.12163 9.38036 7.25106 9.70389 7.25106 10.0921C7.25106 10.4803 7.12163 10.8039 6.86281 11.0606C6.60182 11.3172 6.27612 11.4466 5.88357 11.4466ZM5.37453 10.6507C5.5061 10.7974 5.67433 10.8708 5.87924 10.8708C6.08415 10.8708 6.25022 10.7974 6.38181 10.6507C6.51338 10.5019 6.57809 10.3164 6.57809 10.0921C6.57809 9.86778 6.51338 9.68228 6.38181 9.53345C6.25024 9.38678 6.08415 9.31344 5.87924 9.31344C5.67433 9.31344 5.5061 9.38678 5.37453 9.53345C5.24296 9.68228 5.17609 9.86778 5.17609 10.0921C5.17609 10.3164 5.24296 10.5019 5.37453 10.6507ZM8.82559 11.4466C8.43951 11.4466 8.11812 11.3259 7.86362 11.0886C7.60694 10.8492 7.4797 10.517 7.4797 10.0921C7.4797 9.66934 7.60912 9.33717 7.86795 9.09776C8.12893 8.85834 8.446 8.73755 8.82562 8.73755C9.16856 8.73755 9.44895 8.82167 9.67113 8.99207C9.89114 9.1603 10.0184 9.38462 10.0507 9.66502L9.3821 9.80091C9.35406 9.65424 9.28719 9.53561 9.18366 9.44717C9.08013 9.35872 8.95934 9.31344 8.82129 9.31344C8.63148 9.31344 8.47402 9.38031 8.34676 9.51619C8.2195 9.65422 8.15479 9.84403 8.15479 10.0921C8.15479 10.3401 8.2195 10.5299 8.3446 10.6658C8.47186 10.8039 8.62932 10.8707 8.82127 10.8707C8.9593 10.8707 9.07795 10.8319 9.17501 10.7543C9.27207 10.6766 9.33247 10.5731 9.35835 10.4437L10.0421 10.599C9.97954 10.8664 9.84149 11.0735 9.6258 11.2223C9.41228 11.3712 9.14482 11.4466 8.82559 11.4466Z" fill="white"/>
</svg>
