<svg width="12" height="16" viewBox="0 0 12 16" fill="none" xmlns="http://www.w3.org/2000/svg">
<path fill-rule="evenodd" clip-rule="evenodd" d="M2.09983 0H7.4512L11.984 4.72896V13.9163C11.984 15.0664 11.0503 16 9.90024 16H2.09983C0.949727 16 0.0161133 15.0664 0.0161133 13.9163V2.08372C0.0161133 0.933613 0.949727 0 2.09983 0Z" fill="#D9D9D9"/>
<path opacity="0.302" fill-rule="evenodd" clip-rule="evenodd" d="M7.44446 0V4.68836H11.984L7.44446 0Z" fill="white"/>
<path fill-rule="evenodd" clip-rule="evenodd" d="M8.36387 8H3.64399C3.2906 8 3 8.27106 3 8.60074V11.3993C3 11.7289 3.29057 12 3.64399 12H8.36387C8.71727 12 9 11.7289 9 11.3993V8.60072C9 8.27106 8.71729 8 8.36387 8ZM4.93195 8.75457C5.31676 8.75457 5.62303 9.04761 5.62303 9.39925C5.62303 9.75822 5.31676 10.0513 4.93195 10.0513C4.54713 10.0513 4.233 9.75822 4.233 9.39925C4.233 9.04761 4.54713 8.75457 4.93195 8.75457ZM8.57592 11.3993C8.57592 11.5092 8.48168 11.6044 8.36387 11.6044H3.64399C3.52618 11.6044 3.43194 11.5092 3.43194 11.3993V11.2821L4.28796 10.4835L4.99477 11.1429C5.08115 11.2235 5.21466 11.2235 5.30104 11.1429L7.07592 9.48719L8.57592 10.8865V11.3993Z" fill="#979797"/>
</svg>
