<svg width="16" height="16" viewBox="0 0 16 16" fill="none" xmlns="http://www.w3.org/2000/svg">
<g clip-path="url(#clip0_7646_42163)">
<path d="M8.55331 0.621033C5.79955 0.621033 3.35323 2.13085 2.09463 4.45606C2.01511 4.60297 1.79819 4.60317 1.7257 4.45266L1.16423 3.28681C1.11669 3.18811 0.998145 3.14664 0.899448 3.19418L0.211443 3.52557C0.112744 3.57311 0.0712753 3.69166 0.118822 3.79035L1.66717 7.00436C1.71472 7.10306 1.83327 7.14452 1.93196 7.09697L5.14597 5.54853C5.24467 5.50098 5.28613 5.38243 5.23857 5.28373L4.90712 4.59586C4.85957 4.49718 4.74104 4.45573 4.64236 4.50326L3.46504 5.07031C3.29666 5.15141 3.12751 4.97943 3.22231 4.81836C4.31032 2.96971 6.31071 1.7814 8.55331 1.7814C11.9651 1.7814 14.7407 4.5571 14.7407 7.96886C14.7407 11.3806 11.9651 14.1564 8.55331 14.1564C6.61053 14.1564 4.77747 13.2386 3.61036 11.6914C3.54439 11.604 3.42087 11.5823 3.33135 11.6455L2.70714 12.0857C2.61761 12.1489 2.59604 12.2729 2.6616 12.3606C4.04663 14.2153 6.23405 15.3167 8.55331 15.3167C12.6046 15.3167 15.9007 12.0205 15.9007 7.96886C15.9007 3.91724 12.6046 0.621033 8.55331 0.621033Z" fill="currentColor"/>
<path fill-rule="evenodd" clip-rule="evenodd" d="M2.00749 4.40884C3.28318 2.05206 5.76273 0.521851 8.55339 0.521851C12.6595 0.521851 16 3.86246 16 7.96886C16 12.0752 12.6594 15.4159 8.55339 15.4159C6.20273 15.4159 3.9859 14.2997 2.58221 12.42C2.48222 12.2861 2.51633 12.099 2.65006 12.0047L3.27427 11.5644C3.40921 11.4693 3.59264 11.5031 3.68961 11.6317C4.83805 13.1541 6.64185 14.0572 8.55339 14.0572C11.9104 14.0572 14.6416 11.3258 14.6416 7.96886C14.6416 4.61187 11.9104 1.88057 8.55339 1.88057C6.34644 1.88057 4.37831 3.04984 3.30785 4.86866C3.28454 4.90827 3.29382 4.94301 3.31619 4.96603C3.33936 4.98988 3.37814 5.00211 3.42208 4.98095L4.5994 4.4139C4.74742 4.3426 4.92522 4.40479 4.99654 4.5528L5.32799 5.24068C5.39932 5.38871 5.33714 5.56655 5.1891 5.63787L1.97508 7.18631C1.82704 7.25763 1.64922 7.19544 1.5779 7.0474L0.0295512 3.83339C-0.0417688 3.68535 0.0204347 3.50752 0.168483 3.43621L0.856487 3.10482C1.00453 3.03351 1.18236 3.09573 1.25366 3.24378L1.81513 4.40962C1.85022 4.48249 1.96396 4.48926 2.00749 4.40884ZM2.09471 4.45605C3.3533 2.13084 5.79963 0.621026 8.55339 0.621026C12.6047 0.621026 15.9008 3.91723 15.9008 7.96886C15.9008 12.0205 12.6047 15.3167 8.55339 15.3167C6.23412 15.3167 4.04671 14.2153 2.66167 12.3606C2.59612 12.2728 2.61769 12.1489 2.70722 12.0857L3.33143 11.6455C3.42095 11.5823 3.54446 11.604 3.61044 11.6914C4.77755 13.2386 6.61061 14.1564 8.55339 14.1564C11.9652 14.1564 14.7408 11.3806 14.7408 7.96886C14.7408 4.5571 11.9652 1.78139 8.55339 1.78139C6.31078 1.78139 4.3104 2.96971 3.22238 4.81836C3.12759 4.97942 3.29674 5.1514 3.46512 5.0703L4.64243 4.50325C4.74112 4.45572 4.85965 4.49718 4.9072 4.59585L5.23865 5.28373C5.2862 5.38242 5.24474 5.50097 5.14605 5.54852L1.93204 7.09696C1.83334 7.14451 1.71479 7.10305 1.66725 7.00436L0.118899 3.79035C0.0713523 3.69165 0.112821 3.5731 0.21152 3.52556L0.899525 3.19417C0.998222 3.14663 1.11677 3.18811 1.16431 3.28681L1.72578 4.45265C1.79826 4.60317 2.01519 4.60297 2.09471 4.45605Z" fill="currentColor"/>
</g>
<defs>
<clipPath id="clip0_7646_42163">
<rect width="16" height="16" fill="white"/>
</clipPath>
</defs>
</svg>
