<svg width="12" height="16" viewBox="0 0 12 16" fill="none" xmlns="http://www.w3.org/2000/svg">
<path fill-rule="evenodd" clip-rule="evenodd" d="M2.09641 0H7.45115L11.9825 4.72993V13.9153C11.9825 15.0657 11.0541 16 9.90371 16H2.09641C0.951879 16 0.0175781 15.0657 0.0175781 13.9153V2.07883C0.0175579 0.934301 0.951879 0 2.09641 0Z" fill="#23A566"/>
<path opacity="0.302" fill-rule="evenodd" clip-rule="evenodd" d="M7.44531 0V4.68905H11.9825L7.44531 0Z" fill="white"/>
<path d="M4.99274 11.6496H4.2161L3.68473 10.7562L3.15333 11.6496H2.37085L3.29349 10.0963L2.48182 8.74742H3.26427L3.6847 9.44814L4.09929 8.74742H4.88177L4.07592 10.1022L4.99274 11.6496ZM5.26719 11.6496V8.74742H6.00879V11.0189H7.27011V11.6496H5.26719V11.6496ZM8.49639 11.6847C8.20441 11.6847 7.94748 11.5912 7.72559 11.4102C7.50952 11.235 7.38691 11.0131 7.36939 10.7504L8.00589 10.5635C8.02341 10.7036 8.0818 10.8263 8.18108 10.9197C8.28618 11.0131 8.40297 11.0598 8.53144 11.0598C8.63654 11.0598 8.72414 11.0365 8.79421 10.9898C8.85843 10.9431 8.89347 10.8788 8.89347 10.8029C8.89347 10.7387 8.86428 10.6861 8.81171 10.6394C8.75915 10.5985 8.68908 10.5635 8.60733 10.5343C8.52558 10.5051 8.42632 10.4759 8.32704 10.4526C8.22193 10.4234 8.11681 10.3883 8.01755 10.3416C7.91245 10.3007 7.81901 10.2482 7.73726 10.1839C7.64966 10.1255 7.58543 10.038 7.53287 9.927C7.48031 9.82189 7.45112 9.69342 7.45112 9.54744C7.45112 9.30803 7.55038 9.10948 7.75476 8.95182C7.95915 8.78831 8.20441 8.7124 8.49052 8.7124C8.77666 8.7124 9.02774 8.78247 9.23797 8.91679C9.44819 9.05692 9.58249 9.23796 9.63505 9.45985L8.96936 9.74014C8.94017 9.61751 8.88176 9.51825 8.80001 9.44234C8.71826 9.37227 8.61315 9.3314 8.49052 9.3314C8.39709 9.3314 8.32702 9.35474 8.26863 9.3898C8.21607 9.42483 8.19272 9.47739 8.19272 9.54162C8.19272 9.60002 8.22776 9.65257 8.29782 9.69344C8.36789 9.72848 8.46133 9.75767 8.56643 9.7752C8.67154 9.79272 8.78832 9.82191 8.91095 9.86279C9.03943 9.90951 9.15037 9.95623 9.26132 10.0205C9.36642 10.0789 9.45402 10.1781 9.52408 10.3066C9.59999 10.4409 9.63503 10.5986 9.63503 10.7796C9.63503 11.0482 9.52993 11.2701 9.3197 11.4336C9.10948 11.5971 8.83508 11.6847 8.49639 11.6847Z" fill="white"/>
</svg>
