<svg width="12" height="16" viewBox="0 0 12 16" fill="none" xmlns="http://www.w3.org/2000/svg">
<path fill-rule="evenodd" clip-rule="evenodd" d="M1.99089 0H7.30677L12 4.78344V13.9708C12 15.0874 11.1046 16 10.0091 16H1.99089C0.895414 16 0 15.0874 0 13.9708V2.02916C0 0.912594 0.895383 0 1.99089 0Z" fill="#00733B"/>
<path fill-rule="evenodd" clip-rule="evenodd" d="M7.30676 0L12 4.78344H7.81279C7.53374 4.78344 7.30676 4.55209 7.30676 4.26769V0Z" fill="#005C2F"/>
<path d="M2.46922 8.72732V9.83194C2.46922 10.1478 2.72138 10.4048 3.03133 10.4048C3.34124 10.4048 3.5934 10.1478 3.5934 9.83194C3.5934 9.68926 3.70687 9.5736 3.84684 9.5736C3.98683 9.5736 4.10028 9.68926 4.10028 9.83194C4.10028 10.4327 3.62075 10.9215 3.03129 10.9215C2.44184 10.9215 1.96228 10.4327 1.96228 9.83194V8.72732C1.96228 8.12654 2.44184 7.63779 3.03129 7.63779C3.62075 7.63779 4.10028 8.12657 4.10028 8.72732C4.10028 8.87001 3.9868 8.98566 3.84684 8.98566C3.70684 8.98566 3.5934 8.87001 3.5934 8.72732C3.5934 8.41145 3.34124 8.15445 3.03133 8.15445C2.72138 8.15445 2.46922 8.41145 2.46922 8.72732ZM5.46992 8.15445H5.87366C6.03668 8.15445 6.16929 8.2896 6.16929 8.45576C6.16929 8.59844 6.28277 8.71407 6.42273 8.71407C6.56273 8.71407 6.67617 8.59841 6.67617 8.45576C6.67617 8.00473 6.31616 7.63779 5.87363 7.63779H5.46989C4.95565 7.63779 4.53725 8.06382 4.53725 8.58741C4.53725 9.05088 4.77089 9.27694 4.96687 9.38501C5.21556 9.5221 5.52922 9.53794 5.74351 9.53794C5.97824 9.53794 6.16923 9.73219 6.16923 9.97091C6.16923 10.2102 5.97824 10.4048 5.74351 10.4048H5.33977C5.17677 10.4048 5.04414 10.2697 5.04414 10.1035C5.04414 9.96082 4.93066 9.84516 4.7907 9.84516C4.6507 9.84516 4.53725 9.96082 4.53725 10.1035C4.53725 10.5545 4.89727 10.9215 5.3398 10.9215H5.74354C6.25778 10.9215 6.67617 10.495 6.67617 9.97091C6.67617 9.44726 6.25778 9.02129 5.74354 9.02129C5.09681 9.02129 5.0442 8.82476 5.0442 8.58738C5.0442 8.34869 5.23515 8.15445 5.46992 8.15445ZM9.19062 7.65094C9.0578 7.60594 8.91431 7.67929 8.87019 7.81466L8.20905 9.84357L7.54792 7.81466C7.5038 7.67929 7.3604 7.60601 7.22748 7.65094C7.09463 7.69591 7.0227 7.84213 7.06682 7.97754L7.96852 10.7446C8.00295 10.8502 8.09984 10.9215 8.20905 10.9215C8.31827 10.9215 8.41518 10.8502 8.44959 10.7446L9.35125 7.97754C9.39538 7.84213 9.32348 7.69591 9.19062 7.65094Z" fill="white"/>
</svg>
