<svg width="12" height="16" viewBox="0 0 12 16" fill="none" xmlns="http://www.w3.org/2000/svg">
<path fill-rule="evenodd" clip-rule="evenodd" d="M1.98996 0H7.30675L12 4.78409V13.971C12 15.0865 11.1046 16 10.0091 16H1.98999C0.895403 16 0 15.0865 0 13.971V2.02903C0 0.913469 0.895403 0 1.98996 0Z" fill="#E5252A"/>
<path fill-rule="evenodd" clip-rule="evenodd" d="M7.30676 0L12 4.78409H7.81278C7.53376 4.78409 7.30676 4.55184 7.30676 4.26747V0Z" fill="#B71D21"/>
<path d="M3.03142 7.63745H2.21586C2.07588 7.63745 1.9624 7.75311 1.9624 7.89576V9.2582V9.59376V10.6627C1.9624 10.8054 2.07588 10.921 2.21586 10.921C2.35583 10.921 2.46931 10.8054 2.46931 10.6627V9.85208H3.03139C3.62084 9.85208 4.1004 9.36333 4.1004 8.76261V8.72695C4.10043 8.1262 3.62087 7.63745 3.03142 7.63745ZM3.59352 8.76258C3.59352 9.07845 3.34135 9.33542 3.03142 9.33542H2.46931V9.25817V8.15404H3.03139C3.34132 8.15404 3.59349 8.41104 3.59349 8.72689V8.76258H3.59352ZM5.7589 7.63745H4.94337C4.80339 7.63745 4.68991 7.75311 4.68991 7.89576V10.6627C4.68991 10.8054 4.80339 10.921 4.94337 10.921H5.7589C6.34835 10.921 6.82791 10.4323 6.82791 9.83154V8.72695C6.82791 8.1262 6.34835 7.63745 5.7589 7.63745ZM6.321 9.83151C6.321 10.1474 6.06883 10.4044 5.7589 10.4044H5.19682V8.15404H5.7589C6.06883 8.15404 6.321 8.41104 6.321 8.72689V9.83151ZM7.97361 8.15408V8.86914H9.1485C9.28847 8.86914 9.40196 8.9848 9.40196 9.12745C9.40196 9.27011 9.28847 9.38576 9.1485 9.38576H7.97361V10.6627C7.97361 10.8054 7.86013 10.921 7.72015 10.921C7.58018 10.921 7.4667 10.8054 7.4667 10.6627V7.89576C7.4667 7.75311 7.58018 7.63745 7.72015 7.63745H9.35124C9.49121 7.63745 9.6047 7.75311 9.6047 7.89576C9.6047 8.03842 9.49121 8.15408 9.35124 8.15408H7.97361Z" fill="white"/>
</svg>
