<svg width="68" height="24" viewBox="0 0 68 24" fill="none" xmlns="http://www.w3.org/2000/svg">
<rect x="0.5" y="0.5" width="67" height="23" fill="white" stroke="#002050"/>
<path d="M6.67932 10.4282C6.39113 10.4282 6.24703 10.2954 6.24703 10.03V4.39836C6.24703 4.1329 6.39113 4.00017 6.67932 4.00017H10.3744C10.6626 4.00017 10.8067 4.1329 10.8067 4.39836C10.8067 4.66383 10.6626 4.79656 10.3744 4.79656H7.11162V6.78753H9.15989C9.44808 6.78753 9.59218 6.92026 9.59218 7.18572C9.59218 7.45118 9.44808 7.58391 9.15989 7.58391H7.11162V9.63177H10.3744C10.6626 9.63177 10.8067 9.7645 10.8067 10.03C10.8067 10.2954 10.6626 10.4282 10.3744 10.4282H6.67932Z" fill="#002050"/>
<path d="M14.9603 10.4282C14.1746 10.4282 13.593 10.2559 13.2156 9.91145C12.8417 9.56382 12.6547 9.02815 12.6547 8.30445V4.39836C12.6547 4.26563 12.6907 4.16608 12.7628 4.09972C12.8348 4.03335 12.9429 4.00017 13.087 4.00017C13.2311 4.00017 13.3392 4.03335 13.4112 4.09972C13.4833 4.16608 13.5193 4.26563 13.5193 4.39836V8.30445C13.5193 8.6426 13.5622 8.90806 13.6479 9.10084C13.7371 9.29362 13.8864 9.43109 14.0957 9.51326C14.305 9.59226 14.5932 9.63177 14.9603 9.63177H16.1954C16.5625 9.63177 16.8507 9.59226 17.06 9.51326C17.2693 9.43109 17.4168 9.29362 17.5026 9.10084C17.5918 8.90806 17.6364 8.6426 17.6364 8.30445V4.39836C17.6364 4.26563 17.6724 4.16608 17.7445 4.09972C17.8165 4.03335 17.9246 4.00017 18.0687 4.00017C18.2128 4.00017 18.3209 4.03335 18.3929 4.09972C18.465 4.16608 18.501 4.26563 18.501 4.39836V8.30445C18.501 9.02815 18.314 9.56382 17.94 9.91145C17.5661 10.2559 16.9845 10.4282 16.1954 10.4282H14.9603Z" fill="#002050"/>
<path d="M25.3315 10.4471C25.2183 10.5135 25.1103 10.534 25.0073 10.5087C24.9044 10.4835 24.8169 10.4187 24.7449 10.3144L23.1495 7.86834H21.7085V10.03C21.7085 10.2954 21.5644 10.4282 21.2762 10.4282C20.988 10.4282 20.8439 10.2954 20.8439 10.03V4.39836C20.8439 4.1329 20.988 4.00017 21.2762 4.00017H23.6847C24.3126 4.00017 24.7929 4.15502 25.1257 4.46473C25.4619 4.77128 25.63 5.21371 25.63 5.79204V6.07647C25.63 6.57895 25.5031 6.9803 25.2492 7.28053C24.9953 7.57759 24.6282 7.76247 24.1479 7.83515L25.4962 9.90671C25.6266 10.1279 25.5717 10.3081 25.3315 10.4471ZM21.7085 7.07195H23.6847C24.0758 7.07195 24.3537 6.9961 24.5184 6.84441C24.6831 6.69272 24.7654 6.43674 24.7654 6.07647V5.79204C24.7654 5.43493 24.6831 5.18053 24.5184 5.02884C24.3537 4.87398 24.0758 4.79656 23.6847 4.79656H21.7085V7.07195Z" fill="#002050"/>
<path d="M29.5928 10.4282C28.8071 10.4282 28.2255 10.2559 27.8481 9.91145C27.4742 9.56382 27.2872 9.02815 27.2872 8.30445V6.11439C27.2872 5.38437 27.4759 4.8487 27.8533 4.50739C28.2307 4.16292 28.8105 3.99385 29.5928 4.00017H30.8279C31.617 4.00017 32.1985 4.17241 32.5725 4.51687C32.9465 4.86134 33.1335 5.39701 33.1335 6.12387V8.30445C33.1335 9.02815 32.9465 9.56382 32.5725 9.91145C32.1985 10.2559 31.617 10.4282 30.8279 10.4282H29.5928ZM29.5928 9.63177H30.8279C31.195 9.63177 31.4832 9.59226 31.6925 9.51326C31.9018 9.43109 32.0493 9.29362 32.1351 9.10084C32.2243 8.90806 32.2689 8.6426 32.2689 8.30445V6.12387C32.2689 5.78888 32.2243 5.525 32.1351 5.33222C32.0493 5.13945 31.9018 5.00198 31.6925 4.91981C31.4832 4.83764 31.195 4.79656 30.8279 4.79656H29.5928C29.2291 4.7934 28.9426 4.83132 28.7333 4.91033C28.524 4.98933 28.3748 5.12523 28.2856 5.318C28.1964 5.51078 28.1518 5.77624 28.1518 6.11439V8.30445C28.1518 8.6426 28.1947 8.90806 28.2804 9.10084C28.3696 9.29362 28.5189 9.43109 28.7282 9.51326C28.9375 9.59226 29.2257 9.63177 29.5928 9.63177Z" fill="#002050"/>
<path d="M35.7122 10.4282C35.424 10.4282 35.2799 10.2954 35.2799 10.03V4.39836C35.2799 4.1329 35.424 4.00017 35.7122 4.00017H38.1207C38.7486 4.00017 39.2289 4.15502 39.5617 4.46473C39.898 4.77128 40.0661 5.21371 40.0661 5.79204V6.07647C40.0661 6.65479 39.898 7.09881 39.5617 7.40852C39.2289 7.71506 38.7486 7.86834 38.1207 7.86834H36.1445V10.03C36.1445 10.2954 36.0004 10.4282 35.7122 10.4282ZM36.1445 7.07195H38.1207C38.5119 7.07195 38.7898 6.9961 38.9545 6.84441C39.1191 6.69272 39.2015 6.43674 39.2015 6.07647V5.79204C39.2015 5.43493 39.1191 5.18053 38.9545 5.02884C38.7898 4.87398 38.5119 4.79656 38.1207 4.79656H36.1445V7.07195Z" fill="#002050"/>
<path d="M42.2819 10.4282C41.9937 10.4282 41.8496 10.2954 41.8496 10.03V4.39836C41.8496 4.1329 41.9937 4.00017 42.2819 4.00017H45.977C46.2652 4.00017 46.4093 4.1329 46.4093 4.39836C46.4093 4.66383 46.2652 4.79656 45.977 4.79656H42.7142V6.78753H44.7625C45.0507 6.78753 45.1948 6.92026 45.1948 7.18572C45.1948 7.45118 45.0507 7.58391 44.7625 7.58391H42.7142V9.63177H45.977C46.2652 9.63177 46.4093 9.7645 46.4093 10.03C46.4093 10.2954 46.2652 10.4282 45.977 10.4282H42.2819Z" fill="#002050"/>
<path d="M47.9794 10.3902C47.7049 10.2923 47.6226 10.1184 47.7323 9.86879L50.182 4.31304C50.285 4.10446 50.4462 4.00017 50.6658 4.00017H50.6864C50.9094 4.00965 51.0604 4.11394 51.1393 4.31304L53.6301 9.86879C53.7399 10.1184 53.661 10.2923 53.3934 10.3902C53.1223 10.4882 52.9336 10.4155 52.8273 10.1722L52.2715 8.93019H49.0653L48.5352 10.1722C48.4288 10.4187 48.2436 10.4914 47.9794 10.3902ZM49.4049 8.1338H51.9164L50.6349 5.26112L49.4049 8.1338Z" fill="#002050"/>
<path d="M55.8535 10.4282C55.5653 10.4282 55.4212 10.2954 55.4212 10.03V4.39836C55.4212 4.1329 55.5653 4.00017 55.8535 4.00017C56.001 4.00017 56.1451 4.07918 56.2858 4.23719L60.4235 9.14824H60.2074V4.39836C60.2074 4.1329 60.3515 4.00017 60.6397 4.00017C60.9279 4.00017 61.072 4.1329 61.072 4.39836V10.03C61.072 10.2954 60.9279 10.4282 60.6397 10.4282C60.4853 10.4282 60.3412 10.3491 60.2074 10.1911L56.0697 5.28008H56.2858V10.03C56.2858 10.2954 56.1417 10.4282 55.8535 10.4282Z" fill="#002050"/>
<path d="M8.30558 19.909C7.5199 19.909 6.93836 19.7367 6.56096 19.3922C6.18699 19.0446 6 18.509 6 17.7853V15.5952C6 14.8652 6.1887 14.3295 6.5661 13.9882C6.94351 13.6437 7.52333 13.4746 8.30558 13.481H9.54072C10.3298 13.481 10.9114 13.6532 11.2853 13.9977C11.6593 14.3421 11.8463 14.8778 11.8463 15.6047V17.7853C11.8463 18.509 11.6593 19.0446 11.2853 19.3922C10.9114 19.7367 10.3298 19.909 9.54072 19.909H8.30558ZM8.30558 19.1126H9.54072C9.90783 19.1126 10.196 19.0731 10.4053 18.9941C10.6146 18.9119 10.7621 18.7744 10.8479 18.5816C10.9371 18.3889 10.9817 18.1234 10.9817 17.7853V15.6047C10.9817 15.2697 10.9371 15.0058 10.8479 14.813C10.7621 14.6202 10.6146 14.4828 10.4053 14.4006C10.196 14.3184 9.90783 14.2774 9.54072 14.2774H8.30558C7.94191 14.2742 7.65542 14.3121 7.44614 14.3911C7.23685 14.4701 7.0876 14.606 6.9984 14.7988C6.9092 14.9916 6.86459 15.257 6.86459 15.5952V17.7853C6.86459 18.1234 6.90748 18.3889 6.99325 18.5816C7.08246 18.7744 7.2317 18.9119 7.44099 18.9941C7.65028 19.0731 7.93848 19.1126 8.30558 19.1126Z" fill="#002050"/>
<path d="M15.9896 19.909C15.2039 19.909 14.6223 19.7367 14.2449 19.3922C13.871 19.0446 13.684 18.509 13.684 17.7853V13.8792C13.684 13.7464 13.72 13.6469 13.792 13.5805C13.8641 13.5142 13.9722 13.481 14.1163 13.481C14.2604 13.481 14.3684 13.5142 14.4405 13.5805C14.5125 13.6469 14.5486 13.7464 14.5486 13.8792V17.7853C14.5486 18.1234 14.5914 18.3889 14.6772 18.5816C14.7664 18.7744 14.9157 18.9119 15.125 18.9941C15.3342 19.0731 15.6224 19.1126 15.9896 19.1126H17.2247C17.5918 19.1126 17.88 19.0731 18.0893 18.9941C18.2986 18.9119 18.4461 18.7744 18.5319 18.5816C18.6211 18.3889 18.6657 18.1234 18.6657 17.7853V13.8792C18.6657 13.7464 18.7017 13.6469 18.7738 13.5805C18.8458 13.5142 18.9539 13.481 19.098 13.481C19.2421 13.481 19.3501 13.5142 19.4222 13.5805C19.4942 13.6469 19.5303 13.7464 19.5303 13.8792V17.7853C19.5303 18.509 19.3433 19.0446 18.9693 19.3922C18.5953 19.7367 18.0138 19.909 17.2247 19.909H15.9896Z" fill="#002050"/>
<path d="M23.7053 19.909C23.5612 19.909 23.4531 19.8758 23.3811 19.8094C23.309 19.743 23.273 19.6435 23.273 19.5108V14.2868H21.2762C21.1321 14.2868 21.024 14.2537 20.952 14.1873C20.8799 14.1209 20.8439 14.0214 20.8439 13.8886C20.8439 13.7559 20.8799 13.6564 20.952 13.59C21.024 13.5236 21.1321 13.4904 21.2762 13.4904H26.1344C26.2785 13.4904 26.3866 13.5236 26.4586 13.59C26.5307 13.6564 26.5667 13.7559 26.5667 13.8886C26.5667 14.0214 26.5307 14.1209 26.4586 14.1873C26.3866 14.2537 26.2785 14.2868 26.1344 14.2868H24.1376V19.5108C24.1376 19.6372 24.0998 19.7351 24.0244 19.8047C23.9523 19.8742 23.846 19.909 23.7053 19.909Z" fill="#002050"/>
<path d="M28.3706 19.909C28.0824 19.909 27.9383 19.7762 27.9383 19.5108V13.8792C27.9383 13.6137 28.0824 13.481 28.3706 13.481H30.8511C31.7466 13.481 32.4053 13.6769 32.8273 14.0688C33.2528 14.4575 33.4655 15.0643 33.4655 15.8891V17.5008C33.4655 18.3257 33.2545 18.934 32.8325 19.3259C32.4139 19.7146 31.7535 19.909 30.8511 19.909H28.3706ZM28.8029 19.1126H30.8511C31.2903 19.1126 31.6368 19.0636 31.8907 18.9656C32.148 18.8645 32.3299 18.697 32.4362 18.4631C32.546 18.2261 32.6009 17.9053 32.6009 17.5008V15.8891C32.6009 15.4877 32.546 15.1701 32.4362 14.9363C32.3299 14.6993 32.148 14.5302 31.8907 14.429C31.6368 14.3279 31.2903 14.2774 30.8511 14.2774H28.8029V19.1126Z" fill="#002050"/>
<path d="M37.4149 19.909C36.6292 19.909 36.0476 19.7367 35.6702 19.3922C35.2963 19.0446 35.1093 18.509 35.1093 17.7853V15.5952C35.1093 14.8652 35.298 14.3295 35.6754 13.9882C36.0528 13.6437 36.6326 13.4746 37.4149 13.481H38.65C39.4391 13.481 40.0207 13.6532 40.3946 13.9977C40.7686 14.3421 40.9556 14.8778 40.9556 15.6047V17.7853C40.9556 18.509 40.7686 19.0446 40.3946 19.3922C40.0207 19.7367 39.4391 19.909 38.65 19.909H37.4149ZM37.4149 19.1126H38.65C39.0171 19.1126 39.3053 19.0731 39.5146 18.9941C39.7239 18.9119 39.8714 18.7744 39.9572 18.5816C40.0464 18.3889 40.091 18.1234 40.091 17.7853V15.6047C40.091 15.2697 40.0464 15.0058 39.9572 14.813C39.8714 14.6202 39.7239 14.4828 39.5146 14.4006C39.3053 14.3184 39.0171 14.2774 38.65 14.2774H37.4149C37.0512 14.2742 36.7647 14.3121 36.5554 14.3911C36.3461 14.4701 36.1969 14.606 36.1077 14.7988C36.0185 14.9916 35.9739 15.257 35.9739 15.5952V17.7853C35.9739 18.1234 36.0168 18.3889 36.1025 18.5816C36.1917 18.7744 36.341 18.9119 36.5503 18.9941C36.7596 19.0731 37.0478 19.1126 37.4149 19.1126Z" fill="#002050"/>
<path d="M44.9033 19.909C44.1176 19.909 43.5361 19.7367 43.1587 19.3922C42.7847 19.0446 42.5977 18.509 42.5977 17.7853V15.5952C42.5977 14.8652 42.7864 14.3295 43.1638 13.9882C43.5412 13.6437 44.121 13.4746 44.9033 13.481H46.1384C46.9275 13.481 47.5091 13.6532 47.883 13.9977C48.257 14.3421 48.444 14.8778 48.444 15.6047V17.7853C48.444 18.509 48.257 19.0446 47.883 19.3922C47.5091 19.7367 46.9275 19.909 46.1384 19.909H44.9033ZM44.9033 19.1126H46.1384C46.5055 19.1126 46.7937 19.0731 47.003 18.9941C47.2123 18.9119 47.3598 18.7744 47.4456 18.5816C47.5348 18.3889 47.5794 18.1234 47.5794 17.7853V15.6047C47.5794 15.2697 47.5348 15.0058 47.4456 14.813C47.3598 14.6202 47.2123 14.4828 47.003 14.4006C46.7937 14.3184 46.5055 14.2774 46.1384 14.2774H44.9033C44.5396 14.2742 44.2531 14.3121 44.0438 14.3911C43.8345 14.4701 43.6853 14.606 43.5961 14.7988C43.5069 14.9916 43.4623 15.257 43.4623 15.5952V17.7853C43.4623 18.1234 43.5052 18.3889 43.591 18.5816C43.6802 18.7744 43.8294 18.9119 44.0387 18.9941C44.248 19.0731 44.5362 19.1126 44.9033 19.1126Z" fill="#002050"/>
<path d="M54.8208 19.9279C54.7076 19.9943 54.5995 20.0148 54.4966 19.9895C54.3936 19.9643 54.3061 19.8995 54.2341 19.7952L52.6387 17.3491H51.1977V19.5108C51.1977 19.7762 51.0536 19.909 50.7654 19.909C50.4772 19.909 50.3331 19.7762 50.3331 19.5108V13.8792C50.3331 13.6137 50.4772 13.481 50.7654 13.481H53.1739C53.8018 13.481 54.2821 13.6358 54.6149 13.9455C54.9512 14.2521 55.1193 14.6945 55.1193 15.2728V15.5573C55.1193 16.0597 54.9923 16.4611 54.7384 16.7613C54.4846 17.0584 54.1174 17.2433 53.6371 17.316L54.9855 19.3875C55.1158 19.6087 55.061 19.7889 54.8208 19.9279ZM51.1977 16.5527H53.1739C53.5651 16.5527 53.843 16.4769 54.0077 16.3252C54.1723 16.1735 54.2547 15.9175 54.2547 15.5573V15.2728C54.2547 14.9157 54.1723 14.6613 54.0077 14.5096C53.843 14.3548 53.5651 14.2774 53.1739 14.2774H51.1977V16.5527Z" fill="#002050"/>
<path d="M58.5107 19.909C57.9241 19.909 57.466 19.7999 57.1367 19.5819C56.8107 19.3638 56.6066 19.0272 56.5242 18.5722C56.5105 18.4331 56.5414 18.3288 56.6169 18.2593C56.6924 18.1898 56.8021 18.155 56.9462 18.155C57.0903 18.155 57.195 18.1866 57.2602 18.2498C57.3288 18.313 57.3751 18.411 57.3991 18.5437C57.4506 18.7618 57.5604 18.9119 57.7285 18.9941C57.9 19.0731 58.1608 19.1126 58.5107 19.1126H59.9929C60.4355 19.1126 60.7357 19.0399 60.8935 18.8945C61.0548 18.746 61.1354 18.471 61.1354 18.0697C61.1354 17.662 61.0531 17.3839 60.8884 17.2354C60.7237 17.0837 60.4252 17.0078 59.9929 17.0078H58.7166C58.0682 17.0078 57.5861 16.8625 57.2705 16.5717C56.9583 16.2778 56.8021 15.8322 56.8021 15.2349C56.8021 14.6408 56.9565 14.1999 57.2653 13.9123C57.5775 13.6248 58.0579 13.481 58.7063 13.481H59.9312C60.4767 13.481 60.9038 13.5837 61.2126 13.7891C61.5248 13.9945 61.7221 14.309 61.8044 14.7324C61.825 14.8683 61.7976 14.9726 61.7221 15.0453C61.6466 15.1148 61.5334 15.1496 61.3824 15.1496C61.2452 15.1496 61.1423 15.1164 61.0737 15.05C61.005 14.9837 60.9604 14.8873 60.9398 14.7609C60.885 14.5744 60.7803 14.448 60.6259 14.3816C60.4715 14.3121 60.2399 14.2774 59.9312 14.2774H58.7063C58.2946 14.2774 58.0184 14.3453 57.8777 14.4812C57.7371 14.6139 57.6667 14.8652 57.6667 15.2349C57.6667 15.6078 57.7388 15.8638 57.8829 16.0029C58.027 16.1419 58.3049 16.2114 58.7166 16.2114H59.9929C60.6688 16.2114 61.1714 16.3631 61.5008 16.6665C61.8336 16.9699 62 17.4376 62 18.0697C62 18.6986 61.8353 19.1631 61.5059 19.4634C61.1766 19.7604 60.6722 19.909 59.9929 19.909H58.5107Z" fill="#002050"/>
</svg>
