<svg width="474" height="131" viewBox="0 0 474 131" fill="none" xmlns="http://www.w3.org/2000/svg">
<path d="M459.582 126.498C459.99 128.063 461.061 129.366 462.355 130.315C462.566 130.471 462.782 130.614 463.001 130.75C463.069 130.79 463.136 130.833 463.207 130.87C463.283 130.916 463.359 130.96 463.435 131H469.517C469.626 130.773 469.733 130.542 469.84 130.315C472.447 124.712 474.277 118.665 473.965 112.507C473.842 110.118 473.351 107.764 472.512 105.532C470.841 101.082 467.793 97.23 463.6 95.2913C463.496 95.2424 463.387 95.1935 463.28 95.1475C463.314 95.2711 463.347 95.392 463.381 95.5157C463.831 97.1732 464.149 98.8653 464.332 100.575C464.348 100.708 464.362 100.84 464.374 100.975C464.773 105.099 464.418 109.264 463.328 113.255C463.325 113.263 463.322 113.275 463.319 113.284C463.08 114.167 462.803 115.036 462.487 115.893C462.239 116.569 461.972 117.236 461.68 117.892C460.459 120.645 458.823 123.578 459.582 126.498Z" fill="#979797"/>
<path d="M463.204 95.2771C463.263 95.3577 463.322 95.4353 463.381 95.5159C464.616 97.1902 465.665 99.0001 466.508 100.912C466.553 101.007 466.595 101.102 466.632 101.2C467.787 103.87 468.529 106.707 468.831 109.611C468.834 109.631 468.836 109.651 468.836 109.671C468.907 110.35 468.949 111.034 468.966 111.719C469.028 113.002 468.892 114.288 468.564 115.527C468.264 116.54 467.738 117.468 467.028 118.237C466.958 118.315 466.888 118.392 466.812 118.467C466.755 118.528 466.694 118.588 466.635 118.646C466.067 119.201 465.445 119.716 464.911 120.311C464.666 120.578 464.445 120.867 464.25 121.174C463.939 121.689 463.738 122.265 463.661 122.865C463.583 123.465 463.631 124.075 463.8 124.655C464.182 126.11 465.057 127.338 465.951 128.509C466.398 129.096 466.859 129.688 467.259 130.315C467.405 130.54 467.54 130.767 467.664 131H468.018C467.9 130.767 467.771 130.54 467.63 130.315C466.604 128.661 465.144 127.24 464.388 125.42C463.876 124.191 463.721 122.799 464.368 121.594C464.558 121.243 464.787 120.917 465.051 120.622C465.566 120.026 466.182 119.517 466.741 118.979C466.882 118.844 467.02 118.706 467.152 118.562C467.853 117.834 468.393 116.961 468.738 116.002C469.128 114.784 469.313 113.507 469.283 112.225C469.283 111.408 469.241 110.586 469.162 109.769C469.154 109.665 469.143 109.559 469.132 109.452C468.556 104.312 466.647 99.4222 463.6 95.2915C463.544 95.211 463.485 95.1333 463.426 95.0556C463.305 94.8945 463.083 95.1189 463.204 95.2771Z" fill="white"/>
<path d="M469.018 109.796C469.992 109.628 470.876 109.112 471.512 108.34C472.149 107.567 472.496 106.588 472.492 105.578C472.491 105.537 472.475 105.498 472.447 105.468C472.419 105.439 472.38 105.422 472.34 105.421C472.3 105.42 472.261 105.436 472.231 105.463C472.201 105.491 472.184 105.53 472.181 105.571C472.187 106.512 471.863 107.424 471.269 108.142C470.675 108.86 469.85 109.337 468.942 109.488C468.745 109.521 468.822 109.829 469.018 109.796Z" fill="white"/>
<path d="M467.106 118.295C465.451 117.112 464.293 115.334 463.863 113.316C463.821 113.116 463.52 113.194 463.562 113.394C464.014 115.493 465.222 117.34 466.947 118.568C467.111 118.684 467.27 118.411 467.106 118.295Z" fill="white"/>
<path d="M466.601 100.878C466.237 101.023 465.844 101.074 465.457 101.025C465.069 100.976 464.7 100.83 464.381 100.599C464.218 100.48 464.06 100.754 464.222 100.872C464.575 101.125 464.983 101.286 465.411 101.341C465.839 101.396 466.274 101.343 466.677 101.186C466.716 101.175 466.75 101.149 466.771 101.113C466.791 101.077 466.798 101.034 466.79 100.994C466.779 100.953 466.754 100.918 466.718 100.896C466.683 100.875 466.641 100.868 466.601 100.878Z" fill="white"/>
<path d="M442.109 106.4C442.207 106.478 442.308 106.556 442.407 106.636C443.742 107.681 444.992 108.836 446.144 110.088C446.234 110.183 446.324 110.281 446.411 110.379L446.414 110.381C449.146 113.415 451.306 116.94 452.786 120.777L452.794 120.803C452.797 120.812 452.8 120.817 452.803 120.826C453.389 122.362 453.862 123.941 454.217 125.549C454.56 127.12 454.841 128.802 455.378 130.315C455.46 130.548 455.55 130.779 455.645 131H468.147C468.105 130.773 468.06 130.543 468.015 130.315C467.379 126.982 466.385 123.731 465.051 120.622C465.006 120.518 464.962 120.415 464.911 120.311C464.222 118.774 463.413 117.298 462.49 115.896L462.49 115.895L462.489 115.894L462.488 115.893L462.487 115.893C461.98 115.128 461.436 114.389 460.856 113.681C459.352 111.85 457.576 110.274 455.592 109.009C455.581 109.001 455.567 108.995 455.555 108.986C451.607 106.481 446.928 105.287 442.455 106.32H442.452C442.336 106.346 442.224 106.372 442.109 106.4Z" fill="#D9D9D9"/>
<path d="M442.123 106.553C442.218 106.579 442.314 106.607 442.407 106.636C444.377 107.212 446.28 108.01 448.078 109.015C448.168 109.064 448.258 109.116 448.348 109.167C450.834 110.587 453.091 112.39 455.038 114.515C455.04 114.516 455.041 114.518 455.041 114.521C455.063 114.544 455.089 114.569 455.108 114.592C455.558 115.087 455.991 115.602 456.402 116.131C457.205 117.118 457.852 118.228 458.32 119.419C458.677 120.412 458.803 121.477 458.688 122.529C458.68 122.635 458.666 122.739 458.651 122.845C458.64 122.929 458.629 123.012 458.615 123.098C458.429 124.252 458.109 125.408 458.199 126.585C458.253 127.187 458.432 127.771 458.724 128.298C459.015 128.825 459.412 129.283 459.889 129.642C460.213 129.898 460.559 130.124 460.924 130.315C461.444 130.59 461.987 130.819 462.546 131H463.651C463.502 130.957 463.356 130.914 463.207 130.87C462.678 130.718 462.159 130.532 461.652 130.315C461.362 130.191 461.081 130.049 460.808 129.89C459.678 129.225 458.736 128.207 458.539 126.846C458.367 125.655 458.699 124.465 458.896 123.3C458.93 123.098 458.961 122.9 458.978 122.701C459.112 121.692 459.03 120.666 458.739 119.692C458.334 118.478 457.729 117.344 456.95 116.339C456.468 115.684 455.954 115.055 455.409 114.454C455.342 114.377 455.271 114.299 455.198 114.221C453.21 112.082 450.914 110.265 448.391 108.834H448.388C446.511 107.765 444.52 106.922 442.455 106.32H442.452C442.359 106.291 442.263 106.262 442.171 106.236C441.976 106.185 441.931 106.498 442.123 106.553Z" fill="white"/>
<path d="M455.309 114.564C455.989 113.83 456.391 112.874 456.444 111.865C456.497 110.856 456.199 109.861 455.601 109.056C455.479 108.894 455.227 109.08 455.349 109.242C455.907 109.99 456.185 110.917 456.133 111.856C456.082 112.796 455.704 113.685 455.067 114.364C454.929 114.512 455.172 114.711 455.309 114.564Z" fill="white"/>
<path d="M458.785 122.527C456.768 122.601 454.797 121.895 453.266 120.549C453.114 120.416 452.919 120.663 453.071 120.797C454.667 122.194 456.719 122.925 458.819 122.843C459.019 122.835 458.984 122.519 458.785 122.527Z" fill="white"/>
<path d="M448.131 108.932C447.926 109.272 447.642 109.554 447.304 109.754C446.966 109.953 446.585 110.064 446.194 110.076C445.994 110.081 446.029 110.397 446.228 110.392C446.659 110.377 447.08 110.254 447.454 110.034C447.828 109.814 448.143 109.504 448.373 109.131C448.398 109.098 448.409 109.056 448.405 109.015C448.4 108.973 448.381 108.935 448.35 108.908C448.317 108.881 448.276 108.869 448.236 108.874C448.195 108.878 448.157 108.899 448.131 108.932Z" fill="white"/>
<path d="M14.4179 126.498C14.0101 128.063 12.9388 129.366 11.6453 130.315C11.4344 130.471 11.2178 130.614 10.9985 130.75C10.931 130.79 10.8635 130.833 10.7932 130.87C10.7173 130.916 10.6414 130.96 10.5655 131H4.48318C4.37351 130.773 4.26666 130.542 4.1598 130.315C1.55311 124.712 -0.27748 118.665 0.034648 112.507C0.158481 110.118 0.649078 107.764 1.48843 105.532C3.15874 101.082 6.20692 97.23 10.3996 95.2913C10.5036 95.2424 10.6133 95.1935 10.7201 95.1475C10.6864 95.2711 10.6526 95.392 10.6189 95.5157C10.1691 97.1732 9.85124 98.8653 9.66845 100.575C9.65158 100.708 9.63752 100.84 9.62627 100.975C9.22678 105.099 9.58151 109.264 10.6723 113.255C10.6751 113.263 10.6779 113.275 10.6808 113.284C10.9198 114.167 11.1972 115.036 11.5131 115.893C11.7605 116.569 12.0277 117.236 12.3201 117.892C13.5405 120.645 15.1771 123.578 14.4179 126.498Z" fill="#979797"/>
<path d="M10.7961 95.2771C10.737 95.3577 10.678 95.4353 10.6189 95.5159C9.38385 97.1902 8.33508 99.0001 7.49201 100.912C7.44702 101.007 7.40484 101.102 7.36828 101.2C6.21312 103.87 5.47125 106.707 5.16932 109.611C5.16606 109.631 5.16418 109.651 5.1637 109.671C5.0934 110.35 5.05122 111.034 5.03435 111.719C4.97182 113.002 5.10753 114.288 5.43646 115.527C5.73639 116.54 6.26196 117.468 6.9718 118.237C7.0421 118.315 7.1124 118.392 7.18832 118.467C7.24456 118.528 7.30642 118.588 7.36547 118.646C7.93349 119.201 8.55493 119.716 9.08921 120.311C9.33409 120.578 9.55524 120.867 9.75002 121.174C10.0609 121.689 10.2617 122.265 10.3392 122.865C10.4168 123.465 10.3693 124.075 10.1999 124.655C9.81751 126.11 8.94299 127.338 8.04878 128.509C7.60168 129.096 7.14051 129.688 6.74121 130.315C6.595 130.54 6.46002 130.767 6.33631 131H5.982C6.1001 130.767 6.22945 130.54 6.37005 130.315C7.39642 128.661 8.85583 127.24 9.61225 125.42C10.124 124.191 10.2787 122.799 9.63194 121.594C9.44239 121.243 9.21303 120.917 8.94863 120.622C8.43404 120.026 7.81822 119.517 7.25864 118.979C7.11804 118.844 6.98025 118.706 6.84809 118.562C6.1474 117.834 5.60671 116.961 5.26214 116.002C4.87192 114.784 4.68744 113.507 4.71661 112.225C4.71661 111.408 4.7588 110.586 4.83753 109.769C4.84597 109.665 4.85722 109.559 4.86846 109.452C5.44352 104.312 7.35333 99.4222 10.3996 95.2915C10.4558 95.211 10.5149 95.1333 10.5739 95.0556C10.6948 94.8945 10.917 95.1189 10.7961 95.2771Z" fill="white"/>
<path d="M4.98205 109.796C4.00807 109.628 3.12396 109.112 2.48759 108.34C1.85123 107.567 1.50407 106.588 1.50809 105.578C1.50863 105.537 1.52478 105.498 1.55314 105.468C1.58149 105.439 1.61985 105.422 1.66011 105.421C1.70038 105.42 1.73941 105.436 1.76899 105.463C1.79857 105.491 1.81639 105.53 1.81869 105.571C1.81324 106.512 2.13672 107.424 2.73073 108.142C3.32475 108.86 4.15017 109.337 5.05803 109.488C5.25528 109.521 5.17818 109.829 4.98205 109.796Z" fill="white"/>
<path d="M6.89377 118.295C8.54851 117.112 9.7065 115.334 10.1369 113.316C10.1793 113.116 10.4804 113.194 10.438 113.394C9.98635 115.493 8.77761 117.34 7.053 118.568C6.88854 118.684 6.7302 118.411 6.89377 118.295Z" fill="white"/>
<path d="M7.39906 100.878C7.76273 101.023 8.15592 101.074 8.54334 101.025C8.93075 100.976 9.30026 100.83 9.61867 100.599C9.7816 100.48 9.93976 100.754 9.77789 100.872C9.42494 101.125 9.01666 101.286 8.58874 101.341C8.16082 101.396 7.72628 101.343 7.32308 101.186C7.28386 101.175 7.2504 101.149 7.22948 101.113C7.20857 101.077 7.20178 101.034 7.21049 100.994C7.22075 100.953 7.24631 100.918 7.28162 100.896C7.31693 100.875 7.35914 100.868 7.39906 100.878Z" fill="white"/>
<path d="M31.8914 106.4C31.7929 106.478 31.6917 106.556 31.5933 106.636C30.2582 107.681 29.0084 108.836 27.8562 110.088C27.7662 110.183 27.6762 110.281 27.589 110.379L27.5862 110.381C24.8541 113.415 22.6939 116.94 21.2143 120.777L21.2059 120.803C21.2031 120.812 21.2003 120.817 21.1974 120.826C20.611 122.362 20.1382 123.941 19.783 125.549C19.44 127.12 19.1588 128.802 18.6217 130.315C18.5401 130.548 18.4502 130.779 18.3545 131H5.85254C5.89472 130.773 5.93971 130.543 5.9847 130.315C6.62067 126.982 7.61464 123.731 8.94851 120.622C8.99351 120.518 9.0385 120.415 9.08911 120.311C9.77771 118.774 10.5874 117.298 11.5102 115.896L11.5104 115.895L11.511 115.894L11.5119 115.893L11.513 115.893C12.0197 115.128 12.5641 114.389 13.144 113.681C14.6479 111.85 16.4243 110.274 18.408 109.009C18.4192 109.001 18.4333 108.995 18.4445 108.986C22.3925 106.481 27.0716 105.287 31.5455 106.32H31.5483C31.6636 106.346 31.7761 106.372 31.8914 106.4Z" fill="#D9D9D9"/>
<path d="M31.8773 106.553C31.7817 106.579 31.6861 106.607 31.5933 106.636C29.6226 107.212 27.7204 108.01 25.9216 109.015C25.8316 109.064 25.7416 109.116 25.6516 109.167C23.1657 110.587 20.9092 112.39 18.9619 114.515C18.9604 114.516 18.9594 114.518 18.9591 114.521C18.9366 114.544 18.9113 114.569 18.8916 114.592C18.4417 115.087 18.0087 115.602 17.5981 116.131C16.7951 117.118 16.148 118.228 15.6804 119.419C15.3231 120.412 15.1969 121.477 15.312 122.529C15.3204 122.635 15.3345 122.739 15.3486 122.845C15.3598 122.929 15.3711 123.012 15.3851 123.098C15.5707 124.252 15.8913 125.408 15.8013 126.585C15.7465 127.187 15.5676 127.771 15.2764 128.298C14.9851 128.825 14.588 129.283 14.1113 129.642C13.7872 129.898 13.4408 130.124 13.0765 130.315C12.5556 130.59 12.0128 130.819 11.454 131H10.3489C10.4979 130.957 10.6441 130.914 10.7932 130.87C11.322 130.718 11.8413 130.532 12.3482 130.315C12.6377 130.191 12.9195 130.049 13.1918 129.89C14.3222 129.225 15.2642 128.207 15.461 126.846C15.6326 125.655 15.3008 124.465 15.1039 123.3C15.0702 123.098 15.0392 122.9 15.0224 122.701C14.8881 121.692 14.9697 120.666 15.2614 119.692C15.666 118.478 16.2709 117.344 17.0498 116.339C17.5316 115.684 18.046 115.055 18.5908 114.454C18.6582 114.377 18.7285 114.299 18.8017 114.221C20.7899 112.082 23.0855 110.265 25.6094 108.834H25.6122C27.4889 107.765 29.4798 106.922 31.5455 106.32H31.5483C31.6411 106.291 31.7367 106.262 31.8295 106.236C32.0235 106.185 32.0685 106.498 31.8773 106.553Z" fill="white"/>
<path d="M18.6906 114.564C18.0114 113.83 17.6093 112.874 17.5559 111.865C17.5025 110.856 17.8014 109.861 18.3993 109.056C18.5208 108.894 18.773 109.08 18.6513 109.242C18.0933 109.99 17.815 110.917 17.8665 111.856C17.9181 112.796 18.2962 113.685 18.9326 114.364C19.0707 114.512 18.828 114.711 18.6906 114.564Z" fill="white"/>
<path d="M15.2148 122.527C17.2324 122.601 19.2033 121.895 20.7345 120.549C20.8861 120.416 21.0806 120.663 20.9292 120.797C19.3332 122.194 17.2808 122.925 15.1814 122.843C14.9813 122.835 15.0158 122.519 15.2148 122.527Z" fill="white"/>
<path d="M25.8688 108.932C26.0737 109.272 26.358 109.554 26.6961 109.754C27.0341 109.953 27.4153 110.064 27.8055 110.076C28.0056 110.081 27.9709 110.397 27.7721 110.392C27.3411 110.377 26.9202 110.254 26.5462 110.034C26.1723 109.814 25.8566 109.504 25.6268 109.131C25.6022 109.098 25.591 109.056 25.5954 109.015C25.5998 108.973 25.6195 108.935 25.6504 108.908C25.6826 108.881 25.7236 108.869 25.7645 108.874C25.8053 108.878 25.8428 108.899 25.8688 108.932Z" fill="white"/>
<path d="M267.703 33.0739C280.613 21.4443 299.815 15.5967 315.922 22.1178C299.399 31.288 286.654 46.0051 279.941 63.6651C277.377 70.4853 275.235 78.3378 268.928 81.9891C265.004 84.2611 260.122 84.3721 255.722 83.2754C251.321 82.1785 247.288 79.9798 243.31 77.803L242.178 77.7775C247.259 61.1641 254.793 44.7036 267.703 33.0739Z" fill="#979797"/>
<path d="M315.831 22.471C301.566 24.3139 288.244 30.6034 277.758 40.4462C275.463 42.5251 273.51 44.9526 271.971 47.6395C270.557 50.3052 269.882 53.3009 270.017 56.3154C270.087 59.1287 270.484 61.9983 269.869 64.7795C269.532 66.1985 268.9 67.5304 268.013 68.6878C267.125 69.8453 266.003 70.8022 264.72 71.4958C261.568 73.3071 257.953 73.8782 254.398 74.3138C250.451 74.7974 246.344 75.2372 242.927 77.4504C242.513 77.7185 242.121 77.0607 242.534 76.793C248.479 72.9425 256 74.3435 262.392 71.7737C265.375 70.5746 268.014 68.4696 268.948 65.2872C269.765 62.5043 269.358 59.5448 269.262 56.6969C269.087 53.7581 269.635 50.8211 270.857 48.1425C272.254 45.386 274.11 42.8873 276.345 40.7534C281.302 35.869 286.996 31.7941 293.219 28.6779C300.301 25.082 307.946 22.7238 315.824 21.7052C316.312 21.6424 316.316 22.4085 315.831 22.471Z" fill="white"/>
<path d="M280.947 37.0782C279.534 35.0953 278.872 32.6747 279.08 30.2488C279.287 27.823 280.35 25.5498 282.079 23.8352C282.43 23.4895 282.984 24.0186 282.633 24.3649C281.02 25.9585 280.029 28.0761 279.841 30.3354C279.652 32.5948 280.278 34.847 281.605 36.6858C281.893 37.0857 281.233 37.4759 280.947 37.0782Z" fill="white"/>
<path d="M269.794 54.8936C274.697 55.7619 279.746 54.7511 283.936 52.0629C284.351 51.7962 284.743 52.454 284.329 52.7203C279.963 55.5096 274.706 56.5508 269.607 55.636C269.121 55.5485 269.311 54.8066 269.794 54.8936Z" fill="white"/>
<path d="M300.363 26.0954C300.75 26.9766 301.35 27.7479 302.108 28.3401C302.867 28.9323 303.761 29.3268 304.71 29.4883C305.197 29.5696 305.006 30.3115 304.522 30.2307C303.475 30.0474 302.488 29.6105 301.648 28.9581C300.809 28.3056 300.142 27.4576 299.705 26.4879C299.657 26.4 299.643 26.2968 299.668 26.1993C299.692 26.1017 299.753 26.0173 299.838 25.963C299.925 25.9114 300.029 25.8964 300.128 25.9212C300.226 25.946 300.311 26.0086 300.363 26.0954Z" fill="white"/>
<path d="M333.658 78.2015C333.352 78.1594 333.047 78.1172 332.737 78.0798C328.628 77.5345 324.481 77.3239 320.337 77.4501C320.017 77.4547 319.692 77.4643 319.372 77.4782C309.393 77.8884 299.576 80.1473 290.422 84.14C286.78 85.7321 283.265 87.5989 279.907 89.7241C275.27 92.6595 270.475 96.211 265.291 97.4081C264.752 97.5391 264.205 97.6365 263.653 97.6998L242.234 79.1596C242.207 79.0931 242.175 79.0312 242.147 78.9644L241.258 78.2632C241.423 78.1415 241.598 78.0189 241.763 77.8972C241.859 77.8262 241.959 77.7593 242.055 77.6883C242.12 77.6423 242.186 77.5965 242.242 77.5512C242.264 77.5358 242.286 77.5206 242.303 77.5101C242.36 77.4648 242.417 77.4287 242.469 77.3883C243.441 76.7 244.42 76.0173 245.406 75.3402C245.41 75.3353 245.41 75.3353 245.419 75.3345C252.879 70.1034 260.933 65.7754 269.412 62.4413C269.667 62.3452 269.925 62.244 270.189 62.1564C274.008 60.737 277.936 59.6319 281.935 58.8522C284.126 58.4324 286.337 58.1237 288.559 57.9273C294.302 57.4309 300.088 57.8406 305.703 59.1415C316.897 61.7364 327.137 67.8814 333.202 77.4648C333.357 77.71 333.507 77.9513 333.658 78.2015Z" fill="#D9D9D9"/>
<path d="M333.374 78.4315C320.874 71.3169 306.449 68.3206 292.149 69.8681C289.064 70.1466 286.043 70.9094 283.196 72.1285C280.461 73.4056 278.118 75.3915 276.411 77.8799C274.772 80.1681 273.361 82.6983 271.195 84.5485C270.072 85.4791 268.764 86.1619 267.359 86.552C265.953 86.9422 264.481 87.0309 263.039 86.8124C259.431 86.3614 256.201 84.6413 253.1 82.8495C249.657 80.8601 246.113 78.7392 242.052 78.4499C241.56 78.4148 241.643 77.6536 242.134 77.6886C249.2 78.192 254.362 83.8379 261.013 85.633C264.116 86.4707 267.491 86.3784 270.154 84.3997C272.482 82.6693 273.939 80.0613 275.578 77.7301C277.208 75.2782 279.414 73.2626 282.003 71.8594C284.779 70.4994 287.766 69.6215 290.836 69.2633C297.735 68.3466 304.735 68.5201 311.581 69.7773C319.401 71.1689 326.926 73.8877 333.829 77.8159C334.257 78.0592 333.798 78.6732 333.374 78.4315Z" fill="white"/>
<path d="M296.724 69.0991C296.79 66.6653 297.72 64.3341 299.346 62.522C300.973 60.7099 303.191 59.5348 305.604 59.2066C306.093 59.1418 306.216 59.8977 305.727 59.9625C303.479 60.264 301.413 61.3589 299.902 63.0494C298.391 64.7399 297.534 66.9148 297.486 69.1815C297.475 69.674 296.714 69.5888 296.724 69.0991Z" fill="white"/>
<path d="M277.089 76.6106C280.48 80.2544 285.12 82.4865 290.085 82.8619C290.577 82.8987 290.494 83.6599 290.002 83.6232C284.837 83.2229 280.013 80.8902 276.492 77.0905C276.157 76.7282 276.755 76.2501 277.089 76.6106Z" fill="white"/>
<path d="M318.842 72.0155C318.62 72.9519 318.634 73.9286 318.883 74.8581C319.132 75.7876 319.608 76.6407 320.269 77.3408C320.609 77.6987 320.01 78.1764 319.672 77.8207C318.946 77.0439 318.421 76.1011 318.144 75.0748C317.866 74.0485 317.844 72.9698 318.08 71.9331C318.094 71.8335 318.146 71.743 318.224 71.6799C318.302 71.6169 318.402 71.586 318.502 71.5937C318.603 71.6051 318.695 71.6558 318.759 71.7348C318.822 71.8138 318.852 71.9146 318.842 72.0155Z" fill="white"/>
<path d="M272.325 40.098C272.502 38.9431 272.265 37.7627 271.655 36.7661C271.044 35.7695 270.101 35.0212 268.991 34.6538L200.749 11.9324C200.095 11.7136 199.402 11.6341 198.715 11.6989L181.611 13.3159L171.796 14.2466L153.685 15.9577C152.591 16.0622 151.563 16.5266 150.762 17.2781C149.961 18.0295 149.432 19.0255 149.258 20.1098L140.062 77.5336C139.888 78.6537 140.102 79.7996 140.667 80.7821C141.232 81.7646 142.116 82.525 143.172 82.9378L212.127 109.546C212.45 109.672 212.787 109.762 213.13 109.815C213.629 109.896 214.138 109.9 214.638 109.827L259.195 103.225C260.246 103.073 261.219 102.586 261.972 101.837C262.724 101.088 263.215 100.116 263.371 99.0664L272.325 40.098Z" fill="white"/>
<path d="M144.736 78.8918L213.69 105.499C213.791 105.539 213.9 105.551 214.007 105.536L258.558 98.9351C258.69 98.917 258.812 98.8564 258.907 98.7623C259.001 98.6683 259.063 98.546 259.081 98.4141L268.04 39.445C268.061 39.301 268.03 39.1544 267.954 39.0303C267.879 38.9062 267.762 38.8123 267.625 38.7646L267.166 38.6094L199.378 16.0483C199.347 16.0373 199.315 16.0296 199.283 16.0253C199.23 16.0156 199.177 16.0128 199.123 16.017L157.404 19.9636L154.093 20.2741C153.957 20.2886 153.83 20.3471 153.73 20.4407C153.631 20.5343 153.565 20.6578 153.542 20.7925L144.348 78.2141C144.325 78.3544 144.352 78.4981 144.422 78.6214C144.493 78.7447 144.604 78.8401 144.736 78.8918Z" fill="#3C76FF"/>
<path d="M157.404 19.9636L199.123 16.017C199.176 16.0128 199.23 16.0156 199.283 16.0253C199.315 16.0296 199.347 16.0373 199.378 16.0483L267.166 38.6094L249.284 40.5016L242.593 41.2064L223.551 43.2175C223.495 43.2203 223.439 43.2197 223.384 43.2155C223.35 43.2053 223.316 43.1951 223.275 43.1843L157.404 19.9636Z" fill="#002050"/>
<path d="M143.171 82.9414L212.126 109.548C212.45 109.673 212.787 109.762 213.131 109.812C213.631 109.894 214.14 109.9 214.641 109.83L259.192 103.23C260.243 103.076 261.217 102.589 261.97 101.84C262.723 101.09 263.215 100.118 263.372 99.0676L272.324 40.0979C272.456 39.2285 272.356 38.3396 272.034 37.5214C271.989 37.4127 271.943 37.3039 271.89 37.2014C271.535 36.4543 270.995 35.8106 270.321 35.3314C269.915 35.04 269.467 34.8117 268.992 34.6544L268.911 34.6257L200.753 11.9318C200.475 11.843 200.19 11.7739 199.902 11.7252C199.508 11.6694 199.109 11.6617 198.713 11.7021L181.611 13.3136L171.798 14.2495L153.683 15.9592C152.942 16.0284 152.226 16.2648 151.59 16.6507C151.541 16.6745 151.494 16.7026 151.45 16.7347C151.418 16.7553 151.388 16.778 151.36 16.8027C150.804 17.1819 150.331 17.6703 149.97 18.238C149.609 18.8057 149.368 19.4409 149.261 20.105L140.059 77.5328C139.885 78.6538 140.099 79.8005 140.664 80.7838C141.23 81.7671 142.114 82.5281 143.171 82.9414ZM150.481 20.3051C150.593 19.6168 150.899 18.9746 151.362 18.4534C151.502 18.2857 151.659 18.1327 151.831 17.9967C152.298 17.6186 152.851 17.3607 153.442 17.2454C153.558 17.2213 153.676 17.2046 153.795 17.1955L184.295 14.3151L198.833 12.9321C198.931 12.9206 199.021 12.9223 199.113 12.9171C199.333 12.9125 199.553 12.9289 199.77 12.9659C199.969 12.9918 200.166 13.0386 200.355 13.1054L268.594 35.828C268.648 35.8471 268.695 35.8655 268.749 35.8846C269.37 36.1154 269.915 36.5119 270.325 37.0309C270.65 37.4283 270.887 37.8897 271.021 38.3848C271.155 38.88 271.182 39.3979 271.102 39.9046L262.143 98.8806C262.025 99.6671 261.658 100.395 261.095 100.957C260.532 101.519 259.804 101.885 259.017 102.001L214.459 108.601C213.822 108.693 213.171 108.619 212.571 108.386L143.616 81.7861C142.826 81.4748 142.165 80.9041 141.741 80.1677C141.318 79.4314 141.158 78.5731 141.287 77.7336L150.481 20.3051Z" fill="#272B41"/>
<path d="M151.211 17.116C151.248 17.0115 151.312 16.9189 151.397 16.8482C151.426 16.8257 151.455 16.8052 151.487 16.7871C151.516 16.776 151.545 16.7579 151.574 16.7467C151.713 16.6911 151.867 16.6885 152.007 16.7393L153.442 17.2455L223.558 41.9719L239.968 40.2386L249.151 39.2703L268.588 37.2133L270.326 37.0311L270.664 36.9938C270.809 36.9805 270.955 37.0185 271.076 37.1012C271.196 37.1839 271.284 37.3062 271.324 37.4468C271.333 37.4792 271.339 37.5124 271.342 37.546C271.357 37.6795 271.327 37.814 271.258 37.9292C271.189 38.0445 271.085 38.1343 270.961 38.1851C270.906 38.2079 270.848 38.2234 270.789 38.2313L268.425 38.4791L249.285 40.5017L242.593 41.2065L223.551 43.2176C223.495 43.2204 223.439 43.2197 223.384 43.2156C223.35 43.2054 223.316 43.1952 223.275 43.1843L151.831 17.9968L151.588 17.911C151.533 17.8928 151.481 17.8642 151.436 17.8268C151.328 17.7476 151.248 17.6359 151.208 17.5081C151.167 17.3803 151.169 17.243 151.211 17.116Z" fill="#3F3D56"/>
<path d="M213.319 109.992C213.158 109.966 213.013 109.878 212.917 109.746C212.82 109.614 212.78 109.45 212.804 109.288L222.87 42.5084C222.895 42.3459 222.983 42.1999 223.115 42.1023C223.248 42.0047 223.413 41.9637 223.576 41.9881L223.581 41.989C223.743 42.0148 223.887 42.1033 223.984 42.2352C224.08 42.367 224.12 42.5316 224.096 42.6931L214.03 109.473C214.005 109.635 213.917 109.781 213.785 109.879C213.653 109.977 213.487 110.018 213.324 109.993L213.319 109.992Z" fill="#272B41"/>
<path d="M238.835 105.756L232.14 106.462L239.971 40.2366C239.971 40.2366 248.913 38.6182 249.152 39.2672C249.299 39.6546 238.899 105.331 238.835 105.756Z" fill="#272B41"/>
<path d="M151.59 17.9102L151.41 48.1112L204.891 68.4832L224.097 42.6931L151.59 17.9102Z" fill="#272B41"/>
<path d="M270.327 37.0322C269.88 36.4705 269.278 36.052 268.596 35.8284L200.358 13.1066C200.167 13.0422 199.97 12.9942 199.77 12.9633C199.553 12.926 199.332 12.9095 199.111 12.914L199.222 12.2227L199.905 11.7283L216.109 0L270.224 16.5795L270.318 35.3319L270.327 37.0322Z" fill="#272B41"/>
<path d="M154.316 66.3929C154.393 66.4004 154.469 66.4163 154.542 66.4404L175.479 73.3148C175.741 73.4008 175.958 73.5874 176.083 73.8335C176.208 74.0796 176.229 74.3651 176.143 74.6271C176.057 74.8892 175.87 75.1063 175.624 75.2308C175.378 75.3553 175.093 75.3769 174.83 75.2909L153.893 68.4165C153.65 68.3366 153.445 68.17 153.317 67.9486C153.189 67.7271 153.147 67.4662 153.2 67.2158C153.252 66.9654 153.395 66.7431 153.601 66.5913C153.807 66.4395 154.061 66.3689 154.316 66.3929Z" fill="white"/>
</svg>
