<svg width="647" height="481" viewBox="0 0 647 481" fill="none" xmlns="http://www.w3.org/2000/svg">
<path d="M0 423.022H647V422.699H0V423.022Z" fill="#ECECEC"/>
<path d="M539.312 443.801H582.172V443.477H539.312V443.801Z" fill="#ECECEC"/>
<path d="M417.35 447.304H428.598V446.98H417.35V447.304Z" fill="#ECECEC"/>
<path d="M513.182 431.813H538.017V431.489H513.182V431.813Z" fill="#ECECEC"/>
<path d="M67.8817 433.983H123.773V433.659H67.8817V433.983Z" fill="#ECECEC"/>
<path d="M135.295 433.983H143.49V433.659H135.295V433.983Z" fill="#ECECEC"/>
<path d="M170.124 439.433H291.34V439.109H170.124V439.433Z" fill="#ECECEC"/>
<path d="M56.8263 0.322815C52.9314 0.322815 49.7637 3.48294 49.7637 7.36856V357.759C49.7637 361.644 52.9314 364.804 56.8263 364.804H306.696C310.589 364.804 313.758 361.644 313.758 357.759V7.36856C313.758 3.48294 310.589 0.322815 306.696 0.322815H56.8263ZM306.696 365.127H56.8263C52.7541 365.127 49.4402 361.823 49.4402 357.759V7.36856C49.4402 3.30609 52.7541 9.15527e-05 56.8263 9.15527e-05H306.696C310.767 9.15527e-05 314.081 3.30609 314.081 7.36856V357.759C314.081 361.823 310.767 365.127 306.696 365.127Z" fill="#ECECEC"/>
<path d="M336.714 0.322815C332.82 0.322815 329.653 3.48294 329.653 7.36856V357.759C329.653 361.644 332.82 364.804 336.714 364.804H586.584C590.478 364.804 593.647 361.644 593.647 357.759V7.36856C593.647 3.48294 590.478 0.322815 586.584 0.322815H336.714ZM586.584 365.127H336.714C332.642 365.127 329.329 361.823 329.329 357.759V7.36856C329.329 3.30609 332.642 9.15527e-05 336.714 9.15527e-05H586.584C590.656 9.15527e-05 593.97 3.30609 593.97 7.36856V357.759C593.97 361.823 590.656 365.127 586.584 365.127Z" fill="#ECECEC"/>
<path d="M374.86 153.753H553.149V37.2794H374.86V153.753Z" fill="#E7E7E7"/>
<path d="M369.42 153.753H550.607V37.2794H369.42V153.753Z" fill="#F0F0F0"/>
<path d="M374.86 153.753H553.149V176.613H374.86V153.753Z" fill="#E7E7E7"/>
<path d="M360.357 153.753H541.544V176.613H360.357V153.753Z" fill="#F0F0F0"/>
<path d="M542.991 44.8774H377.036V146.156H542.991V44.8774Z" fill="#FAFAFA"/>
<path d="M505.569 146.157L484.372 44.8784H451.296L472.493 146.157H505.569Z" fill="white"/>
<path d="M539.465 138.595C539.765 138.595 540.008 138.352 540.008 138.052V49.8207C540.008 49.5212 539.765 49.2785 539.465 49.2785C539.164 49.2785 538.921 49.5212 538.921 49.8207V138.052C538.921 138.352 539.164 138.595 539.465 138.595Z" fill="#F0F0F0"/>
<path d="M465.388 146.157L444.19 44.8784H431.296L452.493 146.157H465.388Z" fill="white"/>
<path d="M378.003 44.8774H377.036V146.156H378.003V44.8774Z" fill="#E7E7E7"/>
<g opacity="0.600006">
<path d="M367.619 56.3333H545.907L546.608 47.8314H368.32L367.619 56.3333Z" fill="#ECECEC"/>
</g>
<g opacity="0.600006">
<path d="M367.619 70.2776H545.907L546.608 61.7757H368.32L367.619 70.2776Z" fill="#ECECEC"/>
</g>
<g opacity="0.600006">
<path d="M367.619 84.2218H545.907L546.608 75.7199H368.32L367.619 84.2218Z" fill="#ECECEC"/>
</g>
<g opacity="0.600006">
<path d="M367.619 98.1661H545.907L546.608 89.6643H368.32L367.619 98.1661Z" fill="#ECECEC"/>
</g>
<g opacity="0.600006">
<path d="M367.619 112.111H545.907L546.608 103.609H368.32L367.619 112.111Z" fill="#ECECEC"/>
</g>
<g opacity="0.600006">
<path d="M367.619 126.055H545.907L546.608 117.553H368.32L367.619 126.055Z" fill="#ECECEC"/>
</g>
<path d="M527.548 345.347H490.166V337.994H527.548V345.347Z" fill="#E7E7E7"/>
<path d="M419.655 422.699H426.556V253.507H419.655V422.699Z" fill="#E7E7E7"/>
<path d="M395.752 345.347H490.166V337.994H395.752V345.347Z" fill="#F5F5F5"/>
<path d="M527.548 385.581H490.166V378.228H527.548V385.581Z" fill="#E7E7E7"/>
<path d="M395.752 385.581H490.166V378.228H395.752V385.581Z" fill="#F5F5F5"/>
<path d="M527.548 264.882H490.166V257.529H527.548V264.882Z" fill="#E7E7E7"/>
<path d="M395.752 264.882H490.166V257.529H395.752V264.882Z" fill="#F5F5F5"/>
<path d="M527.548 305.114H490.166V297.761H527.548V305.114Z" fill="#E7E7E7"/>
<path d="M395.752 305.114H490.166V297.761H395.752V305.114Z" fill="#F5F5F5"/>
<path d="M514.069 422.699H520.97V253.507H514.069V422.699Z" fill="#E7E7E7"/>
<path d="M483.265 422.699H490.166V253.507H483.265V422.699Z" fill="#F5F5F5"/>
<path d="M395.752 422.699H402.653V253.507H395.752V422.699Z" fill="#F5F5F5"/>
<path d="M84.5941 422.701H155.218V286.005H84.5941V422.701Z" fill="#E7E7E7"/>
<path d="M103.453 422.701H84.5939V403.83H123.226L103.453 422.701Z" fill="#FAFAFA"/>
<path d="M277.154 422.701H347.778V286.005H277.154V422.701Z" fill="#E7E7E7"/>
<path d="M84.5944 416.206H293.613V286.005H84.5944V416.206Z" fill="#FAFAFA"/>
<path d="M274.753 422.701H293.612V403.83H254.98L274.753 422.701Z" fill="#FAFAFA"/>
<path d="M99.2241 367.105H278.983V334.522H99.2241V367.105Z" fill="#F0F0F0"/>
<path d="M99.2241 406.652H278.983V374.068H99.2241V406.652Z" fill="#F0F0F0"/>
<path d="M133.391 338.005H244.815C248.086 338.005 250.737 335.36 250.737 332.098V331.699H127.47V332.098C127.47 335.36 130.121 338.005 133.391 338.005Z" fill="#FAFAFA"/>
<path d="M99.2241 327.557H278.983V294.974H99.2241V327.557Z" fill="#F0F0F0"/>
<path d="M133.391 298.458H244.815C248.086 298.458 250.737 295.813 250.737 292.551V292.152H127.47V292.551C127.47 295.813 130.121 298.458 133.391 298.458Z" fill="#FAFAFA"/>
<path d="M133.391 377.553H244.815C248.086 377.553 250.737 374.908 250.737 371.646V371.247H127.47V371.646C127.47 374.908 130.121 377.553 133.391 377.553Z" fill="#FAFAFA"/>
<path d="M95.8439 153.753H274.133V37.2794H95.8439V153.753Z" fill="#E7E7E7"/>
<path d="M90.4042 153.753H271.59V37.2794H90.4042V153.753Z" fill="#F0F0F0"/>
<path d="M95.8439 153.753H274.133V176.613H95.8439V153.753Z" fill="#E7E7E7"/>
<path d="M81.3421 153.753H262.529V176.613H81.3421V153.753Z" fill="#F0F0F0"/>
<path d="M263.975 44.8774H98.0206V146.156H263.975V44.8774Z" fill="#FAFAFA"/>
<path d="M226.553 146.157L205.356 44.8784H172.28L193.477 146.157H226.553Z" fill="white"/>
<path d="M260.449 138.595C260.749 138.595 260.993 138.352 260.993 138.052V49.8207C260.993 49.5212 260.749 49.2785 260.449 49.2785C260.149 49.2785 259.906 49.5212 259.906 49.8207V138.052C259.906 138.352 260.149 138.595 260.449 138.595Z" fill="#F0F0F0"/>
<path d="M186.372 146.157L165.175 44.8784H152.28L173.477 146.157H186.372Z" fill="white"/>
<path d="M98.9872 44.8774H98.0206V146.156H98.9872V44.8774Z" fill="#E7E7E7"/>
<g opacity="0.600006">
<path d="M88.6031 56.3333H266.892L267.593 47.8314H89.3045L88.6031 56.3333Z" fill="#ECECEC"/>
</g>
<g opacity="0.600006">
<path d="M88.6031 61.1289H266.892L267.593 52.627H89.3045L88.6031 61.1289Z" fill="#ECECEC"/>
</g>
<g opacity="0.600006">
<path d="M88.6031 65.9258H266.892L267.593 57.4239H89.3045L88.6031 65.9258Z" fill="#ECECEC"/>
</g>
<g opacity="0.600006">
<path d="M88.6031 70.7218H266.892L267.593 62.2199H89.3045L88.6031 70.7218Z" fill="#ECECEC"/>
</g>
<g opacity="0.600006">
<path d="M88.6031 75.5182H266.892L267.593 67.0163H89.3045L88.6031 75.5182Z" fill="#ECECEC"/>
</g>
<g opacity="0.600006">
<path d="M88.6031 80.3146H266.892L267.593 71.8127H89.3045L88.6031 80.3146Z" fill="#ECECEC"/>
</g>
<path d="M124.241 281.827H130.404V213.291H124.241V281.827Z" fill="#F5F5F5"/>
<path d="M125.035 281.779H126.775V213.243H125.035V281.779Z" fill="#FAFAFA"/>
<path d="M127.506 281.779H128.188V213.243H127.506V281.779Z" fill="#FAFAFA"/>
<path d="M104.507 286.004H150.139C150.139 282.837 147.565 280.269 144.39 280.269H110.257C107.081 280.269 104.507 282.837 104.507 286.004Z" fill="#F0F0F0"/>
<path d="M116.247 255.838C117.222 255.838 118.019 255.042 118.019 254.07V209.133C118.019 208.161 117.222 207.365 116.247 207.365C115.271 207.365 114.474 208.161 114.474 209.133V254.07C114.474 255.042 115.271 255.838 116.247 255.838Z" fill="#F0F0F0"/>
<path d="M99.7332 229.582H154.913L148.565 191.114H106.08L99.7332 229.582Z" fill="#E1E1E1"/>
<path d="M311.166 93.1321C373.407 100.075 400.731 46.2453 462.411 53.295C517.463 59.5868 555.418 98.714 542.572 151.411C531.168 198.188 476.83 212.872 457.509 256.693C437.029 303.146 421.143 353.243 359.292 369.413C237.844 401.167 178.854 252.092 170.591 166.471C167.419 133.604 161.883 55.0312 204.888 44.8499C248.172 34.6014 272.986 88.8734 311.166 93.1321Z" fill="#007CFF"/>
<g opacity="0.899994">
<path d="M311.166 93.1321C373.407 100.075 400.731 46.2453 462.411 53.295C517.463 59.5868 555.418 98.714 542.572 151.411C531.168 198.188 476.83 212.872 457.509 256.693C437.029 303.146 421.143 353.243 359.292 369.413C237.844 401.167 178.854 252.092 170.591 166.471C167.419 133.604 161.883 55.0312 204.888 44.8499C248.172 34.6014 272.986 88.8734 311.166 93.1321Z" fill="white"/>
</g>
<path d="M574.393 466.383C574.393 474.456 462.065 481 323.501 481C184.937 481 72.6084 474.456 72.6084 466.383C72.6084 458.311 184.937 451.766 323.501 451.766C462.065 451.766 574.393 458.311 574.393 466.383Z" fill="#F5F5F5"/>
<path d="M135.156 214.186L133.437 190.38L134.727 190.288L136.447 214.093L135.156 214.186Z" fill="#007CFF"/>
<path d="M136.689 235.435L136.042 226.48L137.333 226.387L137.98 235.342L136.689 235.435Z" fill="#007CFF"/>
<path d="M436.998 335.903H159.877C153.61 335.903 148.112 330.787 147.661 324.534L134.045 135.895C133.594 129.643 138.353 124.527 144.62 124.527H421.74C428.008 124.527 433.505 129.643 433.957 135.895L447.574 324.534C448.025 330.787 443.266 335.903 436.998 335.903Z" fill="#007CFF"/>
<path d="M438.06 335.903H160.94C154.673 335.903 149.175 330.787 148.723 324.534L135.108 135.895C134.656 129.643 139.416 124.527 145.682 124.527H422.803C429.071 124.527 434.568 129.643 435.019 135.895L448.636 324.534C449.088 330.787 444.328 335.903 438.06 335.903Z" fill="#007CFF"/>
<g opacity="0.5">
<path d="M438.06 335.903H160.94C154.673 335.903 149.175 330.787 148.723 324.534L135.108 135.895C134.656 129.643 139.416 124.527 145.682 124.527H422.803C429.071 124.527 434.568 129.643 435.019 135.895L448.636 324.534C449.088 330.787 444.328 335.903 438.06 335.903Z" fill="white" fill-opacity="0.6"/>
</g>
<path d="M423.213 130.211H146.093C145.78 130.211 145.47 130.224 145.165 130.249C138.08 130.831 139.528 141.58 146.678 141.58H424.27C431.42 141.58 431.315 130.831 424.147 130.249C423.838 130.224 423.526 130.211 423.213 130.211Z" fill="#007CFF"/>
<path d="M153.31 135.896C153.414 137.335 152.328 138.502 150.885 138.502C149.443 138.502 148.189 137.335 148.085 135.896C147.982 134.456 149.067 133.289 150.51 133.289C151.953 133.289 153.207 134.456 153.31 135.896Z" fill="#FAFAFA"/>
<path d="M162.197 135.896C162.301 137.335 161.215 138.502 159.772 138.502C158.329 138.502 157.076 137.335 156.972 135.896C156.869 134.456 157.953 133.289 159.397 133.289C160.84 133.289 162.094 134.456 162.197 135.896Z" fill="#FAFAFA"/>
<path d="M171.084 135.896C171.188 137.335 170.102 138.502 168.659 138.502C167.217 138.502 165.963 137.335 165.859 135.896C165.756 134.456 166.84 133.289 168.284 133.289C169.727 133.289 170.981 134.456 171.084 135.896Z" fill="#FAFAFA"/>
<path d="M430.714 317.076H165.569C163.288 317.076 161.304 315.231 161.14 312.954L149.943 157.824C149.778 155.547 151.496 153.702 153.777 153.702H418.921C421.203 153.702 423.185 155.547 423.349 157.824L434.548 312.954C434.712 315.231 432.995 317.076 430.714 317.076Z" fill="white"/>
<path d="M271.103 257.355H318.335L314.091 198.556L301.44 190.96H266.31L271.103 257.355ZM319.009 258.606H270.519C270.19 258.606 269.917 258.353 269.894 258.026L265.01 190.379C264.999 190.206 265.058 190.035 265.177 189.908C265.296 189.78 265.462 189.708 265.637 189.708H301.615C301.729 189.708 301.84 189.74 301.939 189.798L315.017 197.651C315.192 197.757 315.304 197.94 315.319 198.143L319.635 257.936C319.647 258.109 319.588 258.279 319.468 258.407C319.349 258.534 319.184 258.606 319.009 258.606Z" fill="#007CFF"/>
<path d="M314.694 198.187L301.615 190.335L306.417 200.738L314.694 198.187Z" fill="#ECECEC"/>
<path d="M303.036 191.918L306.757 199.978L313.17 198.003L303.036 191.918ZM306.418 201.363C306.178 201.363 305.952 201.226 305.847 200.999L301.046 190.596C300.931 190.346 300.992 190.051 301.198 189.868C301.402 189.686 301.704 189.657 301.939 189.798L315.018 197.652C315.228 197.778 315.346 198.018 315.316 198.264C315.287 198.508 315.115 198.712 314.879 198.785L306.603 201.336C306.541 201.354 306.478 201.363 306.418 201.363Z" fill="#007CFF"/>
<path d="M319.009 257.98L314.694 198.187L301.615 190.333H265.636L270.519 257.98H319.009Z" fill="white"/>
<path d="M285.934 220.812C286.043 222.321 284.905 223.545 283.391 223.545C281.879 223.545 280.564 222.321 280.455 220.812C280.347 219.303 281.484 218.079 282.998 218.079C284.511 218.079 285.825 219.303 285.934 220.812Z" fill="#007CFF"/>
<path d="M303.708 220.812C303.817 222.321 302.679 223.545 301.165 223.545C299.653 223.545 298.338 222.321 298.229 220.812C298.121 219.303 299.258 218.079 300.772 218.079C302.285 218.079 303.599 219.303 303.708 220.812Z" fill="#007CFF"/>
<path d="M308.722 238.536C308.396 238.536 308.122 238.284 308.097 237.955C307.78 233.561 300.873 229.986 292.699 229.986C287.283 229.986 282.422 231.593 280.01 234.179C278.937 235.328 278.441 236.568 278.534 237.864C278.559 238.21 278.3 238.509 277.955 238.534C277.608 238.555 277.309 238.299 277.283 237.955C277.165 236.322 277.79 234.721 279.092 233.327C281.733 230.495 286.947 228.735 292.699 228.735C301.665 228.735 308.978 232.746 309.349 237.864C309.373 238.21 309.113 238.509 308.768 238.534C308.752 238.536 308.738 238.536 308.722 238.536Z" fill="#007CFF"/>
<path d="M275.838 215.275C275.686 215.275 275.533 215.22 275.411 215.109C275.158 214.873 275.143 214.478 275.379 214.225L278.126 211.271C278.363 211.017 278.76 211.004 279.012 211.237C279.266 211.472 279.282 211.869 279.046 212.122L276.298 215.075C276.175 215.208 276.006 215.275 275.838 215.275Z" fill="#007CFF"/>
<path d="M307.434 215.275C307.282 215.275 307.128 215.22 307.006 215.108L303.832 212.154C303.579 211.918 303.565 211.523 303.802 211.27C304.037 211.017 304.433 211.003 304.687 211.239L307.863 214.192C308.115 214.429 308.129 214.824 307.892 215.077C307.769 215.208 307.602 215.275 307.434 215.275Z" fill="#007CFF"/>
<path d="M261.72 271.347H264.644L268.864 276.942L268.46 271.347H271.413L272.143 281.459H269.19L264.994 275.906L265.395 281.459H262.45L261.72 271.347Z" fill="#007CFF"/>
<path d="M276.599 276.424C276.673 277.445 276.916 278.178 277.329 278.623C277.74 279.07 278.275 279.293 278.928 279.293C279.601 279.293 280.107 279.074 280.443 278.638C280.781 278.2 280.909 277.416 280.828 276.286C280.758 275.334 280.516 274.638 280.099 274.2C279.683 273.761 279.144 273.541 278.486 273.541C277.854 273.541 277.364 273.763 277.013 274.21C276.662 274.655 276.525 275.394 276.599 276.424ZM273.466 276.41C273.347 274.758 273.715 273.474 274.57 272.554C275.427 271.634 276.677 271.175 278.321 271.175C280.009 271.175 281.341 271.627 282.318 272.53C283.297 273.434 283.844 274.699 283.962 276.327C284.047 277.509 283.918 278.478 283.574 279.234C283.229 279.99 282.696 280.579 281.973 281C281.25 281.421 280.326 281.631 279.201 281.631C278.059 281.631 277.098 281.449 276.323 281.086C275.548 280.722 274.9 280.148 274.377 279.362C273.856 278.576 273.552 277.592 273.466 276.41Z" fill="#007CFF"/>
<path d="M293.35 273.637L293.749 279.162H294.516C295.171 279.162 295.631 279.09 295.897 278.944C296.163 278.799 296.361 278.546 296.492 278.186C296.622 277.825 296.659 277.24 296.6 276.431C296.523 275.359 296.295 274.626 295.916 274.23C295.537 273.835 294.943 273.637 294.132 273.637H293.35ZM290.053 271.347H294.706C295.624 271.347 296.373 271.471 296.955 271.72C297.537 271.968 298.03 272.324 298.433 272.789C298.835 273.254 299.141 273.793 299.352 274.409C299.562 275.026 299.692 275.679 299.742 276.369C299.82 277.449 299.757 278.287 299.553 278.882C299.35 279.478 299.044 279.977 298.635 280.379C298.226 280.781 297.775 281.049 297.282 281.182C296.608 281.367 295.994 281.459 295.436 281.459H290.783L290.053 271.347Z" fill="#007CFF"/>
<path d="M306.45 277.603L305.069 273.968L304.224 277.603H306.45ZM307.257 279.79H303.702L303.328 281.459H300.13L303.21 271.347H306.626L311.164 281.459H307.885L307.257 279.79Z" fill="#007CFF"/>
<path d="M309.744 271.347H319.264L319.444 273.844H316.25L316.8 281.459H313.667L313.119 273.844H309.924L309.744 271.347Z" fill="#007CFF"/>
<path d="M325.753 277.603L324.372 273.968L323.527 277.603H325.753ZM326.56 279.79H323.004L322.631 281.459H319.433L322.513 271.347H325.929L330.467 281.459H327.188L326.56 279.79Z" fill="#007CFF"/>
<path d="M457.672 152.49C458.829 151.912 460.207 151.165 461.482 150.466C462.78 149.755 464.071 149.013 465.343 148.241C467.878 146.684 470.433 145.145 472.859 143.436C477.753 140.072 482.337 136.341 486.463 132.266C487.002 131.773 487.462 131.225 487.962 130.705L488.7 129.914L489.07 129.52L489.255 129.321C489.303 129.27 489.293 129.281 489.268 129.311L489.228 129.374C489.043 129.718 489.197 129.614 489.268 129.281C489.355 128.961 489.427 128.438 489.45 127.873C489.533 125.529 489.069 122.574 488.507 119.717C487.354 113.926 485.611 107.972 483.886 102.138L488.915 99.9379C492.063 105.548 494.689 111.278 496.824 117.492C497.841 120.638 498.776 123.798 499.048 127.681C499.099 128.669 499.121 129.709 498.941 130.922C498.752 132.114 498.449 133.541 497.358 135.16L497.143 135.458L496.976 135.675L496.777 135.918L496.379 136.401L495.579 137.369C495.039 138.005 494.528 138.679 493.955 139.276C489.492 144.218 484.528 148.584 479.229 152.381C476.593 154.303 473.898 156.128 471.099 157.79C469.705 158.631 468.294 159.439 466.859 160.223C465.405 161.03 464.023 161.731 462.372 162.503L457.672 152.49Z" fill="#FFC3BD"/>
<path d="M448.013 120.201C446.753 126.616 444.095 139.612 448.595 143.894C448.595 143.894 446.837 150.403 434.886 150.403C421.745 150.403 428.606 143.894 428.606 143.894C435.778 142.186 435.593 136.878 434.343 131.892L448.013 120.201Z" fill="#F7B8B1"/>
<path d="M426.094 146.48C424.031 146.759 425.786 141.428 426.625 140.876C428.56 139.6 453.606 137.791 453.443 140.823C453.339 142.129 452.724 144.675 451.63 145.54C450.534 146.405 444.1 143.791 426.094 146.48Z" fill="#0557B9"/>
<path d="M430.174 144.685C428.535 145.238 428.691 139.866 429.248 139.22C430.54 137.725 450.812 132.529 451.415 135.47C451.646 136.739 451.758 139.274 451.061 140.258C450.367 141.241 444.41 139.613 430.174 144.685Z" fill="#0557B9"/>
<path d="M422.634 108.636C422.475 108.645 422.315 108.581 422.206 108.448C420.757 106.679 418.872 106.86 418.854 106.863C418.568 106.892 418.319 106.69 418.289 106.408C418.258 106.128 418.462 105.875 418.744 105.844C418.843 105.834 421.203 105.605 423.002 107.8C423.18 108.018 423.148 108.341 422.928 108.521C422.841 108.592 422.738 108.629 422.634 108.636Z" fill="#1A2E35"/>
<path d="M420.126 114.952C420.126 114.952 419.018 118.834 417.57 120.796C418.824 121.753 420.729 121.072 420.729 121.072L420.126 114.952Z" fill="#FF5551"/>
<path d="M420.757 113.384C420.843 114.252 420.451 115.001 419.883 115.058C419.313 115.113 418.783 114.455 418.697 113.587C418.612 112.718 419.004 111.969 419.572 111.913C420.141 111.858 420.672 112.516 420.757 113.384Z" fill="#1A2E35"/>
<path d="M419.829 111.938L417.68 111.541C417.68 111.541 418.913 113.065 419.829 111.938Z" fill="#1A2E35"/>
<path d="M461.57 455.342H450.732L451.582 430.301H462.421L461.57 455.342Z" fill="#FFC3BD"/>
<path d="M449.873 454.091H462.05C462.493 454.091 462.853 454.398 462.915 454.829L464.302 464.441C464.446 465.438 463.587 466.381 462.565 466.363C458.319 466.29 456.273 466.042 450.919 466.042C447.624 466.042 442.81 466.383 438.262 466.383C433.812 466.383 433.469 461.895 435.363 461.489C443.859 459.666 445.199 457.153 448.061 454.755C448.578 454.323 449.225 454.091 449.873 454.091Z" fill="#004A87"/>
<g opacity="0.199997">
<path d="M462.423 430.309H451.579L451.147 443.216H461.99L462.423 430.309Z" fill="black"/>
</g>
<path d="M418.445 158.898C411.739 156.279 405.341 153.43 398.971 150.18C392.611 146.932 386.349 143.475 380.332 138.853C378.833 137.677 377.352 136.392 375.904 134.89C375.543 134.503 375.182 134.144 374.827 133.7C374.455 133.233 374.174 132.958 373.691 132.24C372.815 130.985 372.14 129.301 371.958 127.581C371.789 125.86 372.098 124.217 372.594 122.908C373.089 121.575 373.738 120.486 374.414 119.541C375.774 117.652 377.282 116.255 378.8 114.998C381.833 112.494 385.038 110.674 388.251 108.974C389.856 108.123 391.49 107.358 393.148 106.653C394.81 105.937 396.436 105.272 398.201 104.665L400.499 109.639C394.854 113.188 389.007 117.087 384.709 121.462C383.667 122.545 382.753 123.679 382.177 124.677C381.561 125.693 381.569 126.454 381.674 126.395C381.727 126.394 381.706 126.372 381.856 126.52L382.371 127.073C382.565 127.302 382.838 127.54 383.083 127.776C384.099 128.724 385.289 129.672 386.575 130.576C389.144 132.4 391.974 134.107 394.901 135.701C397.818 137.317 400.817 138.864 403.875 140.33C409.972 143.244 416.295 146.048 422.497 148.609L418.445 158.898Z" fill="#FFC3BD"/>
<path d="M403.688 106.113L405.48 102.235L397.333 99.4134C397.333 99.4134 394.795 107.032 397.82 110.549C400.395 110.139 402.596 108.476 403.688 106.113Z" fill="#FFC3BD"/>
<path d="M405.481 93.8522L398.968 91.9792L397.334 99.4134L405.481 102.235V93.8522Z" fill="#FFC3BD"/>
<path d="M489.584 102.611L490.534 93.5491L482.139 95.5177C482.139 95.5177 482.014 104.012 486.457 105.366L489.584 102.611Z" fill="#FFC3BD"/>
<path d="M486.489 87.2058L481.02 89.7541L482.138 95.5179L490.533 93.5493L486.489 87.2058Z" fill="#FFC3BD"/>
<path d="M449.717 107.535C450.112 118.259 450.509 122.789 445.651 128.791C438.344 137.817 425.055 135.956 421.456 125.566C418.217 116.213 418.115 100.246 428.157 94.9781C438.049 89.7874 449.322 96.8099 449.717 107.535Z" fill="#FFC3BD"/>
<path d="M445.034 128.77C455.587 124.221 462.528 114.629 459.598 99.6296C456.794 85.2799 447.084 83.8612 443.072 86.8393C439.061 89.8162 429.062 85.3793 423.062 90.4164C412.666 99.1442 422.495 108.554 427.614 114.129C430.672 120.4 434.678 133.234 445.034 128.77Z" fill="#002050"/>
<path d="M440.652 97.0543C444.213 102.198 451.043 103.651 455.908 100.298C460.773 96.9471 461.831 90.0602 458.27 84.9159C454.708 79.773 447.877 78.3194 443.013 81.6719C438.148 85.0231 437.091 91.91 440.652 97.0543Z" fill="#3C76FF"/>
<path d="M443.392 87.8443C441.869 79.1979 450.07 72.5304 461.037 75.7525C472.002 78.9746 466.203 88.6731 463.954 96.4185C461.705 104.164 467.607 111.54 470.073 105.642C472.539 99.7439 468.393 97.9224 468.393 97.9224C468.393 97.9224 480.038 100.934 469.22 114.03C458.404 127.125 448.611 112.666 451.258 104.132C453.399 97.2343 444.832 96.0183 443.392 87.8443Z" fill="#002050"/>
<path d="M432.432 91.1119C427.425 88.5056 418.947 86.4001 414.122 94.4979C411.84 98.328 412.724 103.52 412.724 103.52L427.461 104.499L432.432 91.1119Z" fill="#002050"/>
<path d="M410.99 100.98C410.984 100.98 410.977 100.98 410.97 100.98C410.791 100.969 410.656 100.815 410.667 100.638C410.681 100.417 411.037 95.2241 414.179 91.9672C421.773 84.0953 430.677 90.6246 433.225 92.814C433.361 92.9302 433.375 93.1341 433.259 93.2684C433.142 93.4039 432.938 93.4181 432.803 93.3032C430.364 91.2081 421.846 84.9511 414.646 92.4151C411.67 95.4991 411.316 100.627 411.313 100.678C411.302 100.849 411.16 100.98 410.99 100.98Z" fill="#002050"/>
<path d="M429.417 113.703C429.402 115.792 428.463 117.838 427.276 119.224C425.487 121.31 423.438 120.283 422.967 117.969C422.543 115.887 422.964 112.293 425.223 111.033C427.45 109.792 429.435 111.315 429.417 113.703Z" fill="#FFC3BD"/>
<path d="M427.089 211.926C427.089 211.926 427.78 286.984 434.307 328.81C439.578 362.593 449.334 440.716 449.334 440.716H464.115C464.115 440.716 465.558 365.296 462.883 331.884C456.112 247.332 473.586 231.525 459.484 211.926H427.089Z" fill="#3C76FF"/>
<g opacity="0.300003">
<path d="M434.857 245.978C440.046 268.633 435.906 304.313 433.072 320.024C430.07 296.168 428.556 265.251 427.805 242.595C430.484 238.258 433.02 237.974 434.857 245.978Z" fill="black"/>
</g>
<path d="M447.312 441.009H466.137L467.127 434.42L447.204 433.748L447.312 441.009Z" fill="#007CFF"/>
<path d="M452.684 148.568C454.454 145.056 463.974 142.846 469.178 142.853L473.073 160.106C473.073 160.106 462.705 175.455 458.395 173.827C453.302 171.908 448.89 156.094 452.684 148.568Z" fill="#007CFF"/>
<g opacity="0.399994">
<path d="M452.684 148.568C454.454 145.056 463.974 142.846 469.178 142.853L473.073 160.106C473.073 160.106 462.705 175.455 458.395 173.827C453.302 171.908 448.89 156.094 452.684 148.568Z" fill="#002050"/>
</g>
<path d="M453.008 432.209L443.094 436.602L438.677 427.43L432.904 415.42L432.227 414.023L442.129 409.623L442.895 411.194L448.492 422.825L453.008 432.209Z" fill="#FFC3BD"/>
<g opacity="0.199997">
<path d="M448.491 422.826L438.676 427.431L432.904 415.419L442.895 411.195L448.491 422.826Z" fill="black"/>
</g>
<path d="M415.464 211.926C415.464 211.926 383.794 290.458 392.379 327.438C400.136 360.859 434.439 424.153 434.439 424.153L447.701 417.512C447.701 417.512 426.495 341.106 424.194 324.506C419.72 292.211 448.491 246.622 448.491 211.926H415.464Z" fill="#3C76FF"/>
<g opacity="0.100006">
<path d="M415.464 211.926C415.464 211.926 383.794 290.458 392.379 327.438C400.136 360.859 434.439 424.153 434.439 424.153L447.701 417.512C447.701 417.512 426.495 341.106 424.194 324.506C419.72 292.211 448.491 246.622 448.491 211.926H415.464Z" fill="#004A87"/>
</g>
<path d="M441.325 435.227L451.172 428.078C451.529 427.819 452.001 427.855 452.306 428.167L459.097 435.124C459.801 435.846 459.663 437.113 458.827 437.699C455.351 440.133 453.55 441.132 449.22 444.276C446.557 446.21 441.249 450.487 437.57 453.158C433.973 455.769 431.049 452.342 432.34 450.901C438.133 444.442 439.353 440.446 440.253 436.828C440.415 436.176 440.801 435.608 441.325 435.227Z" fill="#004A87"/>
<path d="M433.585 426.953L450.705 419.142L448.508 412.182L430.176 420.525L433.585 426.953Z" fill="#007CFF"/>
<path d="M423.867 147.688C422.446 144.021 410.077 139.998 403.872 138.594L401.145 158.949C401.145 158.949 411.279 173.479 415.728 172.276C420.983 170.857 426.911 155.546 423.867 147.688Z" fill="#007CFF"/>
<g opacity="0.399994">
<path d="M423.867 147.688C422.446 144.021 410.077 139.998 403.872 138.594L401.145 158.949C401.145 158.949 411.279 173.479 415.728 172.276C420.983 170.857 426.911 155.546 423.867 147.688Z" fill="#002050"/>
</g>
<path d="M410.284 146.664C410.284 146.664 405.121 148.479 415.464 211.926H459.484C458.745 194.052 458.725 183.031 467.288 146.35C467.288 146.35 458.065 144.35 448.595 143.894C441.187 143.538 435.118 143.301 428.606 143.894C420.02 144.676 410.284 146.664 410.284 146.664Z" fill="#0C6CDE"/>
<g opacity="0.399994">
<path d="M410.284 146.664C410.284 146.664 405.121 148.479 415.464 211.926H459.484C458.745 194.052 458.725 183.031 467.288 146.35C467.288 146.35 458.065 144.35 448.595 143.894C441.187 143.538 435.118 143.301 428.606 143.894C420.02 144.676 410.284 146.664 410.284 146.664Z" fill="#002050"/>
</g>
<path d="M460.144 209.349L462.129 213.28C462.283 213.584 461.92 213.895 461.412 213.895H415.246C414.849 213.895 414.52 213.702 414.495 213.452L414.098 209.522C414.071 209.249 414.415 209.018 414.849 209.018H459.427C459.754 209.018 460.044 209.152 460.144 209.349Z" fill="#007CFF"/>
<g opacity="0.300003">
<path d="M460.144 209.349L462.129 213.28C462.283 213.584 461.92 213.895 461.412 213.895H415.246C414.849 213.895 414.52 213.702 414.495 213.452L414.098 209.522C414.071 209.249 414.415 209.018 414.849 209.018H459.427C459.754 209.018 460.044 209.152 460.144 209.349Z" fill="white"/>
</g>
<path d="M454.157 214.321H455.352C455.588 214.321 455.769 214.198 455.754 214.05L455.194 208.942C455.177 208.793 454.97 208.671 454.732 208.671H453.537C453.301 208.671 453.119 208.793 453.135 208.942L453.695 214.05C453.712 214.198 453.919 214.321 454.157 214.321Z" fill="#1A2E35"/>
<path d="M425.218 214.321H426.412C426.649 214.321 426.83 214.198 426.815 214.05L426.255 208.942C426.238 208.793 426.031 208.671 425.793 208.671H424.598C424.361 208.671 424.18 208.793 424.196 208.942L424.756 214.05C424.773 214.198 424.98 214.321 425.218 214.321Z" fill="#1A2E35"/>
</svg>
