<svg width="30" height="30" viewBox="0 0 30 30" fill="none" xmlns="http://www.w3.org/2000/svg">
<path fill-rule="evenodd" clip-rule="evenodd" d="M6.0668 3H23.9332C25.6243 3 27 4.37578 27 6.06684V23.9332C27 25.6242 25.6243 27 23.9332 27H6.0668C4.37573 27 3 25.6242 3 23.9332V6.06684C3 4.37578 4.37573 3 6.0668 3ZM23.9332 25.5863C24.8447 25.5863 25.5863 24.8448 25.5863 23.9332L25.5864 18.3611L21.125 12.8678C21.0133 12.7303 20.8692 12.7032 20.7932 12.6993C20.7171 12.6954 20.5711 12.7076 20.446 12.833L13.5212 19.7683C13.263 20.0268 12.8505 20.046 12.5694 19.8127L9.65503 17.3926C9.48366 17.2503 9.23597 17.2516 9.06619 17.3961L4.41361 21.3547V23.9332C4.41361 24.8447 5.15522 25.5863 6.0668 25.5863H23.9332ZM22.2223 11.9765L25.5863 16.1187V6.06684C25.5863 5.15527 24.8448 4.41366 23.9332 4.41366H6.0668C5.15522 4.41366 4.41361 5.15527 4.41361 6.06684V19.4987L8.15011 16.3195C8.84433 15.7289 9.85702 15.7228 10.5582 16.3051L12.9765 18.3132L19.4456 11.8341C19.8195 11.4595 20.3375 11.2607 20.8657 11.2874C21.3942 11.3145 21.8887 11.5657 22.2223 11.9765ZM7.14663 9.3613C7.14663 7.48194 8.6756 5.95288 10.5551 5.95288C12.4345 5.95288 13.9635 7.4819 13.9635 9.3613C13.9635 11.2407 12.4345 12.7697 10.5551 12.7697C8.67565 12.7697 7.14663 11.2407 7.14663 9.3613ZM8.56024 9.3613C8.56024 10.4612 9.45508 11.3561 10.5551 11.3561C11.655 11.3561 12.5499 10.4612 12.5499 9.3613C12.5499 8.26138 11.655 7.36649 10.5551 7.36649C9.45508 7.36649 8.56024 8.26133 8.56024 9.3613Z" fill="#979797"/>
</svg>
