<svg width="12" height="16" viewBox="0 0 12 16" fill="none" xmlns="http://www.w3.org/2000/svg">
<path d="M3.52295 12.424C3.66295 12.342 3.81595 12.262 3.98195 12.186C3.84172 12.3951 3.69154 12.5973 3.53195 12.792C3.25195 13.129 3.03395 13.308 2.89695 13.364C2.88557 13.3688 2.87388 13.3728 2.86195 13.376C2.85197 13.3621 2.84327 13.3474 2.83595 13.332C2.77995 13.222 2.78195 13.116 2.87595 12.972C2.98195 12.807 3.19495 12.618 3.52295 12.424ZM5.97795 10.777C5.85895 10.802 5.74095 10.827 5.62195 10.855C5.79821 10.5096 5.96494 10.1595 6.12195 9.80498C6.28002 10.0979 6.45017 10.3842 6.63195 10.663C6.41495 10.695 6.19595 10.733 5.97795 10.777ZM8.50295 11.716C8.34762 11.5907 8.20219 11.4536 8.06795 11.306C8.29595 11.311 8.50195 11.328 8.67995 11.36C8.99695 11.417 9.14595 11.507 9.19795 11.569C9.21434 11.5863 9.22362 11.6091 9.22395 11.633C9.22044 11.7035 9.19985 11.7722 9.16395 11.833C9.14378 11.8817 9.11141 11.9244 9.06995 11.957C9.04931 11.9696 9.02498 11.9749 9.00095 11.972C8.91095 11.969 8.74295 11.906 8.50295 11.716ZM6.27795 6.96998C6.23795 7.21398 6.16995 7.49398 6.07795 7.79898C6.04405 7.68478 6.01436 7.56937 5.98895 7.45298C5.91295 7.09998 5.90195 6.82298 5.94295 6.63098C5.98095 6.45398 6.05295 6.38298 6.13895 6.34798C6.18507 6.32765 6.23392 6.31418 6.28395 6.30798C6.29695 6.33798 6.31195 6.39998 6.31595 6.50598C6.32095 6.62798 6.30895 6.78298 6.27795 6.97098V6.96998Z" fill="#E61F00"/>
<path fill-rule="evenodd" clip-rule="evenodd" d="M2 0H7.293C7.5582 5.66374e-05 7.81251 0.105451 8 0.293L11.707 4C11.8945 4.18749 11.9999 4.4418 12 4.707V14C12 14.5304 11.7893 15.0391 11.4142 15.4142C11.0391 15.7893 10.5304 16 10 16H2C1.46957 16 0.960859 15.7893 0.585786 15.4142C0.210714 15.0391 0 14.5304 0 14V2C0 1.46957 0.210714 0.960859 0.585786 0.585786C0.960859 0.210714 1.46957 0 2 0V0ZM7.5 1.5V3.5C7.5 3.76522 7.60536 4.01957 7.79289 4.20711C7.98043 4.39464 8.23478 4.5 8.5 4.5H10.5L7.5 1.5ZM2.165 13.668C2.255 13.848 2.395 14.011 2.603 14.087C2.81 14.162 3.015 14.127 3.183 14.057C3.501 13.927 3.818 13.621 4.109 13.271C4.442 12.87 4.792 12.344 5.13 11.761C5.78253 11.5676 6.45075 11.4317 7.127 11.355C7.427 11.738 7.737 12.068 8.037 12.305C8.317 12.525 8.64 12.708 8.971 12.722C9.1513 12.7309 9.3298 12.6826 9.481 12.584C9.636 12.483 9.751 12.337 9.835 12.168C9.925 11.987 9.98 11.798 9.973 11.605C9.96667 11.4147 9.89618 11.2322 9.773 11.087C9.547 10.817 9.177 10.687 8.813 10.622C8.37145 10.5536 7.92343 10.5368 7.478 10.572C7.10186 10.0403 6.77389 9.47602 6.498 8.886C6.748 8.226 6.935 7.602 7.018 7.092C7.054 6.874 7.073 6.666 7.066 6.478C7.06476 6.29139 7.02134 6.10747 6.939 5.94C6.89156 5.84758 6.82414 5.76687 6.74164 5.70374C6.65913 5.64061 6.56361 5.59663 6.462 5.575C6.26 5.532 6.052 5.575 5.861 5.652C5.484 5.802 5.285 6.122 5.21 6.475C5.137 6.815 5.17 7.211 5.256 7.611C5.344 8.017 5.494 8.459 5.686 8.906C5.37889 9.6698 5.02419 10.4136 4.624 11.133C4.10864 11.2951 3.61188 11.5114 3.142 11.778C2.772 11.998 2.443 12.258 2.245 12.565C2.035 12.891 1.97 13.279 2.165 13.668Z" fill="#E61F00"/>
</svg>
