<svg width="16" height="16" viewBox="0 0 16 16" fill="none" xmlns="http://www.w3.org/2000/svg">
<path fill-rule="evenodd" clip-rule="evenodd" d="M11.5631 2.81192H3.43676V8.49965H3.4376V9.31218H11.5631V8.49965V2.81192ZM13.1881 8.49965H12.3756V2.81192H12.3746C12.3746 2.36317 12.0108 1.99939 11.5621 1.99939H3.43676C2.98801 1.99939 2.62422 2.36317 2.62422 2.81192V8.49965L1.81253 8.49965C1.36378 8.49965 1 8.86343 1 9.31218V12.5623C1 13.0111 1.36378 13.3748 1.81253 13.3748H13.188C13.6367 13.3748 14.0005 13.0111 14.0005 12.5623H14.0009V9.31218H14.0007C14.0007 8.86343 13.6369 8.49965 13.1881 8.49965ZM12.3746 9.31218H13.1884V12.5623H1.81253V9.31218H2.62422C2.62422 9.76093 2.98801 10.1247 3.43676 10.1247H11.5621C12.0108 10.1247 12.3746 9.76093 12.3746 9.31218ZM2.62576 14.1874H12.3752V13.375H13.1877V14.1874H13.1887C13.1887 14.5968 12.8858 14.9356 12.4918 14.9917C12.4537 14.9972 12.4148 15 12.3752 15V14.9999H2.62576L2.62576 15C2.17701 15 1.81323 14.6363 1.81323 14.1875V14.1874V13.375H2.62576V14.1874ZM9.93771 11.3436C9.93771 11.1193 10.1196 10.9374 10.344 10.9374H11.969C12.1934 10.9374 12.3753 11.1193 12.3753 11.3436C12.3753 11.568 12.1934 11.7499 11.969 11.7499H10.344C10.1196 11.7499 9.93771 11.568 9.93771 11.3436ZM3.03049 10.9374C2.80612 10.9374 2.62422 11.1193 2.62422 11.3436C2.62422 11.568 2.80612 11.7499 3.03049 11.7499C3.25486 11.7499 3.43676 11.568 3.43676 11.3436C3.43676 11.1193 3.25486 10.9374 3.03049 10.9374ZM7.37959 3.46411C7.42722 3.45796 7.47563 3.46552 7.51913 3.48589C7.56263 3.50626 7.59942 3.5386 7.62521 3.57913C7.65099 3.61966 7.66469 3.66669 7.66471 3.71472V4.08739C8.11042 4.11863 8.53902 4.27755 8.89843 4.54682C9.30134 4.84868 9.5956 5.27295 9.73714 5.75608C9.87868 6.23921 9.85988 6.7552 9.68356 7.22675C9.50723 7.6983 9.18287 8.10003 8.75907 8.37176C8.33527 8.6435 7.83483 8.77061 7.33272 8.73406C6.83061 8.6975 6.35386 8.49926 5.97388 8.16901C5.5939 7.83876 5.33114 7.39429 5.22497 6.90218C5.11879 6.41007 5.17492 5.8968 5.38494 5.43926L5.3877 5.43323C5.42791 5.3543 5.4972 5.29404 5.58086 5.26496C5.66453 5.23587 5.7562 5.24027 5.8367 5.27724C5.91719 5.31421 5.98027 5.38087 6.01272 5.46329C6.04518 5.54571 6.04451 5.63748 6.01084 5.71941L6.00834 5.72549C5.86018 6.04824 5.82045 6.41024 5.89532 6.75738C5.9702 7.10452 6.15553 7.41807 6.42355 7.65104C6.69157 7.88402 7.02785 8.0239 7.38204 8.04972C7.73623 8.07554 8.08924 7.98591 8.38822 7.79427C8.6872 7.60262 8.91604 7.31927 9.04047 6.98666C9.16489 6.65405 9.17821 6.29007 9.07843 5.94926C8.97864 5.60844 8.77113 5.30912 8.48696 5.09613C8.24638 4.91582 7.96183 4.80561 7.66471 4.77595V5.13473C7.66469 5.18276 7.65099 5.22986 7.62521 5.27038C7.59942 5.31091 7.56263 5.34325 7.51913 5.36362C7.47563 5.384 7.42722 5.39155 7.37959 5.38541C7.33195 5.37926 7.28704 5.35967 7.25014 5.32893L6.39787 4.61895C6.36942 4.59523 6.34647 4.56549 6.33077 4.53194C6.31506 4.49839 6.30692 4.4618 6.30692 4.42476C6.30692 4.38771 6.31506 4.35112 6.33077 4.31758C6.34647 4.28403 6.36936 4.25434 6.39781 4.23062L7.25013 3.52059C7.28704 3.48985 7.33195 3.47025 7.37959 3.46411Z" fill="white"/>
</svg>
