<svg width="88" height="88" viewBox="0 0 88 88" fill="none" xmlns="http://www.w3.org/2000/svg">
<path d="M38.5916 60.6833L64.5333 34.7417L60.3166 30.6167L38.5916 52.3417L27.5916 41.3417L23.4666 45.4667L38.5916 60.6833ZM43.9999 80.6667C38.9888 80.6667 34.2527 79.7042 29.7916 77.7792C25.3305 75.8542 21.4346 73.2264 18.1041 69.8958C14.7735 66.5653 12.1458 62.6694 10.2208 58.2083C8.29575 53.7472 7.33325 49.0111 7.33325 44C7.33325 38.9278 8.29575 34.1611 10.2208 29.7C12.1458 25.2389 14.7735 21.3583 18.1041 18.0583C21.4346 14.7583 25.3305 12.1458 29.7916 10.2208C34.2527 8.29583 38.9888 7.33333 43.9999 7.33333C49.0721 7.33333 53.8388 8.29583 58.2999 10.2208C62.761 12.1458 66.6416 14.7583 69.9416 18.0583C73.2416 21.3583 75.8541 25.2389 77.7791 29.7C79.7041 34.1611 80.6666 38.9278 80.6666 44C80.6666 49.0111 79.7041 53.7472 77.7791 58.2083C75.8541 62.6694 73.2416 66.5653 69.9416 69.8958C66.6416 73.2264 62.761 75.8542 58.2999 77.7792C53.8388 79.7042 49.0721 80.6667 43.9999 80.6667ZM43.9999 75.1667C52.6777 75.1667 60.0416 72.1264 66.0916 66.0458C72.1416 59.9653 75.1666 52.6167 75.1666 44C75.1666 35.3222 72.1416 27.9583 66.0916 21.9083C60.0416 15.8583 52.6777 12.8333 43.9999 12.8333C35.3833 12.8333 28.0346 15.8583 21.9541 21.9083C15.8735 27.9583 12.8333 35.3222 12.8333 44C12.8333 52.6167 15.8735 59.9653 21.9541 66.0458C28.0346 72.1264 35.3833 75.1667 43.9999 75.1667Z" fill="#0FB600"/>
</svg>
