<svg width="32" height="32" viewBox="0 0 32 32" fill="none" xmlns="http://www.w3.org/2000/svg">
<circle cx="16" cy="16" r="16" fill="white"/>
<path d="M10.4453 8.44411V15.9997C10.444 16.1365 10.4007 16.2695 10.3212 16.3808C10.2417 16.4921 10.1298 16.5763 10.0009 16.6219C9.93014 16.6502 9.85482 16.6652 9.77865 16.6663H7.11198C6.93589 16.664 6.76765 16.5931 6.64312 16.4685C6.51859 16.344 6.44762 16.1758 6.44531 15.9997V8.44411C6.44458 7.93401 6.63965 7.44308 6.99029 7.0726C7.34093 6.70211 7.82039 6.48033 8.32976 6.453H8.44531C8.97421 6.453 9.48158 6.66249 9.8564 7.03564C10.2312 7.4088 10.443 7.91522 10.4453 8.44411Z" fill="#145638"/>
<path d="M23.779 11.5552V23.8041C23.7789 24.0732 23.7089 24.3377 23.576 24.5718C23.4431 24.8058 23.2518 25.0013 23.0207 25.1392C22.7896 25.2772 22.5267 25.3528 22.2576 25.3587C21.9886 25.3646 21.7226 25.3007 21.4856 25.173L21.2012 25.013C20.853 24.7613 20.4306 24.633 20.0012 24.6486C19.5651 24.6343 19.1366 24.7657 18.7834 25.0219C18.2186 25.3848 17.5614 25.5778 16.8901 25.5778C16.2187 25.5778 15.5615 25.3848 14.9967 25.0219C14.6404 24.773 14.2135 24.6452 13.779 24.6575C13.3471 24.6446 12.9228 24.7725 12.5701 25.0219L12.2945 25.1819C12.0576 25.3095 11.7916 25.3735 11.5225 25.3676C11.2535 25.3617 10.9906 25.2861 10.7595 25.1481C10.5284 25.0102 10.337 24.8147 10.2041 24.5807C10.0712 24.3466 10.0013 24.0821 10.0012 23.813V8.2219C10.002 7.76832 9.82942 7.33157 9.51875 7.00108C9.20809 6.67059 8.78285 6.47134 8.33008 6.44412H18.6679C20.0227 6.44647 21.3214 6.98572 22.2794 7.94373C23.2374 8.90174 23.7766 10.2004 23.779 11.5552Z" fill="#0FB600"/>
<path d="M20.0012 12.2219H13.779C13.6022 12.2219 13.4326 12.1517 13.3076 12.0267C13.1825 11.9016 13.1123 11.7321 13.1123 11.5552C13.1123 11.3784 13.1825 11.2089 13.3076 11.0838C13.4326 10.9588 13.6022 10.8886 13.779 10.8886H20.0012C20.178 10.8886 20.3476 10.9588 20.4726 11.0838C20.5976 11.2089 20.6679 11.3784 20.6679 11.5552C20.6679 11.7321 20.5976 11.9016 20.4726 12.0267C20.3476 12.1517 20.178 12.2219 20.0012 12.2219Z" fill="white"/>
<path d="M17.3345 19.333H13.779C13.6022 19.333 13.4326 19.2628 13.3076 19.1378C13.1825 19.0127 13.1123 18.8432 13.1123 18.6664C13.1123 18.4896 13.1825 18.32 13.3076 18.195C13.4326 18.0699 13.6022 17.9997 13.779 17.9997H17.3345C17.5113 17.9997 17.6809 18.0699 17.8059 18.195C17.931 18.32 18.0012 18.4896 18.0012 18.6664C18.0012 18.8432 17.931 19.0127 17.8059 19.1378C17.6809 19.2628 17.5113 19.333 17.3345 19.333Z" fill="white"/>
<path d="M20.0012 15.7775H13.779C13.6022 15.7775 13.4326 15.7072 13.3076 15.5822C13.1825 15.4572 13.1123 15.2876 13.1123 15.1108C13.1123 14.934 13.1825 14.7644 13.3076 14.6394C13.4326 14.5144 13.6022 14.4441 13.779 14.4441H20.0012C20.178 14.4441 20.3476 14.5144 20.4726 14.6394C20.5976 14.7644 20.6679 14.934 20.6679 15.1108C20.6679 15.2876 20.5976 15.4572 20.4726 15.5822C20.3476 15.7072 20.178 15.7775 20.0012 15.7775Z" fill="white"/>
</svg>
