<svg width="40" height="28" viewBox="0 0 40 28" fill="none" xmlns="http://www.w3.org/2000/svg">
<path fill-rule="evenodd" clip-rule="evenodd" d="M19.115 7.865C19.2311 7.74859 19.3691 7.65623 19.5209 7.59322C19.6728 7.5302 19.8356 7.49777 20 7.49777C20.1644 7.49777 20.3272 7.5302 20.4791 7.59322C20.6309 7.65623 20.7689 7.74859 20.885 7.865L25.885 12.865C26.0012 12.9812 26.0934 13.1192 26.1563 13.271C26.2192 13.4229 26.2516 13.5856 26.2516 13.75C26.2516 13.9144 26.2192 14.0771 26.1563 14.229C26.0934 14.3808 26.0012 14.5188 25.885 14.635C25.7688 14.7512 25.6308 14.8434 25.479 14.9063C25.3271 14.9692 25.1644 15.0016 25 15.0016C24.8356 15.0016 24.6729 14.9692 24.521 14.9063C24.3692 14.8434 24.2312 14.7512 24.115 14.635L21.25 11.7675V21.25C21.25 21.5815 21.1183 21.8995 20.8839 22.1339C20.6495 22.3683 20.3315 22.5 20 22.5C19.6685 22.5 19.3505 22.3683 19.1161 22.1339C18.8817 21.8995 18.75 21.5815 18.75 21.25V11.7675L15.885 14.635C15.6503 14.8697 15.3319 15.0016 15 15.0016C14.6681 15.0016 14.3497 14.8697 14.115 14.635C13.8803 14.4003 13.7484 14.0819 13.7484 13.75C13.7484 13.4181 13.8803 13.0997 14.115 12.865L19.115 7.865Z" fill="#3C76FF"/>
<path d="M11.015 3.355C13.5137 1.20034 16.7006 0.0103463 20 0C26.725 0 32.3075 5 32.915 11.4475C36.895 12.01 40 15.3425 40 19.4325C40 23.9225 36.255 27.5 31.7175 27.5H9.4525C4.27 27.5 0 23.415 0 18.295C0 13.8875 3.165 10.2375 7.355 9.3125C7.7125 7.155 9.1 5.005 11.015 3.355ZM12.6475 5.2475C10.755 6.88 9.765 8.8475 9.765 10.3875V11.5075L8.6525 11.63C5.16 12.0125 2.5 14.88 2.5 18.295C2.5 21.9625 5.575 25 9.4525 25H31.7175C34.95 25 37.5 22.47 37.5 19.4325C37.5 16.3925 34.95 13.8625 31.7175 13.8625H30.4675V12.6125C30.47 7.0625 25.82 2.5 20 2.5C17.2997 2.51079 14.6921 3.48358 12.6475 5.2475Z" fill="#3C76FF"/>
</svg>
