<?xml version="1.0" encoding="UTF-8"?>
<svg xmlns="http://www.w3.org/2000/svg" xmlns:xlink="http://www.w3.org/1999/xlink" width="107px" height="107px" viewBox="0 0 107 107" version="1.1">
<g id="surface1">
<path style=" stroke:none;fill-rule:nonzero;fill:rgb(0%,0%,0%);fill-opacity:1;" d="M 59.5625 107.210938 C 39.710938 107.210938 19.96875 107.210938 0.214844 107.210938 C 0.214844 71.554688 0.214844 35.902344 0.214844 0.230469 C 35.851562 0.230469 71.496094 0.230469 107.175781 0.230469 C 107.175781 35.875 107.175781 71.542969 107.175781 107.210938 C 91.351562 107.210938 75.507812 107.210938 59.5625 107.210938 M 12.15625 84.78125 C 14.445312 88.21875 17.359375 91.109375 20.507812 93.699219 C 24.203125 96.742188 28.257812 99.25 32.671875 101.207031 C 38.109375 103.617188 43.765625 105.101562 49.652344 105.484375 C 54.777344 105.820312 59.921875 105.617188 64.972656 104.480469 C 71.351562 103.050781 77.265625 100.484375 82.699219 96.886719 C 86.8125 94.164062 90.382812 90.78125 93.613281 87.050781 C 94.246094 86.320312 94.738281 85.46875 95.433594 84.613281 C 96.847656 82.40625 98.390625 80.265625 99.652344 77.96875 C 101.425781 74.734375 102.894531 71.328125 103.71875 67.722656 C 104.480469 64.402344 105.246094 61.027344 105.453125 57.640625 C 105.679688 53.972656 105.445312 50.246094 105.058594 46.582031 C 104.757812 43.753906 104.039062 40.945312 103.273438 38.195312 C 102.292969 34.664062 100.746094 31.351562 98.933594 28.15625 C 97.007812 24.75 94.777344 21.566406 92.121094 18.71875 C 90.339844 16.804688 88.375 15.050781 86.375 13.363281 C 82.828125 10.367188 78.855469 8.046875 74.613281 6.144531 C 69.257812 3.738281 63.644531 2.292969 57.832031 1.953125 C 53.847656 1.71875 49.800781 1.933594 45.828125 2.371094 C 42.199219 2.769531 38.671875 3.832031 35.226562 5.148438 C 31.5 6.574219 27.960938 8.363281 24.675781 10.585938 C 20.902344 13.136719 17.5 16.152344 14.5 19.628906 C 11.808594 22.75 9.5 26.105469 7.609375 29.742188 C 5.980469 32.863281 4.507812 36.082031 3.769531 39.550781 C 3.066406 42.851562 2.179688 46.160156 1.96875 49.503906 C 1.730469 53.242188 1.96875 57.042969 2.359375 60.777344 C 2.660156 63.640625 3.417969 66.472656 4.167969 69.265625 C 5.292969 73.4375 7.242188 77.277344 9.457031 80.96875 C 10.230469 82.257812 11.210938 83.425781 12.15625 84.78125 Z M 12.15625 84.78125 "/>
<path style=" stroke:none;fill-rule:nonzero;fill:rgb(90.196078%,92.54902%,100%);fill-opacity:1;" d="M 12.097656 84.648438 C 11.210938 83.425781 10.230469 82.257812 9.457031 80.96875 C 7.242188 77.277344 5.292969 73.4375 4.167969 69.265625 C 3.417969 66.472656 2.660156 63.640625 2.359375 60.777344 C 1.96875 57.042969 1.730469 53.242188 1.96875 49.503906 C 2.179688 46.160156 3.066406 42.851562 3.769531 39.550781 C 4.507812 36.082031 5.980469 32.863281 7.609375 29.742188 C 9.5 26.105469 11.808594 22.75 14.5 19.628906 C 17.5 16.152344 20.902344 13.136719 24.675781 10.585938 C 27.960938 8.363281 31.5 6.574219 35.226562 5.148438 C 38.671875 3.832031 42.199219 2.769531 45.828125 2.371094 C 49.800781 1.933594 53.847656 1.71875 57.832031 1.953125 C 63.644531 2.292969 69.257812 3.738281 74.613281 6.144531 C 78.855469 8.046875 82.828125 10.367188 86.375 13.363281 C 88.375 15.050781 90.339844 16.804688 92.121094 18.71875 C 94.777344 21.566406 97.007812 24.75 98.933594 28.15625 C 100.746094 31.351562 102.292969 34.664062 103.273438 38.195312 C 104.039062 40.945312 104.757812 43.753906 105.058594 46.582031 C 105.445312 50.246094 105.679688 53.972656 105.453125 57.640625 C 105.246094 61.027344 104.480469 64.402344 103.71875 67.722656 C 102.894531 71.328125 101.425781 74.734375 99.652344 77.96875 C 98.390625 80.265625 96.847656 82.40625 95.339844 84.574219 C 92.890625 81.371094 90.199219 78.511719 87.167969 75.980469 C 77.957031 68.292969 67.335938 64.195312 55.355469 63.773438 C 45.648438 63.433594 36.527344 65.714844 28.070312 70.507812 C 21.757812 74.089844 16.386719 78.761719 12.097656 84.648438 M 33.648438 36.6875 C 33.707031 37.621094 33.71875 38.566406 33.832031 39.492188 C 35.195312 50.507812 45.160156 58.238281 56.214844 56.871094 C 67.21875 55.511719 74.945312 45.554688 73.589844 34.480469 C 72.238281 23.484375 62.253906 15.738281 51.195312 17.109375 C 41.363281 18.328125 33.84375 26.632812 33.648438 36.6875 Z M 33.648438 36.6875 "/>
<path style=" stroke:none;fill-rule:nonzero;fill:rgb(25.882353%,58.039216%,100%);fill-opacity:1;" d="M 12.125 84.714844 C 16.386719 78.761719 21.757812 74.089844 28.070312 70.507812 C 36.527344 65.714844 45.648438 63.433594 55.355469 63.773438 C 67.335938 64.195312 77.957031 68.292969 87.167969 75.980469 C 90.199219 78.511719 92.890625 81.371094 95.273438 84.605469 C 94.738281 85.46875 94.246094 86.320312 93.613281 87.050781 C 90.382812 90.78125 86.8125 94.164062 82.699219 96.886719 C 77.265625 100.484375 71.351562 103.050781 64.972656 104.480469 C 59.921875 105.617188 54.777344 105.820312 49.652344 105.484375 C 43.765625 105.101562 38.109375 103.617188 32.671875 101.207031 C 28.257812 99.25 24.203125 96.742188 20.507812 93.699219 C 17.359375 91.109375 14.445312 88.21875 12.125 84.714844 Z M 12.125 84.714844 "/>
<path style=" stroke:none;fill-rule:nonzero;fill:rgb(25.882353%,58.039216%,100%);fill-opacity:1;" d="M 33.648438 36.585938 C 33.84375 26.632812 41.363281 18.328125 51.195312 17.109375 C 62.253906 15.738281 72.238281 23.484375 73.589844 34.480469 C 74.945312 45.554688 67.21875 55.511719 56.214844 56.871094 C 45.160156 58.238281 35.195312 50.507812 33.832031 39.492188 C 33.71875 38.566406 33.707031 37.621094 33.648438 36.585938 Z M 33.648438 36.585938 "/>
</g>
</svg>
