<svg width="16" height="16" viewBox="0 0 16 16" fill="none" xmlns="http://www.w3.org/2000/svg">
<g id="Frame 1000007173">
<path id="Union" fill-rule="evenodd" clip-rule="evenodd" d="M12.5002 2.74809H12.5V7.99797V7.99812H13.25C13.6642 7.99812 14 8.3339 14 8.7481H14V11.748H13.25V8.7481H12.5002C12.5002 9.16231 12.1645 9.49809 11.7503 9.49809H4.25044C3.83623 9.49809 3.50045 9.16231 3.50045 8.7481H2.74998V11.748H2V8.7481C2 8.3339 2.33578 7.99812 2.74998 7.99812H3.50045V7.99797V2.74809C3.50045 2.33389 3.83623 1.99811 4.25044 1.99811H11.7503C12.1645 1.99811 12.5002 2.33389 12.5002 2.74809ZM11.75 2.74809V7.99812V8.74795V8.7481H4.24995V8.74795H4.25044V2.74809H11.75ZM3.49953 13.2481H12.5V12.4981H13.25V13.2481C13.25 13.6551 12.9257 13.9864 12.5214 13.9978C12.5141 13.998 12.5067 13.9981 12.4993 13.9981H3.49953C3.18888 13.9981 2.92234 13.8092 2.80849 13.54C2.77054 13.4503 2.74955 13.3517 2.74955 13.2481V13.2481V12.4981H3.49953V13.2481ZM10.25 10.6231C10.25 10.416 10.4179 10.2481 10.625 10.2481H12.125C12.3321 10.2481 12.5 10.416 12.5 10.6231C12.5 10.8302 12.3321 10.9981 12.125 10.9981H10.625C10.4179 10.9981 10.25 10.8302 10.25 10.6231ZM3.87545 10.2481C3.66834 10.2481 3.50045 10.416 3.50045 10.6231C3.50045 10.8302 3.66834 10.9981 3.87545 10.9981C4.08255 10.9981 4.25044 10.8302 4.25044 10.6231C4.25044 10.416 4.08255 10.2481 3.87545 10.2481ZM2 11.7481H13.9997C13.9997 12.1623 13.6639 12.4981 13.2497 12.4981H2.74998C2.33578 12.4981 2 12.1623 2 11.7481ZM7.88756 3.34948C7.93154 3.34381 7.97621 3.35079 8.01636 3.36959C8.05652 3.38839 8.09048 3.41824 8.11428 3.45565C8.13807 3.49306 8.15072 3.53647 8.15074 3.58081V3.92478C8.56214 3.95361 8.95775 4.10031 9.28949 4.34885C9.66138 4.62747 9.93299 5.01908 10.0636 5.46502C10.1943 5.91096 10.1769 6.38722 10.0142 6.82247C9.85142 7.25772 9.55204 7.62852 9.16086 7.87934C8.76968 8.13016 8.30777 8.24748 7.84431 8.21375C7.38085 8.18001 6.9408 7.99702 6.59007 7.6922C6.23934 7.38737 5.99681 6.97712 5.89881 6.52289C5.80081 6.06866 5.85261 5.5949 6.04646 5.17258L6.04902 5.16702C6.08613 5.09417 6.15009 5.03855 6.22731 5.0117C6.30453 4.98486 6.38915 4.98892 6.46345 5.02304C6.53775 5.05716 6.59597 5.1187 6.62593 5.19477C6.65589 5.27084 6.65526 5.35555 6.62418 5.43117L6.62188 5.43678C6.48512 5.73468 6.44845 6.06882 6.51756 6.38924C6.58667 6.70966 6.75773 6.99906 7.00512 7.2141C7.25251 7.42915 7.56291 7.55826 7.88983 7.58209C8.21675 7.60592 8.54259 7.5232 8.81855 7.3463C9.09451 7.16941 9.30574 6.90788 9.42059 6.60087C9.53544 6.29386 9.54773 5.9579 9.45563 5.64332C9.36353 5.32874 9.17198 5.05246 8.90969 4.85587C8.68763 4.68944 8.42499 4.58771 8.15074 4.56034V4.8915C8.15072 4.93583 8.13807 4.9793 8.11428 5.01671C8.09048 5.05412 8.05652 5.08397 8.01636 5.10277C7.97621 5.12158 7.93154 5.12855 7.88757 5.12288C7.84359 5.11721 7.80215 5.09912 7.76808 5.07075L6.98142 4.41543C6.95517 4.39353 6.93398 4.36608 6.91948 4.33511C6.90499 4.30415 6.89747 4.27037 6.89747 4.23618C6.89747 4.20199 6.90499 4.16822 6.91948 4.13725C6.93398 4.10628 6.95511 4.07888 6.98137 4.05698L7.76807 3.40162C7.80214 3.37324 7.84359 3.35515 7.88756 3.34948Z" fill="#3C76FF"/>
</g>
</svg>
