<svg width="17" height="16" viewBox="0 0 17 16" fill="none" xmlns="http://www.w3.org/2000/svg">
<g id="Frame 1000007002">
<path id="Union" fill-rule="evenodd" clip-rule="evenodd" d="M13.055 3L2.3173 3C1.55002 3 0.927978 3.6384 0.927978 4.42598L0.927978 12.574C0.927978 13.3616 1.55002 14 2.3173 14L13.055 14C13.3222 14.0001 13.5764 13.8817 13.7524 13.6753L16.589 9.12594C16.8928 8.76683 16.8928 8.23317 16.589 7.87406L13.7524 3.32466C13.5764 3.11829 13.3222 2.99989 13.055 3ZM15.8916 8.50006L13.055 13.0493L2.3173 13.0493C2.0615 13.0493 1.85415 12.8365 1.85415 12.574L1.85415 4.42598C1.85415 4.16346 2.0615 3.95066 2.3173 3.95066L13.055 3.95066L15.8916 8.50006ZM8.76143 5.74511C8.76143 5.46897 8.53757 5.24511 8.26143 5.24511C7.98529 5.24511 7.76143 5.46897 7.76143 5.74511L7.76143 8.81578L6.78165 7.836C6.58639 7.64074 6.2698 7.64074 6.07454 7.836C5.87928 8.03127 5.87928 8.34785 6.07454 8.54311L7.90787 10.3764C8.10314 10.5717 8.41972 10.5717 8.61498 10.3764L10.4483 8.54311C10.6436 8.34785 10.6436 8.03127 10.4483 7.836C10.2531 7.64074 9.93647 7.64074 9.74121 7.836L8.76143 8.81578L8.76143 5.74511ZM5.51143 10.7451C5.23529 10.7451 5.01143 10.969 5.01143 11.2451C5.01143 11.5213 5.23529 11.7451 5.51143 11.7451L11.0114 11.7451C11.2876 11.7451 11.5114 11.5213 11.5114 11.2451C11.5114 10.969 11.2876 10.7451 11.0114 10.7451L5.51143 10.7451Z" fill="#3C76FF"/>
</g>
</svg>
