<svg width="16" height="16" viewBox="0 0 16 16" fill="none" xmlns="http://www.w3.org/2000/svg">
<rect width="16" height="16" rx="8" fill="white"/>
<path d="M2.44723 11.4998C2.14908 11.4998 2 11.3553 2 11.0662V4.93362C2 4.64454 2.14908 4.5 2.44723 4.5H6.26999C6.56815 4.5 6.71722 4.64454 6.71722 4.93362C6.71722 5.22269 6.56815 5.36723 6.26999 5.36723H2.89446V7.53532H5.01349C5.31164 7.53532 5.46072 7.67986 5.46072 7.96893C5.46072 8.25801 5.31164 8.40255 5.01349 8.40255H2.89446V10.6326H6.26999C6.56815 10.6326 6.71722 10.7771 6.71722 11.0662C6.71722 11.3553 6.56815 11.4998 6.26999 11.4998H2.44723Z" fill="#002050"/>
<path d="M10.337 11.5C9.52413 11.5 8.9225 11.3124 8.53206 10.9373C8.14517 10.5588 7.95172 9.97546 7.95172 9.18738V6.80248C7.95172 6.00752 8.14694 5.4242 8.53738 5.05253C8.92782 4.67742 9.52768 4.4933 10.337 4.50019H11.6148C12.4311 4.50019 13.0328 4.68774 13.4197 5.06286C13.8065 5.43797 14 6.02129 14 6.81281V9.18738C14 9.97546 13.8065 10.5588 13.4197 10.9373C13.0328 11.3124 12.4311 11.5 11.6148 11.5H10.337ZM10.337 10.6328H11.6148C11.9945 10.6328 12.2927 10.5897 12.5092 10.5037C12.7257 10.4142 12.8784 10.2645 12.9671 10.0546C13.0594 9.84469 13.1055 9.55561 13.1055 9.18738V6.81281C13.1055 6.44802 13.0594 6.16066 12.9671 5.95074C12.8784 5.74081 12.7257 5.59111 12.5092 5.50163C12.2927 5.41216 11.9945 5.36742 11.6148 5.36742H10.337C9.96071 5.36398 9.66433 5.40528 9.44782 5.49131C9.2313 5.57735 9.0769 5.72533 8.98461 5.93525C8.89233 6.14518 8.84618 6.43425 8.84618 6.80248V9.18738C8.84618 9.55561 8.89055 9.84469 8.97929 10.0546C9.07157 10.2645 9.22597 10.4142 9.44249 10.5037C9.65901 10.5897 9.95716 10.6328 10.337 10.6328Z" fill="#002050"/>
</svg>
