<?xml version="1.0" standalone="no"?>
<!DOCTYPE svg PUBLIC "-//W3C//DTD SVG 1.1//EN" "http://www.w3.org/Graphics/SVG/1.1/DTD/svg11.dtd" >
<svg xmlns="http://www.w3.org/2000/svg">
<metadata>Generated by IcoMoon</metadata>
<defs>
<font id="icomoon" horiz-adv-x="1024">
<font-face units-per-em="1024" ascent="960" descent="-64" />
<missing-glyph horiz-adv-x="1024" />
<glyph unicode="&#x20;" horiz-adv-x="512" d="" />
<glyph unicode="&#xe900;" glyph-name="reload1" d="M6.024 616.659c17.067 100.392 65.004 182.714 143.812 246.965s169.412 96.376 271.812 96.376c65.254 0 126.243-15.059 182.964-45.176 56.719-30.118 106.166-70.776 148.329-121.976v167.153h90.355v-343.341h-343.343v90.353h201.788c-32.128 48.188-72.533 87.341-121.223 117.459s-101.647 45.177-158.87 45.177c-77.302 0-146.322-23.341-207.059-70.024s-99.639-107.671-116.706-182.965h-91.859zM959.245-64l-277.082 277.082c-37.146-31.123-77.802-54.714-121.975-70.778s-90.353-24.090-138.541-24.090c-65.255 0-126.746 13.549-184.471 40.659-57.725 27.104-106.666 66.253-146.824 117.453v-159.622h-90.353v343.343h343.341v-90.353h-209.318c33.129-48.188 74.792-87.089 124.988-116.708 50.196-29.613 104.408-44.422 162.636-44.422 75.294 0 142.305 23.597 201.035 70.778 58.732 47.185 97.631 107.42 116.703 180.707h91.859c-5.018-34.134-14.803-66.51-29.363-97.13-14.554-30.62-32.877-58.982-54.963-85.081l277.082-277.082-64.755-64.755z" />
<glyph unicode="&#xe901;" glyph-name="products" d="M522.203 829.737c-6.549 2.638-13.858 2.638-20.407 0l-327.387-131.576 131.877-52.972 337.591 135.655-121.673 48.893zM717.714 751.133l-337.591-135.655 131.877-52.972 337.591 135.655-131.877 52.972zM896 657.426l-356.571-143.317v-436.68l356.571 143.323v436.673zM484.571 77.378v436.786l-356.571 143.262v-436.732l356.571-143.316zM481.445 880.945c19.615 7.883 41.496 7.883 61.111 0l391.077-157.207c5.083-2.048 9.443-5.578 12.515-10.137 3.065-4.558 4.71-9.936 4.71-15.44v-477.467c-0.007-11.015-3.299-21.775-9.45-30.888-6.151-9.121-14.877-16.179-25.059-20.268l-394.145-158.42c-6.549-2.633-13.858-2.633-20.407 0l-394.094 158.42c-10.19 4.081-18.929 11.132-25.089 20.253s-9.46 19.88-9.471 30.903v477.467c0.001 5.504 1.643 10.881 4.713 15.44s7.428 8.089 12.513 10.137l391.077 157.207z" />
<glyph unicode="&#xe902;" glyph-name="purchasing" horiz-adv-x="1109" d="M526.188 960c-282.743 0-512-229.257-512-512s229.257-512 512-512c282.743 0 512.003 229.257 512.003 512s-229.261 512-512.003 512zM526.188 22.861c-234.743 0-425.143 190.397-425.143 425.139s190.4 425.143 425.143 425.143c234.743 0 425.143-190.4 425.143-425.143s-190.4-425.139-425.143-425.139zM580.702 474.514l-29.029 6.743v153.486c43.429-5.943 70.286-33.143 74.857-66.514 0.572-4.571 4.457-7.886 9.029-7.886h51.314c5.371 0 9.6 4.686 9.143 10.057-6.972 71.2-65.6 116.914-143.886 124.8v37.372c0 5.029-4.115 9.143-9.143 9.143h-32.113c-5.029 0-9.143-4.114-9.143-9.143v-37.714c-80.914-7.886-144.229-52.571-144.229-136 0-77.257 56.915-114.515 116.686-128.8l28.229-7.2v-163.086c-50.515 6.742-78.857 33.714-84.686 70.057-0.686 4.343-4.571 7.543-9.029 7.543h-52.8c-5.371 0-9.6-4.571-9.143-9.943 5.143-62.857 52.8-120.685 154.515-128.114v-35.885c0-5.029 4.114-9.143 9.143-9.143h32.457c5.028 0 9.143 4.114 9.143 9.257l-0.229 36.228c89.486 7.886 153.486 55.771 153.486 141.715-0.114 79.314-50.514 114.743-124.571 133.028zM502.302 493.029c-6.4 1.829-11.772 3.543-17.143 5.714-38.629 13.943-56.572 36.457-56.572 65.486 0 41.486 31.428 65.143 73.714 70.514v-141.714zM551.673 259.429v152.8c3.543-1.028 6.743-1.829 10.057-2.514 54.057-16.457 72.229-39.314 72.229-74.4 0-44.686-33.6-71.543-82.286-75.885z" />
<glyph unicode="&#xe903;" glyph-name="orders" d="M944.29 269.706h-623.089l31.286 64.421 519.817 0.952c17.579 0 32.649 12.693 35.789 30.253l71.987 407.362c1.886 10.684-0.947 21.685-7.851 30.042-3.413 4.113-7.671 7.426-12.476 9.709s-10.044 3.482-15.351 3.513l-661.286 2.221-5.651 26.869c-3.558 17.137-18.834 29.618-36.203 29.618h-161.659c-9.796 0-19.191-3.934-26.117-10.937s-10.818-16.5-10.818-26.404c0-9.903 3.891-19.401 10.818-26.403s16.321-10.937 26.117-10.937h131.733l24.694-118.686 60.791-297.562-78.265-129.158c-4.064-5.546-6.513-12.131-7.067-19.011s0.806-13.779 3.928-19.917c6.278-12.588 18.939-20.522 32.96-20.522h65.709c-14.008-18.81-21.575-41.721-21.554-65.266 0-59.874 48.131-108.531 107.354-108.531s107.354 48.657 107.354 108.531c0 23.589-7.743 46.543-21.554 65.266h168.564c-14.008-18.81-21.575-41.721-21.554-65.266 0-59.874 48.131-108.531 107.354-108.531s107.354 48.657 107.354 108.531c0 23.589-7.743 46.543-21.554 65.266h118.553c20.292 0 36.932 16.713 36.932 37.341-0.060 9.893-3.994 19.36-10.931 26.336s-16.324 10.894-26.112 10.899zM298.495 744.556l602.48-2.010-59.013-334.056-473.257-0.846-70.21 336.911zM399.886 96.435c-18.207 0-33.065 15.024-33.065 33.429s14.858 33.427 33.065 33.427c18.206 0 33.064-15.021 33.064-33.427 0-8.865-3.484-17.368-9.684-23.633-6.201-6.272-14.611-9.796-23.38-9.796zM740.048 96.435c-18.206 0-33.064 15.024-33.064 33.429s14.858 33.427 33.064 33.427c18.207 0 33.065-15.021 33.065-33.427 0-8.865-3.484-17.368-9.684-23.633-6.201-6.272-14.611-9.796-23.38-9.796z" />
<glyph unicode="&#xe904;" glyph-name="bell" horiz-adv-x="731" d="M696.599 169.362h-26.122v370.066c0 153.578-113.524 280.49-261.225 301.605v42.34c0 24.054-19.483 43.537-43.538 43.537s-43.538-19.483-43.538-43.537v-42.34c-147.7-21.116-261.224-148.027-261.224-301.605v-370.066h-26.122c-19.265 0-34.83-15.565-34.83-34.831v-34.831c0-4.791 3.918-8.711 8.708-8.711h235.102c0-67.262 54.64-121.9 121.905-121.9s121.905 54.638 121.905 121.9h235.102c4.789 0 8.708 3.92 8.708 8.711v34.831c0 19.266-15.565 34.831-34.83 34.831zM365.714 38.751c-28.844 0-52.245 23.398-52.245 52.239h104.49c0-28.84-23.401-52.239-52.245-52.239zM139.32 169.362v370.066c0 60.517 23.51 117.334 66.286 160.109s99.592 66.286 160.109 66.286c60.517 0 117.334-23.51 160.109-66.286s66.286-99.592 66.286-160.109v-370.066h-452.789z" />
<glyph unicode="&#xe905;" glyph-name="question" d="M512.003 935.619c-269.279 0-487.619-218.34-487.619-487.619 0-269.275 218.34-487.621 487.619-487.621s487.619 218.346 487.619 487.621c0 269.279-218.339 487.619-487.619 487.619zM512.003 43.103c-223.565 0-404.898 181.336-404.898 404.897 0 223.565 181.333 404.898 404.898 404.898s404.901-181.333 404.901-404.898c0-223.561-181.336-404.897-404.901-404.897zM633.476 660.571c-32.653 28.626-75.756 44.299-121.47 44.299s-88.816-15.782-121.469-44.299c-33.959-29.714-52.68-69.66-52.68-112.435v-8.272c0-4.789 3.918-8.708 8.708-8.708h52.244c4.789 0 8.708 3.918 8.708 8.708v8.272c0 48 46.912 87.074 104.49 87.074s104.49-39.074 104.49-87.074c0-33.851-23.946-64.871-61.061-79.13-23.074-8.816-42.666-24.272-56.707-44.517-14.259-20.68-21.661-45.496-21.661-70.639v-23.401c0-4.789 3.919-8.708 8.708-8.708h52.245c4.789 0 8.708 3.918 8.708 8.708v24.707c0.056 10.567 3.295 20.871 9.294 29.569s14.481 15.387 24.338 19.193c64.217 24.708 105.687 81.306 105.687 144.218 0.109 42.775-18.613 82.721-52.571 112.435zM468.47 208.545c0-11.549 4.587-22.623 12.752-30.786s19.239-12.749 30.785-12.749c11.547 0 22.621 4.586 30.786 12.749s12.752 19.237 12.752 30.786c0 11.549-4.587 22.62-12.752 30.785s-19.239 12.752-30.786 12.752c-11.546 0-22.621-4.587-30.785-12.752s-12.752-19.236-12.752-30.785z" />
<glyph unicode="&#xe906;" glyph-name="jobs" horiz-adv-x="1103" d="M113.26-64c-21.005 0-39.385 7.877-55.139 23.631s-23.631 34.131-23.631 55.138v630.153c0 21.005 7.877 39.385 23.631 55.138s34.133 23.631 55.139 23.631h236.308v131.282c0 21.005 7.877 39.384 23.631 55.138s34.133 23.631 55.138 23.631h262.564c21.005 0 39.385-7.877 55.138-23.631s23.631-34.134 23.631-55.138v-131.282h236.308c21.008 0 39.385-7.877 55.138-23.631s23.631-34.133 23.631-55.138v-630.153c0-21.008-7.877-39.385-23.631-55.138s-34.131-23.631-55.138-23.631h-892.718zM113.26 14.769h892.718v630.153h-892.718v-630.153zM428.337 723.692h262.564v131.282h-262.564v-131.282z" />
<glyph unicode="&#xe907;" glyph-name="users" horiz-adv-x="1365" d="M62.969-7.108v133.686c0 33.185 8.533 63.289 25.6 90.311s40.77 47.171 71.111 60.445c69.215 30.34 131.556 52.148 187.023 65.422s112.592 19.912 171.377 19.912c58.785 0 115.674-6.637 170.667-19.912s117.096-35.081 186.313-65.422c30.336-13.274 54.281-33.423 71.817-60.445 17.545-27.022 26.317-57.126 26.317-90.311v-133.686h-910.224zM1058.526-7.108v133.686c0 59.733-15.172 108.8-45.517 147.2-30.336 38.4-70.161 69.452-119.467 93.156 65.425-7.585 127.053-18.726 184.892-33.423s104.772-31.526 140.8-50.489c31.292-18.015 55.945-40.296 73.958-66.844s27.017-56.415 27.017-89.6v-133.686h-261.683zM518.080 449.422c-62.578 0-113.777 19.912-153.6 59.733s-59.733 91.023-59.733 153.6c0 62.578 19.911 113.778 59.733 153.6s91.022 59.734 153.6 59.734c62.577 0 113.777-19.911 153.6-59.734s59.733-91.022 59.733-153.6c0-62.577-19.912-113.777-59.733-153.6s-91.023-59.733-153.6-59.733zM1030.076 662.755c0-62.577-19.908-113.777-59.733-153.6-39.817-39.822-91.017-59.733-153.596-59.733-10.429 0-22.045 0.712-34.844 2.133s-24.416 4.029-34.845 7.823c22.756 23.704 40.060 52.859 51.912 87.467s17.777 73.244 17.777 115.911c0 42.667-5.926 80.356-17.777 113.067s-29.156 62.815-51.912 90.312c10.429 2.844 22.045 5.215 34.845 7.111s24.415 2.844 34.844 2.844c62.579 0 113.779-19.911 153.596-59.734 39.825-39.822 59.733-91.022 59.733-153.6zM148.303 78.225h739.557v48.352c0 15.171-4.506 29.867-13.517 44.089-9.003 14.222-20.147 24.177-33.418 29.867-68.267 30.34-125.629 50.726-172.088 61.155s-96.712 15.645-150.756 15.645c-54.044 0-104.533-5.215-151.467-15.645s-104.533-30.815-172.8-61.155c-13.274-5.689-24.177-15.645-32.711-29.867s-12.8-28.919-12.8-44.089v-48.352zM518.080 534.755c36.977 0 67.556 12.089 91.733 36.267s36.267 54.756 36.267 91.733c0 36.978-12.089 67.556-36.267 91.733s-54.756 36.267-91.733 36.267c-36.977 0-67.556-12.088-91.733-36.267s-36.267-54.755-36.267-91.733c0-36.977 12.089-67.555 36.267-91.733s54.756-36.267 91.733-36.267z" />
<glyph unicode="&#xe908;" glyph-name="archived" d="M85.333-64c-22.756 0-42.667 8.533-59.733 25.6s-25.6 36.975-25.6 59.733v743.823c0 14.222 1.422 26.311 4.267 36.267s8.059 19.2 15.644 27.733l79.645 108.089c7.585 8.533 16.355 14.459 26.311 17.778s21.753 4.978 35.394 4.978h701.477c13.645 0 25.207-1.659 34.688-4.978s18.014-9.244 25.6-17.778l81.067-108.089c7.586-8.533 12.8-17.778 15.642-27.733s4.267-22.045 4.267-36.267v-743.823c0-22.758-8.533-42.667-25.6-59.733s-36.975-25.6-59.733-25.6h-853.333zM109.511 809.244h803.556l-51.78 65.423h-700.576l-51.2-65.423zM85.333 723.911v-702.577h853.333v702.577h-853.333zM512 149.333l221.867 221.867-56.889 56.889-122.311-122.312v285.867h-85.333v-285.867l-122.311 122.312-56.889-56.889 221.867-221.867z" />
<glyph unicode="&#xe909;" glyph-name="left-arrow" horiz-adv-x="1126" d="M0 448c0 19.396 6.742 37.997 18.742 51.711s28.276 21.419 45.247 21.419h792.641l-274.767 313.872c-5.949 6.799-10.669 14.872-13.889 23.755s-4.876 18.405-4.876 28.021c0 9.616 1.657 19.137 4.876 28.021s7.939 16.956 13.889 23.755c5.949 6.799 13.012 12.193 20.785 15.873s16.105 5.574 24.519 5.574c8.414 0 16.745-1.894 24.519-5.574s14.836-9.073 20.785-15.873l383.929-438.778c5.96-6.793 10.691-14.862 13.916-23.748 3.226-8.884 4.884-18.408 4.884-28.028s-1.659-19.144-4.884-28.028c-3.226-8.885-7.956-16.954-13.916-23.748l-383.929-438.778c-12.016-13.732-28.312-21.447-45.304-21.447s-33.288 7.715-45.304 21.447c-12.016 13.732-18.765 32.355-18.765 51.775s6.749 38.044 18.765 51.775l274.767 313.872h-792.641c-16.971 0-33.247 7.705-45.247 21.42s-18.742 32.314-18.742 51.71z" />
<glyph unicode="&#xe90a;" glyph-name="lock" horiz-adv-x="939" d="M708.18 173.84c22.227 0 41.119 7.638 56.676 22.915 15.559 15.277 23.338 33.828 23.338 55.652s-7.779 40.157-23.338 54.997c-15.557 14.841-34.449 22.261-56.676 22.261-21.894 0-40.504-7.558-55.83-22.674s-22.989-33.472-22.989-55.066c0-21.595 7.663-40.008 22.989-55.239s33.936-22.846 55.83-22.846zM707.924 18.014c26.443 0 51.209 6.050 74.298 18.159s41.798 28.706 56.129 49.792c-20.7 10.94-41.798 19.729-63.294 26.365-21.496 6.639-43.789 9.959-66.877 9.959s-45.38-3.32-66.877-9.959c-21.496-6.636-42.594-15.425-63.294-26.365 14.331-21.086 32.955-37.683 55.873-49.792s47.598-18.159 74.043-18.159zM226.904 624.916h310.501v108.96c0 44.522-14.928 81.624-44.784 111.305s-66.678 44.522-110.467 44.522c-43.789 0-80.611-14.841-110.467-44.522s-44.784-66.783-44.784-111.305v-108.96zM474.11-24.166h-402.456c-18.312 0-34.832 7.228-49.561 21.675-14.729 14.455-22.093 30.66-22.093 48.623v508.487c0 17.964 7.364 34.173 22.093 48.622s31.249 21.676 49.561 21.676h83.596v108.96c0 63.268 21.894 116.773 65.683 160.513s97.529 65.611 161.221 65.611c63.693 0 117.433-21.87 161.221-65.611s65.683-97.245 65.683-160.513v-108.96h83.597c18.312 0 34.831-7.225 49.561-21.676s22.093-30.658 22.093-48.622v-101.932c-10.35 2.343-21.098 3.906-32.244 4.687s-24.282 1.172-39.409 1.172v96.073h-621.001v-508.487h359.464c5.573-13.278 11.545-25.19 17.914-35.729 6.369-10.547 14.729-22.067 25.079-34.569zM708.18-64c-62.896 0-117.035 22.263-162.416 66.782s-68.071 97.638-68.071 159.342c0 61.705 22.691 114.819 68.071 159.34s99.52 66.783 162.416 66.783c62.897 0 117.035-22.261 162.417-66.783 45.38-44.522 68.070-97.635 68.070-159.34 0-61.704-22.69-114.824-68.070-159.342-45.382-44.518-99.52-66.782-162.417-66.782z" />
<glyph unicode="&#xe90b;" glyph-name="Save" d="M947.776 697.942l-185.83 185.828c-8.57 8.572-19.085 14.857-30.515 18.286v3.086h-639.999c-20.229 0-36.572-16.343-36.572-36.572v-841.14c0-20.23 16.343-36.576 36.572-36.576h841.145c20.224 0 36.57 16.346 36.57 36.576v618.855c0 19.428-7.661 37.943-21.37 51.657zM365.716 822.857h292.568v-118.857h-292.568v118.857zM886.861 73.146h-749.716v749.711h155.428v-155.428c0-20.228 16.343-36.572 36.572-36.572h365.716c20.224 0 36.57 16.343 36.57 36.572v130.514l155.43-155.428v-569.368zM512.003 528c-90.858 0-164.572-73.715-164.572-164.572 0-90.859 73.714-164.574 164.572-164.574s164.573 73.715 164.573 164.574c0 90.857-73.716 164.572-164.573 164.572zM512.003 272c-50.515 0-91.429 40.915-91.429 91.428s40.915 91.428 91.429 91.428c50.514 0 91.428-40.915 91.428-91.428s-40.915-91.428-91.428-91.428z" />
<glyph unicode="&#xe90c;" glyph-name="left" horiz-adv-x="1229" d="M1228.8 448c0-19.396-7.7-37.997-21.422-51.711-13.711-13.714-32.317-21.419-51.712-21.419h-905.87l314.019-313.872c6.799-6.799 12.193-14.872 15.872-23.755s5.574-18.405 5.574-28.021-1.893-19.138-5.574-28.021c-3.679-8.884-9.073-16.955-15.872-23.755s-14.872-12.193-23.755-15.873c-8.884-3.68-18.405-5.574-28.021-5.574s-19.138 1.893-28.022 5.574c-8.883 3.68-16.955 9.074-23.755 15.873l-438.778 438.778c-6.81 6.793-12.214 14.862-15.9 23.748-3.687 8.884-5.584 18.408-5.584 28.028s1.898 19.144 5.584 28.028c3.687 8.885 9.090 16.954 15.9 23.748l438.778 438.778c13.732 13.732 32.356 21.446 51.777 21.446 19.419 0 38.044-7.714 51.775-21.446s21.446-32.356 21.446-51.776c0-19.42-7.714-38.044-21.446-51.776l-314.019-313.872h905.87c19.395 0 38.001-7.705 51.712-21.42 13.722-13.714 21.422-32.314 21.422-51.71z" />
<glyph unicode="&#xe90d;" glyph-name="archive-up" d="M85.333-64c-22.756 0-42.667 8.533-59.733 25.6s-25.6 36.975-25.6 59.733v743.823c0 14.222 1.422 26.311 4.267 36.267s8.059 19.2 15.644 27.733l79.645 108.089c7.585 8.533 16.355 14.459 26.311 17.778s21.753 4.978 35.394 4.978h701.477c13.645 0 25.207-1.659 34.688-4.978s18.014-9.244 25.6-17.778l81.067-108.089c7.586-8.533 12.8-17.778 15.642-27.733s4.267-22.045 4.267-36.267v-743.823c0-22.758-8.533-42.667-25.6-59.733s-36.975-25.6-59.733-25.6h-853.333zM109.511 809.244h803.556l-51.78 65.423h-700.576l-51.2-65.423zM85.333 723.911v-702.577h853.333v702.577h-853.333zM469.333 149.333h85.333v285.867l122.311-122.311 56.889 56.888-221.867 221.867-221.867-221.867 56.889-56.888 122.311 122.311v-285.867z" />
<glyph unicode="&#xe90e;" glyph-name="edit" d="M956.101 827.248c5.9-5.975 9.208-14.067 9.208-22.504s-3.308-16.528-9.208-22.503l-65.82-66.554-126.211 127.497 65.819 66.553c5.916 5.976 13.942 9.332 22.307 9.332s16.392-3.357 22.307-9.332l81.597-82.491zM845.666 670.681l-126.213 127.497-429.946-434.382c-3.474-3.508-6.088-7.786-7.636-12.495l-50.801-153.889c-0.922-2.806-1.052-5.815-0.378-8.691s2.127-5.507 4.196-7.597c2.069-2.091 4.673-3.558 7.52-4.239s5.826-0.549 8.603 0.382l152.34 51.317c4.655 1.545 8.89 4.165 12.369 7.65l429.945 434.447zM40.93 90.317c0-25.364 9.973-49.688 27.725-67.616 17.752-17.936 41.829-28.010 66.935-28.010h694.173c25.104 0 49.184 10.075 66.938 28.010 17.747 17.928 27.727 42.252 27.727 67.616v382.488c0 8.454-3.332 16.561-9.248 22.539s-13.942 9.336-22.307 9.336c-8.373 0-16.4-3.359-22.315-9.336s-9.24-14.086-9.24-22.539v-382.488c0-8.46-3.324-16.565-9.24-22.544-5.923-5.979-13.942-9.334-22.315-9.334h-694.173c-8.368 0-16.394 3.356-22.311 9.334s-9.242 14.084-9.242 22.544v701.232c0 8.454 3.325 16.56 9.242 22.538s13.943 9.336 22.311 9.336h410.194c8.368 0 16.394 3.358 22.311 9.336s9.242 14.085 9.242 22.539c0 8.454-3.325 16.56-9.242 22.538s-13.943 9.336-22.311 9.336h-410.194c-25.105 0-49.183-10.075-66.935-28.007s-27.725-42.255-27.725-67.616v-701.232z" />
<glyph unicode="&#xe90f;" glyph-name="update-profile" d="M554.667 59.731c-49.067 0-96.711 9.248-142.933 27.738s-86.4 43.731-120.534 75.731l45.867 45.869c28.445-26.31 61.689-47.11 99.733-62.4s77.334-22.938 117.867-22.938c88.892 0 165.154 31.827 228.802 95.469 63.642 63.642 95.462 139.911 95.462 228.8s-31.821 165.155-95.462 228.8c-63.648 63.644-139.91 95.467-228.802 95.467-88.889 0-165.155-31.823-228.8-95.467s-95.467-139.911-95.467-228.8v-19.2l74.667 74.667 44.8-44.8-151.467-151.467-151.466 151.467 44.8 44.8 74.666-74.667v19.2c0 54.044 10.134 104.533 30.4 151.467s48 88 83.2 123.2c35.2 35.2 76.267 62.933 123.2 83.2s97.423 30.4 151.467 30.4c54.045 0 104.533-10.134 151.464-30.4 46.938-20.267 88-48 123.2-83.2s62.938-76.267 83.2-123.2c20.269-46.934 30.4-97.423 30.4-151.467 0-108.089-37.69-199.821-113.062-275.2-75.379-75.379-167.11-113.069-275.202-113.069zM469.334 282.669c-9.956 0-18.667 3.731-26.134 11.2-7.466 7.462-11.2 16.173-11.2 26.131v128c0 9.955 4.089 18.667 12.267 26.133s18.311 11.2 30.4 11.2v48c0 22.045 7.822 40.889 23.467 56.534s34.489 23.466 56.533 23.466c22.045 0 40.889-7.822 56.533-23.466s23.467-34.489 23.467-56.534v-48c12.092 0 22.223-3.733 30.402-11.2 8.173-7.466 12.262-16.178 12.262-26.133v-128c0-9.958-3.731-18.669-11.2-26.131-7.462-7.469-16.173-11.2-26.131-11.2h-170.666zM506.667 485.333h96v48c0 13.511-4.622 24.889-13.867 34.134s-20.622 13.866-34.133 13.866c-13.511 0-24.889-4.622-34.133-13.866s-13.867-20.623-13.867-34.134v-48z" />
<glyph unicode="&#xe910;" glyph-name="logout" d="M85.333-64c-22.756 0-42.667 8.533-59.733 25.6s-25.6 36.975-25.6 59.733v853.333c0 22.756 8.533 42.667 25.6 59.733s36.978 25.6 59.733 25.6h413.867v-85.333h-413.867v-853.333h413.867v-85.333h-413.867zM776.533 199.111l-61.156 61.156 145.064 145.067h-497.775v85.333h494.933l-145.067 145.067 61.156 61.156 250.311-250.312-247.467-247.467z" />
<glyph unicode="&#xe911;" glyph-name="setting" d="M961.309 324.244l-71.292 60.952c3.372 20.68 5.113 41.796 5.113 62.912s-1.741 42.231-5.113 62.912l71.292 60.953c5.376 4.603 9.223 10.734 11.030 17.578s1.492 14.076-0.907 20.735l-0.98 2.83c-19.632 54.854-49.020 105.705-86.755 150.095l-1.953 2.286c-4.579 5.382-10.679 9.251-17.503 11.097-6.817 1.846-14.036 1.582-20.707-0.756l-88.488-31.456c-32.652 26.775-69.114 47.891-108.515 62.694l-17.088 92.517c-1.29 6.961-4.667 13.366-9.682 18.362s-11.434 8.348-18.4 9.611l-2.939 0.544c-56.708 10.231-116.353 10.231-173.061 0l-2.939-0.544c-6.966-1.262-13.384-4.614-18.4-9.611s-8.392-11.401-9.682-18.362l-17.197-92.952c-39.087-14.806-75.486-35.91-107.755-62.476l-89.143 31.674c-6.665 2.357-13.89 2.63-20.713 0.783s-12.924-5.726-17.491-11.124l-1.959-2.286c-37.688-44.422-67.072-95.264-86.748-150.095l-0.98-2.83c-4.898-13.606-0.871-28.844 10.122-38.313l72.163-61.606c-3.374-20.462-5.007-41.36-5.007-62.149 0-20.898 1.633-41.796 5.007-62.149l-72.163-61.605c-5.377-4.604-9.226-10.734-11.034-17.578s-1.49-14.076 0.912-20.735l0.98-2.83c19.701-54.857 48.87-105.472 86.748-150.096l1.959-2.282c4.577-5.383 10.678-9.253 17.498-11.103 6.82-1.843 14.039-1.58 20.706 0.761l89.143 31.671c32.435-26.668 68.68-47.777 107.755-62.471l17.197-92.957c1.29-6.956 4.667-13.363 9.682-18.359s11.434-8.353 18.4-9.611l2.939-0.549c57.228-10.284 115.833-10.284 173.061 0l2.939 0.549c6.966 1.258 13.384 4.615 18.4 9.611s8.392 11.403 9.682 18.359l17.088 92.518c39.385 14.768 76.054 35.95 108.515 62.698l88.488-31.459c6.671-2.355 13.89-2.633 20.714-0.783 6.824 1.843 12.924 5.727 17.496 11.125l1.953 2.282c37.881 44.734 67.050 95.239 86.755 150.096l0.98 2.83c4.893 13.387 0.87 28.626-10.123 38.095zM812.734 498.176c2.721-16.435 4.14-33.306 4.14-50.177s-1.419-33.742-4.14-50.177l-7.183-43.646 81.306-69.551c-12.325-28.396-27.882-55.277-46.365-80.11l-101.010 35.811-34.175-28.080c-26.014-21.336-54.966-38.1-86.313-49.854l-41.469-15.565-19.483-105.574c-30.741-3.482-61.776-3.482-92.517 0l-19.483 105.794-41.143 15.784c-31.021 11.754-59.865 28.518-85.66 49.737l-34.177 28.193-101.66-36.136c-18.503 24.926-33.959 51.81-46.367 80.109l82.177 70.204-7.075 43.538c-2.612 16.218-4.027 32.98-4.027 49.524 0 16.652 1.306 33.306 4.027 49.524l7.075 43.538-82.177 70.204c12.3 28.408 27.865 55.183 46.367 80.109l101.66-36.136 34.177 28.191c25.795 21.224 54.639 37.986 85.66 49.742l41.252 15.564 19.482 105.796c30.585 3.483 61.823 3.483 92.518 0l19.482-105.578 41.47-15.565c31.238-11.755 60.299-28.517 86.313-49.851l34.176-28.081 101.010 35.809c18.498-24.926 33.953-51.809 46.365-80.109l-81.306-69.551 7.073-43.429zM512 650.448c-105.796 0-191.564-85.769-191.564-191.564s85.768-191.565 191.564-191.565c105.796 0 191.565 85.769 191.565 191.565s-85.769 191.564-191.565 191.564zM598.204 372.679c-11.306-11.339-24.743-20.33-39.537-26.457s-30.653-9.268-46.667-9.243c-32.544 0-63.129 12.735-86.204 35.7-11.339 11.306-20.33 24.743-26.457 39.538s-9.268 30.653-9.243 46.667c0 32.544 12.734 63.129 35.7 86.204 23.075 23.074 53.66 35.7 86.204 35.7s63.13-12.626 86.204-35.7c11.339-11.306 20.331-24.743 26.458-39.538s9.268-30.653 9.243-46.666c0-32.544-12.735-63.13-35.701-86.205z" />
<glyph unicode="&#xe912;" glyph-name="choose-file" horiz-adv-x="768" d="M768 64v608l-288 288h-352c-33.948 0-66.505-13.486-90.51-37.49s-37.49-56.562-37.49-90.51v-768c0-33.946 13.486-66.502 37.49-90.509s56.562-37.491 90.51-37.491h512c33.946 0 66.502 13.485 90.509 37.491s37.491 56.563 37.491 90.509zM480 768c0-25.46 10.115-49.879 28.118-67.882s42.422-28.118 67.882-28.118h128v-608c0-16.973-6.746-33.254-18.746-45.254s-28.282-18.746-45.254-18.746h-512c-16.974 0-33.252 6.746-45.255 18.746s-18.745 28.282-18.745 45.254v768c0 16.974 6.743 33.252 18.745 45.255s28.281 18.745 45.255 18.745h352v-128zM166.592 58.432c-12.474 4.992-22.524 14.624-28.032 26.88-12.48 24.832-8.32 49.664 5.12 70.528 12.672 19.648 33.664 36.352 57.408 50.368 30.076 17.056 61.868 30.893 94.848 41.28 25.612 46.042 48.313 93.645 67.968 142.528-11.752 26.703-20.966 54.452-27.52 82.88-5.504 25.6-7.616 50.944-2.944 72.704 4.8 22.656 17.536 43.008 41.6 52.672 12.288 4.928 25.6 7.68 38.528 4.928 6.503-1.384 12.616-4.199 17.897-8.239s9.595-9.206 12.631-15.121c5.632-10.496 7.68-22.784 8.128-34.432 0.448-12.032-0.768-25.344-3.008-39.296-5.376-32.64-17.28-72.576-33.28-114.816 17.657-37.761 38.647-73.875 62.72-107.904 28.486 2.253 57.138 1.178 85.376-3.2 23.296-4.224 46.976-12.48 61.44-29.76 7.68-9.216 12.352-20.48 12.8-33.152 0.448-12.288-3.008-24.448-8.832-36.032-5.045-10.733-12.867-19.93-22.656-26.624-9.677-6.31-21.101-9.402-32.64-8.832-21.184 0.896-41.856 12.544-59.712 26.688-21.713 17.952-41.277 38.355-58.304 60.8-43.28-4.909-86.046-13.606-127.808-25.984-19.124-33.92-40.956-66.234-65.28-96.64-18.688-22.4-38.976-41.984-59.328-50.368-11.693-5.293-24.957-5.952-37.12-1.856zM254.848 180.096c-10.624-4.864-20.48-9.984-29.376-15.232-20.992-12.416-34.624-24.512-41.408-35.008-6.016-9.28-6.144-16-2.56-23.104 0.64-1.408 1.28-2.304 1.664-2.816 0.764 0.205 1.512 0.461 2.24 0.768 8.768 3.584 22.72 15.040 40.64 36.608 10.191 12.48 19.802 25.421 28.8 38.784zM359.808 265.216c21.372 4.986 42.936 9.107 64.64 12.352-11.653 17.83-22.543 36.154-32.64 54.912-10.038-22.694-20.709-45.101-32-67.2v-0.064zM516.352 236.416c9.6-10.432 18.944-19.2 27.84-26.24 15.36-12.16 26.048-16.192 31.872-16.384 1.559-0.205 3.141 0.134 4.48 0.96 2.662 2.106 4.735 4.858 6.016 8 2.275 3.898 3.571 8.288 3.776 12.8-0.037 1.504-0.63 2.938-1.664 4.032-3.328 3.968-12.8 9.728-33.152 13.376-12.946 2.163-26.043 3.302-39.168 3.392v0.064zM388.992 460.8c5.386 17.375 9.661 35.075 12.8 52.992 1.984 12.032 2.752 21.952 2.432 29.76 0.018 4.308-0.674 8.589-2.048 12.672-3.201-0.396-6.328-1.259-9.28-2.56-5.568-2.24-10.112-6.784-12.544-18.112-2.56-12.288-1.92-30.016 2.944-52.608 1.536-7.104 3.456-14.528 5.76-22.144h-0.064z" />
<glyph unicode="&#xe913;" glyph-name="download" d="M503.77 253.387c0.978-1.249 2.226-2.259 3.652-2.954s2.991-1.055 4.577-1.055c1.586 0 3.151 0.361 4.577 1.055s2.675 1.705 3.652 2.954l146.286 185.078c5.356 6.792 0.523 16.849-8.229 16.849h-96.783v441.992c0 5.747-4.702 10.449-10.449 10.449h-78.367c-5.747 0-10.448-4.702-10.448-10.449v-441.862h-96.523c-8.751 0-13.583-10.057-8.229-16.848l146.286-185.209zM990.040 299.102h-78.365c-5.749 0-10.452-4.702-10.452-10.448v-201.145h-778.448v201.145c0 5.747-4.702 10.448-10.448 10.448h-78.368c-5.747 0-10.449-4.702-10.449-10.448v-258.613c0-23.12 18.678-41.794 41.796-41.794h893.386c23.12 0 41.801 18.673 41.801 41.794v258.613c0 5.747-4.703 10.448-10.452 10.448z" />
<glyph unicode="&#xe914;" glyph-name="Vector-3" horiz-adv-x="1195" d="M0-64v1024l1194.667-512-1194.667-512zM91.836 81.246l863.258 366.754-863.258 371.626v-272.634l380.92-98.992-380.92-95.747v-271.008z" />
<glyph unicode="&#xe915;" glyph-name="cloud-arrow-up" d="M489.344 630.656c2.973 2.98 6.504 5.345 10.392 6.957s8.055 2.444 12.264 2.444c4.209 0 8.377-0.83 12.264-2.444s7.419-3.978 10.392-6.957l128-128c2.976-2.975 5.338-6.508 6.944-10.395 1.613-3.887 2.438-8.054 2.438-12.261s-0.826-8.374-2.438-12.261c-1.606-3.887-3.968-7.42-6.944-10.395s-6.509-5.335-10.394-6.945c-3.891-1.61-8.058-2.439-12.262-2.439-4.207 0-8.374 0.829-12.261 2.439s-7.42 3.97-10.395 6.945l-73.344 73.408v-242.752c0-8.486-3.372-16.627-9.373-22.63-6.001-5.997-14.14-9.37-22.627-9.37s-16.627 3.373-22.627 9.37c-6.001 6.003-9.373 14.144-9.373 22.63v242.752l-73.344-73.408c-6.009-6.009-14.158-9.384-22.656-9.384s-16.647 3.375-22.656 9.384c-6.009 6.009-9.384 14.158-9.384 22.656s3.375 16.647 9.384 22.656l128 128zM281.984 746.112c63.967 55.159 145.551 85.623 230.016 85.888 172.16 0 315.072-128 330.624-293.056 101.888-14.4 181.376-99.712 181.376-204.416 0-114.944-95.872-206.528-212.032-206.528h-569.984c-132.672 0-241.984 104.576-241.984 235.648 0 112.832 81.024 206.272 188.288 229.952 9.152 55.232 44.672 110.272 93.696 152.512zM323.776 697.664c-48.448-41.792-73.792-92.16-73.792-131.584v-28.672l-28.48-3.136c-89.408-9.792-157.504-83.2-157.504-170.624 0-93.888 78.72-171.648 177.984-171.648h569.984c82.752 0 148.032 64.768 148.032 142.528 0 77.824-65.28 142.592-148.032 142.592h-32v32c0.064 142.080-118.976 258.88-267.968 258.88-69.128-0.276-135.882-25.18-188.224-70.336z" />
<glyph unicode="&#xe916;" glyph-name="funnel" d="M96 864c0 8.487 3.372 16.627 9.373 22.627s14.14 9.373 22.627 9.373h768c8.486 0 16.627-3.372 22.63-9.373 5.997-6.001 9.37-14.14 9.37-22.627v-128c0-7.892-2.918-15.505-8.192-21.376l-279.808-310.912v-307.712c-0.005-6.714-2.122-13.254-6.050-18.701-3.928-5.44-9.469-9.517-15.838-11.635l-192-64c-4.808-1.6-9.928-2.035-14.938-1.274s-9.766 2.707-13.878 5.67c-4.112 2.963-7.462 6.854-9.773 11.366s-3.519 9.504-3.523 14.573v371.712l-279.808 310.912c-5.273 5.871-8.191 13.484-8.192 21.376v128zM160 832v-83.712l279.808-310.912c5.273-5.871 8.191-13.484 8.192-21.376v-339.584l128 42.624v296.96c0.001 7.892 2.919 15.505 8.192 21.376l279.808 310.912v83.712h-704z" />
<glyph unicode="&#xe917;" glyph-name="trash" horiz-adv-x="853" d="M262.564 584.533c8.705 0 17.053-3.596 23.208-9.998s9.613-15.083 9.613-24.136v-409.6c0-9.053-3.458-17.735-9.613-24.136s-14.503-9.998-23.208-9.998c-8.704 0-17.052 3.596-23.207 9.998s-9.613 15.083-9.613 24.136v409.6c0 9.053 3.458 17.735 9.613 24.136s14.503 9.998 23.207 9.998zM426.667 584.533c8.705 0 17.053-3.596 23.207-9.998s9.614-15.083 9.614-24.136v-409.6c0-9.053-3.459-17.735-9.614-24.136s-14.502-9.998-23.207-9.998c-8.705 0-17.052 3.596-23.207 9.998s-9.614 15.083-9.614 24.136v409.6c0 9.053 3.459 17.735 9.614 24.136s14.502 9.998 23.207 9.998zM623.59 550.4c0 9.053-3.458 17.735-9.613 24.136s-14.503 9.998-23.207 9.998c-8.705 0-17.053-3.596-23.208-9.998s-9.613-15.083-9.613-24.136v-409.6c0-9.053 3.458-17.735 9.613-24.136s14.503-9.998 23.208-9.998c8.704 0 17.052 3.596 23.207 9.998s9.613 15.083 9.613 24.136v409.6zM853.333 755.2c0-18.105-6.915-35.47-19.226-48.272s-29.007-19.994-46.415-19.994h-32.821v-614.4c0-36.207-13.831-70.938-38.451-96.546-24.62-25.6-58.012-39.987-92.831-39.987h-393.846c-34.819 0-68.21 14.387-92.831 39.987-24.62 25.609-38.451 60.339-38.451 96.546v614.4h-32.821c-17.409 0-34.105 7.193-46.415 19.994s-19.226 30.167-19.226 48.272v68.267c0 18.105 6.916 35.47 19.226 48.272s29.006 19.994 46.415 19.994h229.744c0 18.105 6.915 35.469 19.226 48.272s29.007 19.995 46.415 19.995h131.282c17.409 0 34.105-7.192 46.415-19.995s19.226-30.166 19.226-48.272h229.744c17.409 0 34.105-7.192 46.415-19.994s19.226-30.167 19.226-48.272v-68.267zM171.849 686.933l-7.746-4.028v-610.372c0-18.108 6.915-35.473 19.226-48.273s29.006-19.994 46.415-19.994h393.846c17.41 0 34.105 7.194 46.415 19.994s19.226 30.165 19.226 48.273v610.372l-7.746 4.028h-509.636zM65.641 755.2h722.051v68.267h-722.051v-68.267z" />
<glyph unicode="&#xe918;" glyph-name="reload" d="M496.485-32.973c-137.567 0-254.707 48.361-351.418 145.070-96.711 96.711-145.066 213.85-145.066 351.418s48.356 254.707 145.066 351.418c96.711 96.711 213.851 145.066 351.418 145.066 87.92 0 164.979-17.842 231.176-53.527s123.603-84.557 172.218-146.618v200.145h93.094v-394.085h-394.088v93.091h260.655c-39.305 62.060-89.471 112.226-150.496 150.496s-131.879 57.406-212.558 57.406c-112.743 0-208.162-39.046-286.255-117.139s-117.139-173.511-117.139-286.255c0-112.743 39.046-208.162 117.139-286.255s173.511-117.14 286.255-117.14c85.851 0 164.461 24.566 235.831 73.697s121.018 114.036 148.945 194.715h96.194c-29.994-108.606-89.471-196.008-178.425-262.206s-189.802-99.3-302.545-99.3z" />
<glyph unicode="&#xe919;" glyph-name="Vector" horiz-adv-x="1792" d="M499.242-59.729l-477.867 477.866 91.733 91.734 477.866-477.868-91.732-91.732zM861.908-59.729l-477.866 477.866 91.732 91.734 386.134-386.134 819.205 819.2 91.725-91.733-910.93-910.933zM861.908 302.938l-91.734 91.734 548.264 548.266 91.738-91.733-548.268-548.266z" />
<glyph unicode="&#xe91a;" glyph-name="supplier" horiz-adv-x="1331" d="M92.65 755.237c0 27.148 11.125 53.185 30.929 72.381s46.664 29.982 74.671 29.982h633.6c28.006 0 54.866-10.785 74.67-29.982s30.93-45.233 30.93-72.381v-102.363h71.808c15.817-0.013 31.433-3.473 45.697-10.123 14.254-6.651 26.788-16.321 36.669-28.297l104.264-126.248c15.002-18.165 23.173-40.742 23.163-64.011v-146.652c0-27.148-11.131-53.185-30.935-72.381s-46.664-29.982-74.67-29.982h-35.195c0-36.197-14.838-70.913-41.236-96.509-26.41-25.596-62.222-39.975-99.565-39.975s-73.156 14.379-99.561 39.975c-26.405 25.596-41.239 60.312-41.239 96.509h-352c0.040-18.192-3.672-36.209-10.918-52.99s-17.88-31.99-31.277-44.73-29.286-22.756-46.733-29.458c-17.448-6.702-36.101-9.956-54.865-9.569-18.763 0.387-37.257 4.406-54.395 11.821-17.139 7.415-32.574 18.076-45.4 31.357s-22.784 28.914-29.287 45.979-9.422 35.217-8.584 53.392c-20.623 7.036-38.486 20.104-51.121 37.401s-19.421 37.968-19.42 59.162v477.695zM183.748 246.424c12.728 20.2 30.66 36.842 52.033 48.291s45.45 17.309 69.868 17.007c24.416-0.303 48.332-6.759 69.394-18.734 21.064-11.975 38.55-29.057 50.741-49.566h389.734c12.383 20.727 30.15 37.949 51.533 49.953v461.863c0 9.049-3.709 17.729-10.311 24.127-6.601 6.399-15.555 9.993-24.889 9.993h-633.6c-9.336 0-18.29-3.594-24.89-9.993-6.602-6.399-10.31-15.078-10.31-24.127v-477.695c-0.006-6.568 1.944-12.998 5.616-18.517 3.671-5.52 8.908-9.896 15.081-12.601zM937.45 311.663c24.714 0 48.994-6.307 70.398-18.286 21.405-11.979 39.181-29.209 51.531-49.956h54.067c9.339 0 18.289 3.594 24.893 9.993s10.312 15.078 10.312 24.127v146.721c-0.020 7.743-2.744 15.251-7.741 21.291l-104.192 126.248c-3.297 3.997-7.475 7.224-12.227 9.445-4.751 2.22-9.957 3.377-15.233 3.384h-71.808v-272.969zM303.85 243.421c-18.672 0-36.578-7.191-49.781-19.987-13.202-12.798-20.619-30.156-20.619-48.255s7.417-35.457 20.619-48.254c13.202-12.798 31.109-19.988 49.781-19.988 18.671 0 36.577 7.191 49.78 19.988s20.62 30.155 20.62 48.254-7.418 35.457-20.62 48.255c-13.202 12.797-31.109 19.987-49.78 19.987zM937.45 243.421c-18.672 0-36.578-7.191-49.781-19.987-13.202-12.798-20.619-30.156-20.619-48.255s7.417-35.457 20.619-48.254c13.202-12.798 31.109-19.988 49.781-19.988s36.577 7.191 49.78 19.988c13.202 12.797 20.62 30.155 20.62 48.254s-7.418 35.457-20.62 48.255c-13.202 12.797-31.109 19.987-49.78 19.987z" />
<glyph unicode="&#xe91b;" d="M1024 448c0-282.77-229.23-512-512-512s-512 229.23-512 512c0 282.77 229.23 512 512 512s512-229.23 512-512z" />
<glyph unicode="&#xe91c;" d="M753.005 624.663c19.994-20.449 19.994-53.604 0-74.053l-273.068-279.276c-19.995-20.448-52.413-20.448-72.408 0l-136.534 139.639c-19.994 20.449-19.994 53.604 0 74.053s52.413 20.449 72.408 0l100.329-102.609 236.862 242.246c19.994 20.449 52.416 20.449 72.41 0z" />
<glyph unicode="&#xe91d;" d="M976 448c0-256.26-207.74-464-464-464s-464 207.74-464 464c0 256.26 207.74 464 464 464s464-207.74 464-464z" />
<glyph unicode="&#xe91e;" d="M753.005 624.663c19.994-20.449 19.994-53.604 0-74.053l-273.068-279.276c-19.995-20.448-52.413-20.448-72.408 0l-136.534 139.639c-19.994 20.449-19.994 53.604 0 74.053s52.413 20.449 72.408 0l100.329-102.609 236.862 242.246c19.994 20.449 52.416 20.449 72.41 0z" />
<glyph unicode="&#xe91f;" glyph-name="print" d="M192 896v-512h640v512h-640zM896 448h64c35.345 0 64-28.654 64-64v-256c0-35.345-28.655-64-64-64v-64c0-35.345-28.655-64-64-64h-768c-35.346 0-64 28.655-64 64v64c-35.346 0-64 28.655-64 64v256c0 35.346 28.654 64 64 64h64v448c0 35.346 28.654 64 64 64h640c35.345 0 64-28.654 64-64v-448zM960 384h-64c0-35.346-28.655-64-64-64h-640c-35.346 0-64 28.654-64 64h-64v-256h896v256zM256 832h49.455v-384h-49.455v384zM395.636 832h23.273v-384h-23.273v384zM325.818 832h46.546v-384h-46.546v384zM698.182 832h69.818v-384h-69.818v384zM465.455 832h46.545v-384h-46.545v384zM628.364 832h23.272v-384h-23.272v384zM535.273 832h69.818v-384h-69.818v384zM128 64v-64h768v64h-768zM736 256c-17.673 0-32-14.327-32-32s14.327-32 32-32h128c17.673 0 32 14.327 32 32s-14.327 32-32 32h-128zM128 224c0 17.673 14.327 32 32 32s32-14.327 32-32c0-17.673-14.327-32-32-32s-32 14.327-32 32z" />
<glyph unicode="&#xe920;" glyph-name="data-transfer-1" d="M298.168 874.656c-11.068-0.33-21.573-4.96-29.289-12.904l-170.408-170.443c-3.98-3.96-7.137-8.664-9.292-13.848s-3.264-10.744-3.264-16.358c0-5.615 1.109-11.174 3.264-16.358s5.313-9.893 9.292-13.853l170.408-170.448c3.897-4.223 8.608-7.61 13.85-9.965s10.906-3.626 16.651-3.735c5.745-0.109 11.453 0.946 16.78 3.1s10.164 5.362 14.218 9.434c4.055 4.072 7.244 8.925 9.376 14.262s3.162 11.050 3.029 16.796c-0.133 5.746-1.427 11.406-3.803 16.639s-5.787 9.929-10.026 13.809l-97.519 97.539h663.912c11.136 0.245 21.734 4.841 29.523 12.805s12.154 18.667 12.154 29.808c0 11.142-4.365 21.839-12.154 29.804s-18.387 12.56-29.523 12.805h-664.244l97.852 97.874c6.175 5.971 10.401 13.667 12.125 22.082s0.866 17.155-2.463 25.073c-3.329 7.919-8.972 14.647-16.191 19.301s-15.674 7.018-24.259 6.782zM724.851 448.46c-8.493-0.001-16.794-2.543-23.834-7.298s-12.499-11.503-15.674-19.385c-3.181-7.882-3.923-16.533-2.15-24.842 1.779-8.31 6.003-15.899 12.122-21.791l97.517-97.453h-663.908c-5.674 0.122-11.315-0.89-16.593-2.976s-10.086-5.203-14.143-9.171c-4.056-3.968-7.279-8.71-9.48-13.946-2.201-5.229-3.334-10.848-3.334-16.525s1.133-11.29 3.334-16.525c2.2-5.229 5.423-9.971 9.48-13.939s8.865-7.091 14.143-9.178c5.278-2.080 10.919-3.091 16.593-2.963h664.241l-97.85-97.875c-4.077-3.936-7.322-8.646-9.555-13.856s-3.405-10.816-3.443-16.486c-0.038-5.664 1.050-11.283 3.206-16.525s5.338-9.997 9.357-13.997c4.019-3.994 8.794-7.149 14.042-9.28 5.254-2.125 10.874-3.187 16.544-3.117 5.664 0.077 11.258 1.28 16.454 3.539 5.197 2.266 9.888 5.536 13.805 9.632l170.406 170.195c3.981 3.962 7.136 8.666 9.293 13.85s3.264 10.746 3.264 16.358c0 5.613-1.107 11.174-3.264 16.358s-5.312 9.894-9.293 13.856l-170.406 170.441c-4.013 4.123-8.813 7.389-14.118 9.606s-11.002 3.337-16.755 3.292z" />
<glyph unicode="&#xe921;" glyph-name="transfar-circle" d="M716.467 579.952c9.376-9.372 9.376-24.568 0-33.94l-72.518-72.518c-4.683-4.687-10.826-7.030-16.966-7.030s-12.284 2.343-16.97 7.029c-9.373 9.373-9.373 24.568 0 33.94l31.549 31.548h-287.555c-13.256 0-24 10.746-24 24s10.744 24 24 24h287.555l-31.549 31.548c-9.373 9.372-9.373 24.568 0 33.94 9.375 9.372 24.572 9.373 33.942 0l72.512-72.518zM655.347 357.019h-272.905l31.546 31.547c9.373 9.373 9.373 24.568 0 33.94-9.37 9.373-24.567 9.372-33.94 0l-72.519-72.518c-4.502-4.502-7.030-10.605-7.030-16.971s2.529-12.47 7.030-16.966l72.519-72.525c4.686-4.685 10.829-7.027 16.97-7.027s12.284 2.342 16.97 7.027c9.373 9.376 9.373 24.57 0 33.946l-31.548 31.546h272.902c13.261 0 24 10.746 24 24s-10.739 24.001-23.994 24.001zM896 448c0-211.738-172.262-384-384-384s-384 172.262-384 384c0 211.738 172.262 384 384 384s384-172.262 384-384zM848 448c0 185.271-150.726 336-336 336-185.271 0-336-150.729-336-336 0-185.274 150.729-336 336-336 185.274 0 336 150.726 336 336z" />
<glyph unicode="&#xe922;" glyph-name="document-pen" d="M709.203 635.876c-6.842 0-13.709 0.056-20.57 0.196l-0.582 0.012c-20.96 0.43-44.71 0.916-67.343 8.046-30.947 9.746-58.402 28.305-79.395 53.668-22.109 26.708-36.083 58.84-39.343 90.477-3.151 30.531-2.785 60.87-2.429 90.211 0.112 9.164 0.226 18.641 0.226 27.865h58.014c0-9.574-0.118-19.231-0.23-28.567-0.35-28.975-0.682-56.343 2.127-83.558 2.067-20.061 11.663-41.724 26.326-59.436 13.649-16.492 32.165-29.039 52.134-35.326 14.706-4.633 33.208-5.013 51.103-5.379l0.589-0.012c18.848-0.39 38.259-0.086 57.024 0.206 12.589 0.196 25.6 0.398 38.515 0.398v-58.013c-12.461 0-25.248-0.2-37.613-0.39-12.634-0.198-25.555-0.398-38.554-0.398zM536.739 26.144c-8.852 0-17.49 3.482-23.874 9.792-7.7 7.616-11.327 18.554-9.702 29.261l21.489 141.44c1.091 7.168 4.365 13.677 9.466 18.822l314.221 316.719c6.419 6.468 14.963 10.026 24.064 10.026s17.645-3.558 24.064-10.024l117.734-118.672c13.088-13.185 13.094-34.656 0-47.857l-314.266-316.765c-5.069-5.094-11.494-8.403-18.579-9.562l-139.195-22.739c-1.805-0.301-3.617-0.442-5.423-0.442zM580.833 190.17l-15.346-100.992 98.801 16.141 291.936 294.262-83.821 84.484-291.57-293.895zM789.018 441.307l41.19 40.842 124.621-125.687-41.19-40.839-124.621 125.684zM532.813 183.206l41.19 40.838 124.621-125.683-41.184-40.845-124.627 125.69zM687.923-64h-542.216c-80.351 0-145.723 66.861-145.723 149.037v725.644c0 40.56 15.648 78.481 44.060 106.78 27.514 27.404 63.805 42.476 102.232 42.256l393.199 0.11c18.625-1.254 36.705-5.783 53.737-13.459 17.212-7.758 32.75-18.456 46.179-31.798l0.354-0.358 151.499-155.805c27.341-28.117 42.394-65.44 42.394-105.095v-65.894c0-16.020-12.986-29.007-29.005-29.007s-29.005 12.987-29.005 29.007v65.894c0 24.111-9.472 47.677-25.978 64.652l-151.311 155.613c-8.442 8.346-18.186 15.039-28.964 19.898-10.435 4.703-21.493 7.528-32.882 8.4l-390.319-0.172c-0.114 0-0.234 0-0.348 0-22.876 0-44.423-8.992-60.841-25.346-17.402-17.334-26.986-40.657-26.986-65.677v-725.642c0-50.189 39.345-91.021 87.709-91.021h542.214c48.358 0 87.706 40.832 87.706 91.021 0 16.019 12.986 29.005 29.011 29.005 16.019 0 29.005-12.986 29.005-29.005 0-82.182-65.37-149.037-145.722-149.037zM465.18 606.895h-261.954c-16.020 0-29.007 12.987-29.007 29.007s12.987 29.007 29.007 29.007h261.956c16.020 0 29.007-12.987 29.007-29.007s-12.988-29.007-29.009-29.007zM465.18 218.56h-261.954c-16.020 0-29.007 12.986-29.007 29.005s12.987 29.011 29.007 29.011h261.956c16.020 0 29.007-12.992 29.007-29.011s-12.988-29.005-29.009-29.005zM598.587 412.797h-391.892c-16.020 0-29.007 12.987-29.007 29.007s12.987 29.007 29.007 29.007h391.891c16.020 0 29.007-12.987 29.007-29.007 0.002-16.018-12.988-29.007-29.005-29.007z" />
<glyph unicode="&#xe923;" glyph-name="import" d="M267.738 106.669c-62.577 0-115.733 21.862-159.466 65.6-43.734 43.731-65.6 96.89-65.6 159.464 0 56.178 17.956 105.067 53.866 146.667s80.889 66.666 134.934 75.2c10.666 59.733 39.822 112.533 87.466 158.4s101.689 68.8 162.134 68.8c17.066 0 32-4.8 44.8-14.4s19.2-22.578 19.2-38.934v-313.6l88.533 88.534 45.864-45.867-166.397-166.402-166.4 166.402 45.866 45.867 88.534-88.534v308.267c-61.156-7.822-109.156-34.667-144-80.533s-52.267-95.467-52.267-148.8h-20.267c-43.377 0-80.533-15.289-111.466-45.867s-46.4-68.978-46.4-115.2c0-46.223 16-84.623 48-115.202 32-30.573 69.689-45.862 113.066-45.862h533.331c32 0 59.379 11.373 82.138 34.131 22.752 22.758 34.131 50.131 34.131 82.131s-11.379 59.38-34.131 82.135c-22.758 22.756-50.138 34.134-82.138 34.134h-67.2v89.6c0 48.355-11.731 90.133-35.2 125.333-23.462 35.2-53.683 63.111-90.664 83.733v69.334c57.601-20.623 103.643-56.534 138.132-107.734s51.731-108.089 51.731-170.666v-25.6c51.2 1.422 94.579-14.934 130.138-49.067 35.552-34.133 53.331-77.867 53.331-131.202 0-49.062-17.779-91.373-53.331-126.931-35.558-35.558-77.869-53.331-126.938-53.331h-533.331z" />
<glyph unicode="&#xe926;" glyph-name="arrow-return-right" d="M96 864c-8.487 0-16.627-3.372-22.627-9.373s-9.373-14.14-9.373-22.627v-307.2c0-21.011 4.138-41.817 12.179-61.229s19.827-37.050 34.684-51.908c30.006-30.006 70.703-46.863 113.137-46.863h626.752l-214.208-214.144c-6.009-6.010-9.384-14.157-9.384-22.656s3.375-16.646 9.384-22.656c6.010-6.010 14.157-9.382 22.656-9.382s16.646 3.373 22.656 9.382l268.8 268.8c2.982 2.973 5.344 6.504 6.957 10.392s2.445 8.055 2.445 12.264c0 4.209-0.832 8.377-2.445 12.264s-3.974 7.419-6.957 10.392l-256 256c-6.010 6.009-14.157 9.384-22.656 9.384s-16.646-3.375-22.656-9.384c-6.010-6.009-9.384-14.158-9.384-22.656s3.375-16.647 9.384-22.656l201.408-201.344h-626.752c-25.46 0-49.879 10.115-67.882 28.118s-28.118 42.422-28.118 67.882v307.2c0 8.487-3.372 16.627-9.373 22.627s-14.14 9.373-22.627 9.373v0z" />
<glyph unicode="&#xe927;" glyph-name="scanner" horiz-adv-x="1170" d="M195.048 740.571h97.524v-585.142h-97.524v585.142zM341.334 740.571h48.761v-585.142h-48.761v585.142zM438.857 740.571h146.286v-585.142h-146.286v585.142zM633.905 740.571h48.761v-585.142h-48.761v585.142zM780.193 740.571h97.521v-585.142h-97.521v585.142zM926.479 740.571h48.757v-585.142h-48.757v585.142zM97.524 838.094v-195.047h-97.524v195.047c0 25.866 10.275 50.671 28.564 68.96s43.095 28.564 68.96 28.564h195.048v-97.524h-195.048zM1072.764 935.618c25.863 0 50.666-10.275 68.959-28.564 18.286-18.289 28.562-43.094 28.562-68.96v-195.047h-97.521v195.047h-195.050v97.524h195.050zM97.524 252.951v-195.044h195.048v-97.529h-195.048c-25.865 0-50.67 10.277-68.96 28.562-18.289 18.293-28.564 43.096-28.564 68.966v195.044h97.524zM1072.764 57.907v195.044h97.521v-195.044c0-25.871-10.277-50.673-28.562-68.966-18.293-18.286-43.096-28.562-68.959-28.562h-195.050v97.529h195.050z" />
<glyph unicode="&#xe928;" glyph-name="icon_payment_card" d="M220.579 778.667h582.865c22.79 0 41.811 0.001 57.35-1.269 16.211-1.324 31.43-4.188 45.818-11.519 22.080-11.249 40.026-29.199 51.277-51.277 7.334-14.39 10.195-29.607 11.52-45.816 1.267-15.54 1.267-34.563 1.267-57.353v-326.863c0-22.79 0-41.818-1.267-57.357-1.325-16.205-4.186-31.424-11.52-45.811-11.251-22.080-29.197-40.032-51.277-51.277-14.387-7.334-29.606-10.195-45.818-11.52-15.539-1.274-34.56-1.274-57.35-1.274h-582.865c-22.79 0-41.813 0-57.354 1.274-16.208 1.325-31.425 4.186-45.816 11.52-22.077 11.245-40.027 29.197-51.276 51.277-7.332 14.387-10.196 29.606-11.52 45.811-1.27 15.539-1.269 34.566-1.269 57.357v326.862c0 22.791-0.001 41.814 1.269 57.354 1.324 16.209 4.188 31.426 11.52 45.816 11.249 22.077 29.199 40.028 51.276 51.277 14.39 7.332 29.608 10.195 45.816 11.519 15.541 1.27 34.564 1.269 57.354 1.269zM117.344 501.333v-215.464c0-24.422 0.025-40.819 1.056-53.44 1.001-12.256 2.788-18.112 4.756-21.978 5.114-10.035 13.272-18.189 23.308-23.302 3.864-1.971 9.722-3.757 21.972-4.762 12.624-1.030 29.017-1.056 53.441-1.056h580.267c24.422 0 40.819 0.026 53.44 1.056 12.25 1.005 18.106 2.79 21.971 4.762 10.035 5.114 18.195 13.267 23.309 23.302 1.971 3.866 3.757 9.722 4.755 21.978 1.030 12.621 1.056 29.011 1.056 53.44v215.464h-789.331zM906.675 565.333v44.8c0 24.424-0.026 40.817-1.056 53.441-0.998 12.25-2.784 18.108-4.755 21.972-5.114 10.035-13.274 18.194-23.309 23.308-3.866 1.969-9.722 3.756-21.971 4.756-12.621 1.032-29.018 1.057-53.44 1.057h-580.267c-24.424 0-40.817-0.025-53.441-1.057-12.251-1.001-18.108-2.788-21.972-4.756-10.035-5.113-18.194-13.272-23.308-23.308-1.969-3.864-3.756-9.722-4.756-21.972-1.031-12.624-1.056-29.018-1.056-53.441v-44.8h789.331zM224.010 362.667c0-17.673 14.327-32 32-32h213.334c17.673 0 32 14.327 32 32s-14.327 32-32 32h-213.334c-17.673 0-32-14.327-32-32z" />
<glyph unicode="&#xe929;" glyph-name="export" d="M238.492 860.214c21.604 22.913 50.906 35.786 81.459 35.786h326.399c10.182 0 19.955-4.291 27.155-11.928l211.2-224c7.2-7.638 11.245-17.997 11.245-28.799v-509.091c0-32.41-12.134-63.482-33.741-86.394s-50.906-35.789-81.459-35.789h-537.599c-21.208 0-38.4 18.234-38.4 40.73 0 22.49 17.192 40.723 38.4 40.723h537.599c10.182 0 19.955 4.294 27.155 11.93s11.245 17.997 11.245 28.8v492.221l-188.704 200.142h-310.495c-10.184 0-19.951-4.291-27.153-11.928s-11.247-17.997-11.247-28.799v-162.909c0-22.493-17.192-40.727-38.4-40.727s-38.4 18.234-38.4 40.727v162.909c0 32.404 12.137 63.482 33.741 86.396zM627.213 896c21.21 0 38.4-18.234 38.4-40.727v-203.636h192c21.21 0 38.4-18.234 38.4-40.728s-17.19-40.727-38.4-40.727h-230.4c-21.208 0-38.4 18.234-38.4 40.727v244.364c0 22.493 17.192 40.727 38.4 40.727zM128 325.818c0 22.493 17.192 40.727 38.4 40.727h384c21.208 0 38.4-18.234 38.4-40.727 0-22.497-17.192-40.73-38.4-40.73h-384c-21.208 0-38.4 18.234-38.4 40.73zM408.060 476.798c14.996 15.904 39.309 15.904 54.306 0l115.2-122.182c14.995-15.904 14.995-41.695 0-57.599l-115.2-122.182c-14.996-15.904-39.309-15.904-54.306 0s-14.996 41.696 0 57.6l88.048 93.383-88.048 93.383c-14.996 15.904-14.996 41.693 0 57.597z" />
<glyph unicode="&#xe92a;" glyph-name="batch" d="M724.269 433.067l-227.202 227.2 227.202 227.2 227.2-227.2-227.2-227.2zM128 509.867v321.067h321.067v-321.067h-321.067zM573.867 64v321.067h321.064v-321.067h-321.064zM128 64v321.067h321.067v-321.067h-321.067zM192 573.867h193.067v193.067h-193.067v-193.067zM727.469 519.467l137.6 137.6-137.6 137.6-137.602-137.6 137.602-137.6zM637.867 128h193.064v193.067h-193.064v-193.067zM192 128h193.067v193.067h-193.067v-193.067z" />
<glyph unicode="&#xe92b;" glyph-name="avoid" d="M333.26 192h370.74c35.347 0 64 28.653 64 64v370.74l-64-64v-306.74h-306.74l-64-64zM485.5 434.75l-101.5-50.75v256h-64v-370.752l-51.395-51.392c-7.919 10.65-12.605 23.853-12.605 38.144v384c0 35.346 28.654 64 64 64h384c14.291 0 27.494-4.685 38.144-12.605l-51.392-51.395h-50.752v-50.75l-64-64v114.75h-128v-152.446l64 32 38.87-19.434-65.37-65.37zM563.507 422.247l76.493-38.247v114.74l-76.493-76.493z" />
<glyph unicode="&#xe92c;" glyph-name="calc" d="M832-32h-640c-88.224 0-160 71.776-160 160v640c0 88.224 71.776 160 160 160h640c88.224 0 160-71.776 160-160v-640c0-88.224-71.776-160-160-160zM928 128v288h-384v-384h288c52.928 0 96 43.072 96 96zM192 32h288v384h-384v-288c0-52.928 43.072-96 96-96zM96 768v-288h384v384h-288c-52.928 0-96-43.072-96-96zM832 864h-288v-384h384v288c0 52.928-43.072 96-96 96zM192 256h64v64c0 17.664 14.304 32 32 32s32-14.336 32-32v-64h64c17.696 0 32-14.336 32-32s-14.304-32-32-32h-64v-64c0-17.664-14.304-32-32-32s-32 14.336-32 32v64h-64c-17.696 0-32 14.336-32 32s14.304 32 32 32zM640 256h192c17.696 0 32-14.336 32-32s-14.304-32-32-32h-192c-17.696 0-32 14.336-32 32s14.304 32 32 32zM832 704h-192c-17.696 0-32 14.336-32 32s14.304 32 32 32h192c17.696 0 32-14.336 32-32s-14.304-32-32-32zM832 576h-192c-17.696 0-32 14.336-32 32s14.304 32 32 32h192c17.696 0 32-14.336 32-32s-14.304-32-32-32zM333.253 671.997l45.248-45.248c12.512-12.512 12.512-32.736 0-45.248s-32.736-12.512-45.248 0l-45.248 45.248-45.248-45.248c-12.512-12.512-32.736-12.512-45.248 0s-12.512 32.736 0 45.248l45.248 45.248-45.248 45.28c-12.512 12.512-12.512 32.736 0 45.248 6.24 6.24 14.432 9.376 22.624 9.376s16.384-3.136 22.624-9.376l45.248-45.248 45.248 45.248c6.24 6.24 14.432 9.376 22.624 9.376s16.384-3.136 22.624-9.376c12.512-12.512 12.512-32.736 0-45.248l-45.248-45.28z" />
<glyph unicode="&#xe92d;" glyph-name="remove-file" d="M853.44 727.683l-177.92 160c-5.869 5.334-13.51 8.299-21.44 8.32h-391.040c-26.353 0.78-51.951-8.861-71.241-26.833s-30.716-42.825-31.799-69.167v-704.003c1.084-26.342 12.509-51.194 31.799-69.165s44.888-27.61 71.241-26.835h497.92c26.355-0.774 51.949 8.864 71.238 26.835s30.72 42.822 31.802 69.165v608.003c-0.013 4.465-0.954 8.879-2.771 12.957-1.824 4.078-4.474 7.731-7.789 10.723zM784.32 704.003h-112.32c-8.486 0-16.627 3.371-22.63 9.372-5.997 6.001-9.37 14.141-9.37 22.628v96h1.92l142.4-128zM800 96c-1.050-9.37-5.722-17.958-13.011-23.936-7.296-5.978-16.634-8.87-26.029-8.064h-497.92c-9.395-0.806-18.735 2.086-26.028 8.064s-11.962 14.566-13.012 23.936v704.003c1.050 9.371 5.719 17.962 13.012 23.939s16.632 8.87 26.028 8.061h312.96v-96c0-25.461 10.115-49.879 28.118-67.882s42.423-28.118 67.882-28.118h128v-544.003zM630.72 489.283l-73.6-73.28 73.6-73.28c2.999-2.975 5.38-6.515 7.005-10.414s2.461-8.082 2.461-12.306c0-4.227-0.836-8.406-2.461-12.304-1.625-3.904-4.006-7.443-7.005-10.419-2.975-2.995-6.514-5.376-10.413-7.002s-8.082-2.464-12.307-2.464c-4.225 0-8.407 0.838-12.307 2.464s-7.439 4.006-10.413 7.002l-73.28 73.603-73.28-73.603c-2.975-2.995-6.514-5.376-10.413-7.002s-8.082-2.464-12.307-2.464c-4.225 0-8.407 0.838-12.307 2.464s-7.439 4.006-10.413 7.002c-2.999 2.976-5.38 6.515-7.005 10.419-1.624 3.898-2.461 8.077-2.461 12.304 0 4.224 0.836 8.406 2.461 12.306s4.006 7.439 7.005 10.414l73.6 73.28-73.6 73.28c-6.026 6.026-9.411 14.198-9.411 22.72s3.386 16.694 9.411 22.72c6.026 6.026 14.198 9.411 22.72 9.411s16.694-3.385 22.72-9.411l73.28-73.6 73.28 73.6c6.026 6.026 14.198 9.411 22.72 9.411s16.694-3.385 22.72-9.411c6.026-6.026 9.408-14.198 9.408-22.72s-3.382-16.694-9.408-22.72z" />
<glyph unicode="&#xe92e;" glyph-name="export-icon" d="M238.492 860.214c21.604 22.913 50.906 35.786 81.459 35.786h326.399c10.182 0 19.955-4.291 27.155-11.928l211.2-224c7.2-7.638 11.245-17.997 11.245-28.799v-509.091c0-32.41-12.134-63.482-33.741-86.394s-50.906-35.789-81.459-35.789h-537.599c-21.208 0-38.4 18.234-38.4 40.73 0 22.49 17.192 40.723 38.4 40.723h537.599c10.182 0 19.955 4.294 27.155 11.93s11.245 17.997 11.245 28.8v492.221l-188.704 200.142h-310.495c-10.184 0-19.951-4.291-27.153-11.928s-11.247-17.997-11.247-28.799v-162.909c0-22.493-17.192-40.727-38.4-40.727s-38.4 18.234-38.4 40.727v162.909c0 32.404 12.137 63.482 33.741 86.396zM627.197 896c21.206 0 38.403-18.234 38.403-40.727v-203.636h192c21.203 0 38.4-18.234 38.4-40.728s-17.197-40.727-38.4-40.727h-230.403c-21.208 0-38.4 18.234-38.4 40.727v244.364c0 22.493 17.192 40.727 38.4 40.727zM128 325.818c0 22.493 17.192 40.727 38.4 40.727h384c21.208 0 38.4-18.234 38.4-40.727 0-22.497-17.192-40.73-38.4-40.73h-384c-21.208 0-38.4 18.234-38.4 40.73zM408.060 476.798c14.996 15.904 39.309 15.904 54.306 0l115.2-122.182c14.995-15.904 14.995-41.695 0-57.599l-115.2-122.182c-14.996-15.904-39.309-15.904-54.306 0s-14.996 41.696 0 57.6l88.048 93.383-88.048 93.383c-14.996 15.904-14.996 41.693 0 57.597z" />
<glyph unicode="&#xe92f;" glyph-name="import-icon" d="M512 832c20.007 0 36.227-16.219 36.227-36.227v-453.523l170.007 170.006c14.144 14.147 37.082 14.147 51.232 0 14.144-14.147 14.144-37.084 0-51.232l-231.85-231.848c-6.794-6.797-16.008-10.611-25.616-10.611s-18.822 3.814-25.616 10.611l-231.849 231.848c-14.147 14.148-14.147 37.085 0 51.232s37.085 14.147 51.232 0l170.006-170.006v453.523c0 20.008 16.22 36.227 36.227 36.227zM128 100.224c0 20.013 16.219 36.23 36.227 36.23h695.549c20.006 0 36.224-16.218 36.224-36.23 0-20.006-16.218-36.224-36.224-36.224h-695.549c-20.008 0-36.227 16.218-36.227 36.224z" />
<glyph unicode="&#xe930;" glyph-name="union" d="M672-44.8c-96 0-192 51.2-243.2 134.4h-243.2c-64 0-121.6 51.2-121.6 121.6v608c0 64 51.2 121.6 121.6 121.6h320c6.4 0 19.2-6.4 25.6-12.8l204.8-211.2c6.4-6.4 6.4-12.8 6.4-19.2v-172.8c128-32 217.6-147.2 217.6-281.6 0-160-128-288-288-288zM672 467.2c-121.6 0-224-102.4-224-224s102.4-224 224-224c121.6 0 224 102.4 224 224s-102.4 224-224 224zM403.2 153.6c-12.8 25.6-19.2 57.6-19.2 89.6 0 19.2 0 38.4 6.4 51.2h-153.6c-19.2 0-32 12.8-32 32s12.8 32 32 32h172.8c6.4 12.8 12.8 25.6 19.2 38.4h-192c-19.2 0-32 12.8-32 32s12.8 32 32 32h249.6c51.2 44.8 121.6 70.4 185.6 70.4h6.4v128h-102.4c-57.6 0-102.4 44.8-102.4 102.4v115.2h-288c-32 0-57.6-25.6-57.6-57.6v-608c0-32 25.6-57.6 57.6-57.6h217.6zM537.6 761.6c0-19.2 19.2-38.4 38.4-38.4h57.6l-96 102.4v-64zM672 76.8c-19.2 0-32 12.8-32 32v185.6l-64-64c-6.4-6.4-12.8-12.8-25.6-12.8-6.4 0-19.2 0-19.2 6.4-6.4 6.4-12.8 12.8-12.8 25.6s0 19.2 6.4 25.6l115.2 128c6.4 6.4 12.8 12.8 25.6 12.8 6.4 0 19.2-6.4 25.6-12.8l115.2-128c6.4-6.4 6.4-12.8 6.4-25.6 0-6.4-6.4-19.2-12.8-25.6s-12.8-6.4-19.2-6.4c-6.4 0-19.2 6.4-25.6 12.8l-64 64v-185.6c12.8-19.2 0-32-19.2-32zM236.8 499.2c-19.2 0-32 12.8-32 32s12.8 32 32 32h204.8c19.2 0 32-12.8 32-32s-12.8-32-32-32h-204.8z" />
<glyph unicode="&#xe931;" glyph-name="upload" d="M156.664 51.622c0-63.853 51.764-115.622 115.624-115.622h497.791c63.859 0 115.622 51.77 115.622 115.622v248.896h-65.318v-248.896c0-27.782-22.522-50.304-50.304-50.304h-497.791c-27.784 0-50.306 22.522-50.306 50.304v248.896h-65.318v-248.896zM51.85 333.244c-18.485-27.388 0.062-65.385 31.918-65.385h309.698c12.336 0 23.952 6.131 31.353 16.55l114.65 161.388c19.377 27.277 0.942 66.202-31.353 66.202h-315.43c-12.673 0-24.564-6.47-31.918-17.366l-108.918-161.388zM134.465 336.819l71.686 106.22h249.711l-75.459-106.22h-245.937zM617.544 284.41c7.402-10.419 19.017-16.55 31.352-16.55h309.696c31.859 0 50.406 37.997 31.923 65.385l-108.922 161.388c-7.354 10.897-19.245 17.366-31.917 17.366h-315.43c-32.295 0-50.73-38.925-31.353-66.202l114.65-161.388zM661.958 336.819l-75.457 106.22h249.709l71.686-106.22h-245.939zM332.079 742.111c12.714-12.794 33.393-12.859 46.187-0.145l142.909 142.016 142.908-142.016c12.794-12.714 33.472-12.65 46.189 0.145s12.646 33.473-0.147 46.187l-161.324 160.318c-15.285 15.189-39.965 15.189-55.251 0l-161.326-160.318c-12.794-12.714-12.859-33.393-0.145-46.187zM521.192 589.031c-18.037 0-32.659 12.317-32.659 27.51v313.61h65.318v-313.61c0-15.194-14.622-27.51-32.659-27.51z" />
</font>
</defs>
</svg>
